<svg id="Layer_1" data-name="Layer 1" xmlns="http://www.w3.org/2000/svg" viewBox="0 0 559.72 150.92"><defs><style>.cls-1{fill:#f0bb1a;}</style></defs><path class="cls-1" d="M163.27,59c-14.72-.58-29.32-3-44.6-1.06.66.34.81.48,1,.49,6.52.19,13.06.11,19.55.61,6.82.52,13.59,1.69,20.4,2.42,4.21.45,8.45.59,12.68.89,2.11.15,4.22.37,6.34.53a1.48,1.48,0,0,0,1.24-.5L166.9,60.16a3.37,3.37,0,0,1,3-.52c3.7.53,7.42,1,11.09,1.66,8.91,1.67,18,2,26.94,3.24a121.44,121.44,0,0,0,19.26.82s.11-.11.28-.29c-.91-1.32-2.31-.57-3.45-.8s-2.55.51-3.77-.59c2.14-1.57,4.42.06,6.68-.69a3.85,3.85,0,0,0,0-1.07c-1.25-4.77-.77-9.52.07-14.28a1.75,1.75,0,0,1,1.34-1.53,31.73,31.73,0,0,1,9.23-2.06,74.34,74.34,0,0,0,10.9-1.29,83.94,83.94,0,0,0,14.7-3.54,10.73,10.73,0,0,1,4.09-.29c2.28.11,4.55.39,6.82.63a6.91,6.91,0,0,1,1.39.41,57.57,57.57,0,0,1,15.45,7.7c.26.19.55.33,1,.63l2.15-2.57a6.41,6.41,0,0,1,6-2.37,113.21,113.21,0,0,1,14,2.18,2.06,2.06,0,0,0,2.7-1.38c2.74-6.45,3-5.2,8.73-6.57,4.56-1.09,9.18-1.29,13.75-2A31.17,31.17,0,0,1,353,36.4a13.3,13.3,0,0,1,5.52,3A3.62,3.62,0,0,0,362,40.67c.1-.81.23-1.68.32-2.55.42-3.75,2-5.14,5.78-5.18.81,0,1.63.11,2.44.09A33.27,33.27,0,0,0,379,32a26.44,26.44,0,0,1,8.2-1.19c3.55.16,7.06,1.07,10.59,1.66.4.07.79.23,1.19.31,1.05.2,2,.23,1.94-1.43a41.12,41.12,0,0,1,8.55,3.55c3.05,1.68,6.3,3,9.46,4.5,1.53.72,3.07,1.43,4.57,2.22a30,30,0,0,1,2.91,1.8,5.72,5.72,0,0,0,5.38.75c5.48-2.14,11.4-1.88,17-3.33a44.43,44.43,0,0,1,8.42-1.3c3.08-.18,6.19.1,9.28.19.24,0,.59.07.67.23,1.26,2.39,3.79,1.7,5.74,2.29,2.22.68,4.72.27,6.85,1.59.3.19.89-.09,1.4-.16a10.27,10.27,0,0,1,1.51,5,12.58,12.58,0,0,0,.68,2.34,8.21,8.21,0,0,1,.36,2.62,16.13,16.13,0,0,0,1.26,7.4q1.45,4,2.93,8a1.65,1.65,0,0,1,.1.48c0,4,2.19,7.27,3.69,10.76a12.64,12.64,0,0,1,1,7.39,15.88,15.88,0,0,0-.27,1.94,9.1,9.1,0,0,1-4.52,7.66c-1.72,1.08-3.16,2.58-4.82,3.76s-3.56,2.25-5.33,3.4a19.62,19.62,0,0,0-3.8,2.6c-2.69,2.84-6.17,3.9-9.76,4.71-2.86.64-5.77,1.1-8.68,1.5-2.5.35-5,.6-7.54.74-4.31.24-8.63.38-12.95.51-.88,0-1.77-.26-2.66-.32-2.6-.19-5.21-.26-7.8-.53-1.85-.18-3.67-.6-5.51-.93-1.36-.24-2.71-.55-4.08-.74-3.24-.42-6.48-.9-9.73-1.14a18.6,18.6,0,0,0-8,.88A41.58,41.58,0,0,1,381.11,114c-4.14-.12-8.3.37-12.45.48-2.6.07-5.21,0-7.81-.13-3.33-.2-6.67-.5-10-.86-4.05-.45-8.08-1-12.13-1.51-4.28-.51-8.58-1-12.87-1.46a6.56,6.56,0,0,0-4,.82,16.47,16.47,0,0,1-8.22,2.07,14.94,14.94,0,0,0-7.06,1.74c-4.14,2.06-8.59,2.91-13,4-5.13,1.3-10.2.88-15.32.68A21.37,21.37,0,0,1,267.75,117a6.41,6.41,0,0,0-2.3-.69c-3.63-.59-7.25-1.11-10.4-3.28a4.83,4.83,0,0,0-4.68-.51,11.32,11.32,0,0,1-5.78.5,26.93,26.93,0,0,0-4.4-.24,4.26,4.26,0,0,1-4.11-2.57c-1.57-3.13-3.2-6.25-4.52-9.5a46.14,46.14,0,0,1-1.41-5.93,24.54,24.54,0,0,0-1.05-2.94c-.89-2.19-1.75-4.29-1.24-6.83.37-1.86.07-3.85.07-6.06l-3.41-.23C214.35,78,204.14,78.09,194,77c-4.7-.51-9.44-.51-14.16-.88-3.74-.3-7.48-.69-11.18-1.25a153.41,153.41,0,0,0-18.28-1.39c-6-.2-12.06-.57-18.09-.83-3.59-.15-7.17-.16-10.76-.34-3.25-.16-6.5-.55-9.75-.66-5.38-.18-10.76-.37-16.14-.28-8.72.16-17.43.54-26.15.83q-9.66.32-19.31.66c-1.46.05-2.92.28-4.38.32-2.34.08-4.11-.75-4.89-3.18a19.9,19.9,0,0,0-1.31-2.61c-1.16-2.28-.89-4.69-.36-7.48L36.59,61c-.74-1,.2-1.68.32-2.54a48.64,48.64,0,0,1,10.87-1.82c3.48-.11,6.95-.65,10.43-.9,3-.22,6.07-.06,9-.52a38.18,38.18,0,0,1,11,.06c5.07.68,10.26.44,15.38.71,3.16.16,6.31.5,9.45.86a63.47,63.47,0,0,0,13.64-.18,97,97,0,0,1,20-.45c3.33.35,6.68.35,10,.64,5.09.45,10.18,1,15.27,1.52A4.6,4.6,0,0,1,163.27,59Zm168.47,49.66H336v-.21l-4.28.2c-1.59-.79-1.59-.79-2.75.31Zm55.6-64.73-3-.59a2.48,2.48,0,0,0,3,.57c.28,1.26,1.41,1.2,2.3,1.42,2,.51,4.09,1,6.14,1.42.67.15,1.36.21,2,.31l.06-.43Q392.65,45.22,387.34,43.88ZM257.27,66.67c-1.32,2.09-3.29,3.76-2.47,6.58a1.41,1.41,0,0,1-.14.94,7.19,7.19,0,0,0,.25,6.15,11.82,11.82,0,0,1,.55,6.46c-.41,3.14-.88,6.27-1.23,9.42-.19,1.77.37,2.26,2.23,2.26.91,0,1.94-.28,2.45.66-1.32,2.53-4.47,1-5.93,3,.76,2.3,2.81,3.19,4.33,4.62a13.1,13.1,0,0,0,7.66,3.45,26.21,26.21,0,0,1,2.55.72c1.73.4,3.6,1.34,5.18,1a43.32,43.32,0,0,1,9-.73,42.93,42.93,0,0,0,15-2.63c4.4-1.68,8.94-3,13.43-4.41a73.11,73.11,0,0,1,8-2.32c3.75-.74,7.56-1.14,11.35-1.65a3.11,3.11,0,0,1,1.2.16c4.42,1.13,8.86,2.17,13.23,3.46,4,1.18,7.84,2.74,11.81,3.93a18,18,0,0,0,5.51.74c8.27-.24,16.33-2,24.46-3.31a10.4,10.4,0,0,0,1.18-.33c3.61-1,7.18-2.17,10.83-3a41.21,41.21,0,0,1,18-.39c4.2.95,8.51,1.4,12.77,2.1,4.1.68,8.21,1.27,12.28,2.1s8.09,1.72,12.31.81c3.5-.75,7.09-1.09,10.6-1.83a13,13,0,0,0,7.64-5,4.36,4.36,0,0,0-1-.21c-1.05.14-2.11.26-3.14.49a41.35,41.35,0,0,1-20.32-.76,29.83,29.83,0,0,0-13.74-1,22.39,22.39,0,0,1-3.85.69c-3.09,0-6.18,0-9.26-.2-1.45-.1-1.83-1.51-.67-2.43a5.67,5.67,0,0,1,2.65-1c4.21-.53,8.43-1,12.64-1.42a18.19,18.19,0,0,1,2.44-.17c4.08.11,8.15.22,12.23.41a50.33,50.33,0,0,1,7.78.68,25.54,25.54,0,0,0,9.47-.14c2-.31,3.79-.87,4.17-3.33a4.24,4.24,0,0,1,1.07-1.89c.35-.42,1-1,1.37-.9a16.79,16.79,0,0,1,4.7,1.17c.86.4,1.34,1.61,2.05,2.53-.05,0,.16,0,.24-.08,1.19-1.55,2.47-3.05,3.5-4.7a18.7,18.7,0,0,0,2.49-5c1.15-4.46,0-6.8-4.52-8-.49-.14-1.15.35-1.52.48-.52-.75-1-2-1.86-2.54a23.4,23.4,0,0,1-3.1-2.76c-3.65-3.5-7.55-6.72-12.32-8.69a3.53,3.53,0,0,0-3-.24c-.57.25-1.72.28-2-.07a3.91,3.91,0,0,0-3.77-1.23c-2.66.24-5.3.7-7.93,1.19-2.47.47-4.88,1.33-7.36,1.59a53.87,53.87,0,0,1-6.83-.15c-.85,0-1.71.06-2.56.09,0,.19-.06.38-.1.57,1.68.69,3.39,1.33,5,2.09a12.63,12.63,0,0,0,9.1.43,27.17,27.17,0,0,1,9.18-.95,4.27,4.27,0,0,0,2.08-.45,5.77,5.77,0,0,1,5-.24,37.44,37.44,0,0,1,13.9,8.78c.24.25.26.72.57,1.64-1.07-.8-1.66-1.21-2.21-1.65a13.74,13.74,0,0,0-4.88-2.66A32.36,32.36,0,0,1,462,67.31a7.86,7.86,0,0,0-2-1c-4.93-.73-9.86-1.4-14.83-.25-4.63,1.07-9.2,1.31-13.52-1.21-1.33-.78-2.68-1.54-4.08-2.19a13.32,13.32,0,0,0-3.86-1.44,19.42,19.42,0,0,1-10.7-4.88c-1.73-1.47-3.62-3.15-6.32-2.28a1.25,1.25,0,0,1-.88-.33c-2-1.6-4.5-1.77-6.88-2.26a3.92,3.92,0,0,0-3.38,1,32.15,32.15,0,0,1-12.2,6.42,87.73,87.73,0,0,1-10.12,1.61,5.41,5.41,0,0,0-3.63,1.68c-1.29,1.47-1.71,1.43-2.91,0a4.3,4.3,0,0,0-2.92-1.46,23.4,23.4,0,0,1-8.94-3.15,33.11,33.11,0,0,0-12.08-4.47,4.4,4.4,0,0,0-1.25.1,23.84,23.84,0,0,1-9.74,11.12c-2.57,1.56-5.38,2.73-7.91,4.35a20,20,0,0,1-10.46,2.88c-1.14,0-2.87.57-2.33-1.78,0-.12-.31-.34-.51-.49a20.81,20.81,0,0,0-3.51-2.62c-4.41-2.09-8.91-4-13.37-6a4.28,4.28,0,0,0-.46-.17c-2.2-.53-2.75-.31-4,1.63a12,12,0,0,0-1,1.66,4,4,0,0,1-3.39,2.49c-2.48.3-5,.57-7.75.88-.38,1.12-.91,2.39-1.25,3.71a3.13,3.13,0,0,1-2,2.28c-3.18,1.3-6.15,1.32-8.87-1.15A34,34,0,0,0,257.27,66.67ZM43.49,62c-.25.85-.37,1.4-.57,1.92-.77,2-.55,2.48,1.46,2.79a12.26,12.26,0,0,0,2.18.18c4.4-.09,8.8-.26,13.19-.29,6.91,0,13.81,0,20.71,0,10.68,0,21.37.06,32.05.14,4.07,0,8.15.19,12.22.41,3.89.2,7.78.66,11.68.84,4.63.21,9.31-.06,13.91.48,2.68.31,3.79-.93,5.25-2.87-.78-.14-1.31-.28-1.84-.32-3.65-.33-7.3-.79-10.95-.92s-7.26-1-10.93-.43a5.55,5.55,0,0,1-1.46-.09q-11.31-1.1-22.6-2.21c-1.78-.17-3.53-.55-5.31-.62-3.9-.15-7.81-.2-11.72-.22-1.63,0-3.25.24-4.88.22-4,0-8-.23-11.95-.22-1.7,0-3.39.46-5.09.52-3.83.14-7.66.16-11.49.23-1.38,0-2.76.09-4.14.08-2.43,0-4.87-.11-7.3-.09A13.7,13.7,0,0,0,43.49,62ZM275.13,46.28a17.51,17.51,0,0,0-1.92,0c-3.72.41-7.44.85-11.15,1.29-4.61.56-9.21,1.11-13.81,1.7-1.52.2-3,.57-4.54.74a2.18,2.18,0,0,0-2.09,1.41,17.86,17.86,0,0,0-1,4.23c-.15,2.65,0,5.32,0,8v6.57c2-.71,4-1.29,5.83-2,3.69-1.49,7.41-2.89,10.46-5.64a9.6,9.6,0,0,1,4.22-2.31,32.59,32.59,0,0,0,7-2.75c2.25-1,4.6-1.82,6-4.11.13-.2.46-.28.55-.34-.24-.67-.42-1.14-.61-1.67l2.32-.6C275.92,49.24,275.55,47.84,275.13,46.28ZM217.35,77.15c0-.18,0-.36.05-.54-2-.3-4-.73-6-.88-4-.31-8.17-.15-12.17-.78-7.44-1.17-14.94-1.23-22.42-1.82-4.3-.35-8.61-.66-12.92-1-6.09-.45-12.17-.94-18.26-1.33-3.56-.23-7.14-.26-10.7-.42-9.29-.43-18.57-1.07-27.86-1.25s-18.74.1-28.11.15c-3.67,0-7.34-.05-11,0-4.37,0-8.75,0-13.13.12-3,.08-6,.35-8.94.57-.69,0-1.49,0-1.78,1.06,1.23,1,2.65.59,4,.52,2.18-.12,4.35-.54,6.53-.59,6.6-.17,13.2-.2,19.8-.31,7.09-.13,14.14-1.14,21.25-.65,3.41.24,6.86,0,10.28.21,5.7.27,11.39.71,17.09,1,4.15.19,8.32.17,12.47.32,5,.18,9.94.38,14.91.68,6.34.38,12.7.57,19,1.63,4.17.71,8.43.91,12.66,1.23q8.9.69,17.81,1.23C205.7,76.59,211.53,76.85,217.35,77.15ZM471.2,98A9,9,0,0,0,478,94.24a2,2,0,0,0,.14-2.25c-.82-1.84-2.46-2-4-2.23s-2.31,1.1-2.69,2.37-1,2.45-2.43,2.75c-3.51.73-7,1.57-10.66,1a110.8,110.8,0,0,0-21.21-1.18c-5.12.17-10.23.94-15.33,1.51a6.65,6.65,0,0,0-1.86.83l.06.54a11.13,11.13,0,0,0,2.74.56,78.54,78.54,0,0,0,8.26-.63c5.19-.75,10.33-1.53,15.46.42A16.33,16.33,0,0,0,451.2,99c2.61.17,5.27,1.17,7.87-.39a6.54,6.54,0,0,1,2.64-.35c.07,0,.16.19.28.34l-1.77.63a7.8,7.8,0,0,0,3.53,0c.86-.18,1.65-.68,2.51-.85a12.49,12.49,0,0,0,6.14-2.78,28.55,28.55,0,0,1,3.13-2.33,8.05,8.05,0,0,1,1.64-.62l.13.29ZM296.13,111.38l.1.65a18.84,18.84,0,0,0,2.49,0c2.1-.26,4.19-.62,6.28-.92s4.19-.63,6.29-.87c2.83-.33,5.66-.66,8.5-.85s5.51-.57,7.91-2.2a2.53,2.53,0,0,1,1.55-.55c4.2.5,8.46.38,12.58,1.59a53.64,53.64,0,0,0,6.1,1.08,15.78,15.78,0,0,0-4.06-2.72,11.74,11.74,0,0,0-3-1,35.84,35.84,0,0,1-8.92-2.31,4.2,4.2,0,0,0-1.89-.45c-4,.18-8.13-.12-12,1.49a50.11,50.11,0,0,1-5.81,1.8c-2.35.66-4.77,1.11-7.09,1.88C302.11,109,299.13,110.24,296.13,111.38Zm92.71-65c-2.66-.9-5.35-.7-6.71-3.17,0-.05-.15-.05-.23-.06a37.2,37.2,0,0,0-6-.41,4.43,4.43,0,0,0-2.63,1.9c-.67.93-1.09,1.87-2.32,2.3a2.67,2.67,0,0,0-1.4,1.78c-.41,2.22-.57,4.49-.84,6.73-.14,1.15.54,1.59,1.51,1.84,2.11.54,3.82-.34,5.43-1.52.85-.62,1.63-1.35,2.49-1.95C381.56,51.37,385,49,388.84,46.34Zm43.72,12.95c1.61-.39,3.2-.68,4.73-1.18,2.87-.93,5.67-2,8-4.09a6.77,6.77,0,0,1,5.42-1.71c4.26.38,8.37,1.18,12.1,3.73,1.39-1.95,2.52-3.72,2.4-6.24-1.72.18-3.25.36-4.79.48-2.25.18-4.48.85-6.77.21s-4.38-1.27-6.61-1.74a56,56,0,0,0-5.79-.83,4.28,4.28,0,0,0-5,3.24,11,11,0,0,1-2.92,5C432.62,56.76,431.64,57.67,432.56,59.29ZM320.32,55c-1.84-.09-2.06,2-3.5,1.48-.34-1.3-.67-2.56-.89-3.37-2-.67-3.77-.83-4.95-1.77-2.24-1.78-4.23-.91-6.36-.13a5.33,5.33,0,0,0-1.13.45,4.36,4.36,0,0,1-4.19.4,1.75,1.75,0,0,0-2.32.72,8.35,8.35,0,0,1-1.25,1.17c.46,1,1,1.9,2.12,1.87,2.95-.09,5.25,1.28,7.58,2.86,1.81,1.22,3.86,2.08,5.78,3.15.82.46,1.57,1,2.82,1.91A18,18,0,0,1,320.32,55Zm44.49.6.59-.51c-.36-.86-.5-2-1.13-2.53a4,4,0,0,1-1.08-5.2,34.34,34.34,0,0,0-10.35-3.15,11.73,11.73,0,0,1-4.59-1.33,9.23,9.23,0,0,0-9.35-1c-2,.78-2.92,2.34-4,3.82-.12.15.11.57.24,1.17a16,16,0,0,0,2.5-1.1,7.78,7.78,0,0,1,6.78-.89c1.32.35,2.52,1.28,3.84,1.45,4,.52,6.84,3.21,10.12,5.07C360.56,52.64,362.65,54.15,364.81,55.55ZM258.18,65.29c1.28.9,2.27,1.59,3.24,2.3,1.83,1.35,3.62,2.76,5.49,4.06,2.85,2,6.6,1.1,7.63-1.75.49-1.36.89-2.74,1.36-4.18-2.07-.64-4.06-1.28-6.07-1.88-3-.89-6-.17-8.94.08C260,64,259.24,64.73,258.18,65.29Zm47.93,48.43c-3.54-.18-7.07-.74-10.56.49a20.83,20.83,0,0,1-4.78,1c-5.83.6-11.68,1.09-17.52,1.64-.17,0-.32.24-.75.58A50.66,50.66,0,0,0,306.11,113.72ZM239.71,46l-.29-.63a21.87,21.87,0,0,0-8.94,1.55,2.81,2.81,0,0,0-2,2.12,26.18,26.18,0,0,0,.32,13.72,1.67,1.67,0,0,0,2.32,1.33,36.73,36.73,0,0,0-.28-5.05c-.37-1.95.19-3.71.56-5.52.46-2.29,2.4-2.86,4.26-3.51a3.71,3.71,0,0,0,.84-.48,1.66,1.66,0,0,0,.31-.39L236.3,48Zm190.37,60.45,0-.36c-1-.14-2.06-.28-3.09-.44-4.11-.62-8.25-1.08-12.31-1.94a34.55,34.55,0,0,0-10.91-.61c-1.59.17-3.16.59-4.89.92,3,.78,5.62,1.51,8.29,2.17a13.58,13.58,0,0,0,2.39.3,36.81,36.81,0,0,1,6.06.41,32.9,32.9,0,0,0,9.49.36A42.66,42.66,0,0,0,430.08,106.45Zm-193.81-5.83c3.81,6.12,8.51,9.16,15.52,9.46-.86-2-1.83-4-1.29-6.29.23-1-.52-1.47-1.51-1.4-1.14.09-2.28.18-3.4.35A13.13,13.13,0,0,1,236.27,100.62Zm58.27-41.51a12,12,0,0,0,1.17.73c2.52,1.15,5.08,2.22,7.56,3.44a43.52,43.52,0,0,1,6.6,3.64,8.1,8.1,0,0,0,6.13,1.8c1-.14,2.07-.45,3.12-.57,2.65-.32,3.61-2.28,4.87-4.81-1.35.76-2.18,1.25-3,1.7a9.22,9.22,0,0,1-5.35,1.41,9.75,9.75,0,0,1-5.61-2c-1.75-1.39-4-2.1-5.88-3.39A12.23,12.23,0,0,0,294.54,59.11ZM419.7,53.55c-1.48-1.19-3.17-2.08-4.19-3.46-2-2.66-4.71-4.19-7.42-5.83a5.5,5.5,0,0,0-1.48-.25l2.19,2.42a9.37,9.37,0,0,0-1.84,0c-.41.1-1,.34-1.08.64a1.55,1.55,0,0,0,.51,1.18c.32.32.92.35,1.24.68,3.34,3.41,7.69,5.25,11.77,7.8C419.51,55.57,419.59,54.63,419.7,53.55Zm-85,.28a9.06,9.06,0,0,0,5.15-.94,5.14,5.14,0,0,1,3.21-.74c4.7,1,9.41,2.08,13.47,4.9a16.47,16.47,0,0,0,6.6,2.46c.58.1,1.29.25,1.34-.53,0-.31-.64-.75-1.07-1-1.13-.64-2.36-1.11-3.44-1.83-1.74-1.17-3.39-2.49-5.1-3.73-.16-.12-.42-.1-.67-.16.07.51.12.93.22,1.76-3.19-2.1-6.3-3.55-9.85-3.18S337.56,51.35,334.69,53.83ZM239.2,94.31c0-.24-.07-.47-.1-.7l2.77-1.41c-1.49-.43-2.58-.67-3.62-1.07s-2.48-.19-2.86-2l6.73-1-7.05-2.29a6.58,6.58,0,0,0,.23,6.79,21.65,21.65,0,0,0,2.17,3.51c1.06,1.25,2.11,2.62,4.29,3.19-2.68-1.45-.34-2.38,0-3.39ZM233,98.54l-.51.3c.31.81.56,1.64.94,2.42,1,2,2,4.07,3.05,6.11a11.52,11.52,0,0,0,1.14,2.14c.49.6,1.17,1.37,1.84,1.45,2.9.31,5.82.41,8.74.56.1,0,.21-.21.42-.42l-.9-.25a16.14,16.14,0,0,1-7.19-3.47c-2.19-1.95-4.39-3.88-5.77-6.56A15.26,15.26,0,0,0,233,98.54Zm96.45-34.06c4.15-2.22,7.48-4.92,9.52-9.26-2.35-.49-4.19.21-6.05.79a3,3,0,0,0-2.3,2.82C330.37,60.58,329.89,62.31,329.43,64.48Zm51.51-6.66c2.64,0,4.81-1.12,7-2.2a1.45,1.45,0,0,0,.59-1.18c-.2-1.18.52-1.59,1.36-1.52,2,.19,3.26-1.39,5.33-2-2.33-.59-6.87-.57-8.33-.05-1,.36-2.1.87-2.19,2s-.91,1.67-1.8,2.05A3.17,3.17,0,0,0,380.94,57.82ZM325.05,41c2.93,1.76,6.58,1.45,8.65-.5a3.92,3.92,0,0,1,1.89-.9c1.42-.27,2.88-.33,4.31-.58a7.32,7.32,0,0,0,3.59-1.49C337,37.87,330.68,37.18,325.05,41ZM471.87,101.3c3.71,0,6.24-1.19,8.2-3.62a9.2,9.2,0,0,1,1-1c2.8-2.48,3.4-6,4.47-9.3-2.11,2.42-3.74,5.2-5.9,7.47S474.75,99,471.87,101.3ZM441.74,59.44l.14.41c.74-.16,1.48-.29,2.21-.48,4.39-1.11,8.72-2.72,13.35-1.13.67.23,1.62.44,2.14-.59-.13-.2-.21-.51-.38-.57a33.82,33.82,0,0,0-5.74-2,9.9,9.9,0,0,0-5.25.25C445.89,56.35,443.88,58.05,441.74,59.44Zm-17.42,49.23c2.5,1.63,16.36,2.22,21.55.91C441.92,108,429.05,107.46,424.32,108.67ZM191.09,71a16.1,16.1,0,0,0,8.68.15c3.73-.84,7.44-1.83,11.3-1.93,1,0,2-.23,3.06-.35v-.6a11.9,11.9,0,0,0-2.48-.33c-2.59.17-5.17.58-7.76.67-3.27.11-6.35,1.11-9.53,1.62C193.26,70.42,192.18,70.76,191.09,71ZM123.36,60.25l32.29,2.42C145.07,59.92,134.26,59.91,123.36,60.25Zm260.09,47.86.11.52a7.34,7.34,0,0,0,2.63-.59,11.6,11.6,0,0,1,5-.32,31.59,31.59,0,0,0,7.52-.2,6.33,6.33,0,0,0,3.66-1.38,44.29,44.29,0,0,1-4.79-1.06,6.57,6.57,0,0,0-4.48.25c-1.91.67-3.89,1.14-5.84,1.7Zm-10.89-73.7a46.16,46.16,0,0,0-6.11.42,3.63,3.63,0,0,0-2.23,2,5.76,5.76,0,0,0-.44,4.3l2.74.76c-.21-1.5-.36-2.63-.55-4A5.65,5.65,0,0,1,367.4,37a33.05,33.05,0,0,1,3.79-.77C372,36.12,372.61,35.92,372.56,34.41Zm-184.7,33a12.36,12.36,0,0,0-1.35-.14A18.73,18.73,0,0,0,179.18,69c-1.77.74-3.43,1.09-4.76-.79-.79.34-1.45.65-2.12.9s-1.21.39-2.05.65A22.64,22.64,0,0,0,187.86,67.44Zm195.28-28.6c1.84-.12,3.49.45,5.29-.08a11.84,11.84,0,0,1,4.08-.11c3.15.23,6.29.59,9.44.85a7.46,7.46,0,0,0,1.76-.41,6.55,6.55,0,0,0-4.26-1.15c-1.46,0-3,.32-4.37-.07-3.24-.94-6.44-.37-9.67-.29A2.09,2.09,0,0,0,383.14,38.84Zm56.72,74.44c9.38-.17,18.75-1,27.76-4.15Zm-170.58,1.85c3.31,1.07,22-.62,24.92-2.33ZM238.11,53.47l-.77-.1c-1.46,2-1.63,4.46-1.66,6.87,0,1.74.18,3.49.29,5.33,1.6.53,1.84.4,1.92-1.21.06-1.22.19-2.43.21-3.65C238.14,58.3,238.11,55.88,238.11,53.47Zm248.54,42.8a7,7,0,0,0,4.07-4.55,20.79,20.79,0,0,0,.66-8,6.81,6.81,0,0,0-1.71-4.31C490.7,85.63,489.27,93.39,486.65,96.27ZM235.4,51.77c-2.06,0-2.81,1.24-3.15,2.71a22.58,22.58,0,0,0,.37,9.64c.07.34.54.6.92,1,.57-2.33.7-5.13,0-6.36a2.3,2.3,0,0,1,.41-3.06A5.66,5.66,0,0,0,235.4,51.77Zm229.73-3.34c-2.71-.89-11.77-1.24-16.22-.58,2.07.74,3.57,1.74,5.4,1.66,3.32-.14,6.63-.38,9.95-.61C464.52,48.89,464.77,48.63,465.13,48.43ZM348,37.9A21.28,21.28,0,0,0,360.22,43C356.76,39.64,353,37.71,348,37.9Zm-75.83,3.26c-6.06-1.13-10.45-.66-12.73,1.32C263.85,42.44,268.08,42.88,272.12,41.16ZM427.87,57.74c.58-1.86-.24-2.57-1.17-3.09-2.12-1.21-4.27-2.35-6.44-3.47-.9-.46-1.88-.8-2.82-1.19l-.24.44ZM202.38,72.52a13.53,13.53,0,0,1,2.32.38c1.6.54,2.75-.72,4.17-1,3.48-.58,6.92-1.36,10.38-2.06A60.76,60.76,0,0,0,202.38,72.52Zm50.31-25.63c5.33.14,15.18-1.09,17.1-2.26C264,45.51,258.33,44.47,252.69,46.89Zm176.24-.16c.28,1.41.53,2.49.71,3.58a1.33,1.33,0,0,0,1.47,1.29c.3,0,.53-.8.77-1.25a6.24,6.24,0,0,0,.79-1.65,4.45,4.45,0,0,0-.11-2.27c-.1-.26-1.15-.22-1.76-.17A12.19,12.19,0,0,0,428.93,46.73ZM339.1,111l19.06,1.84,0-.5C351.87,111.5,345.59,110.06,339.1,111Zm136.31-8.47a6.29,6.29,0,0,0-4.7,1,14.64,14.64,0,0,1-5.79,2.41,21.48,21.48,0,0,0-2.44.76C467.4,107.5,471.08,105,475.41,102.48ZM212.31,73v.5c1.85,0,3.6.83,5.55.1,2.19-.82,4.46-1.42,6.71-2.06.83-.24,1.7-.35,2.55-.51l-.07-.36ZM467.24,43.26c-4.7-1.13-13.41-1.13-19.29,0Zm-73.3-.08.1-.55c-1.64-.41-3.26-.92-4.91-1.2a30,30,0,0,0-5.34-.55c-1.56,0-3.11-1.41-4.71.21Zm11.56-1.77-1.06-1.16c-.57,1.7-1.77,1.56-3,1.44-2-.2-4-.36-6-.5a3,3,0,0,0-.89.23l.05.32,8.3,1.94ZM465.05,56.9c2,2.87,4.68,1.66,7.14,1.75l-5.9-3.51ZM380,33.55c3.72,1.09,7.36.15,11.53-.26C387.29,31.57,383.67,32.93,380,33.55Zm101.07,36c-.72,2.15-.49,2.71,1.32,3.25l2.9.84C484.21,70.24,483.56,69.62,481.07,69.56Zm-232.72,28c-1.85.31-3.73-.21-4.92,1.61,1.59,1,2.9,1,5.47.38C248.74,99,248.58,98.41,248.35,97.59Zm135.1,13c2.78.4,5.53.54,8.35-1C388.56,108,386,109.57,383.45,110.62Zm-10.36-.5c2.89.77,5.75,1.32,8.89-1C378.58,108.69,375.86,109.66,373.09,110.12ZM330.65,54.64c2.22-3.07,5.83-3.44,9.52-4.64C335.9,49.18,332.35,50.93,330.65,54.64ZM276.81,55l12-.79C287,53.38,278.9,53.63,276.81,55Zm126.76-9c-3.36-1.33-6.47-1.46-9.54-1.74C400.1,46.76,401.83,47.12,403.57,46ZM329,60.32c-2,1.23-4.22,4.66-4.4,6.39A8.06,8.06,0,0,0,329,60.32Zm138.7-8.61c-.7,2-.71,2,.79,2.69,1.25.56,2.54,1,3.81,1.53a5,5,0,0,0,2.64.48C472.59,54.34,469.42,54.33,467.65,51.71ZM250.55,84.45c.22-1.11.1-1.84-1.06-1.87s-2.61-.1-3.91,0c-.46,0-.9.45-1.88,1Zm.82,2.11-3.44,3,3.53,1C251.69,89.32,252.86,88.17,251.37,86.56Zm67.72-43.22c2.79-.06,3.51-2.08,5-3.76C321.26,39.65,319.63,40.61,319.09,43.34Zm102,12.4c.8,2.39,2.29,3.17,6,3.12C425,57.74,423.36,56.3,421.1,55.74ZM472,60.64a19.4,19.4,0,0,0,7,4.44A9.27,9.27,0,0,0,472,60.64ZM253.6,110.53l2.83-1.17-3.91-3.16-.51.35C252.5,107.76,253,109,253.6,110.53ZM426,49.72l.38-.48c-.66-2.3-1.66-3-5.5-3.24ZM473,52.22a19.32,19.32,0,0,0,3.15,2,22.2,22.2,0,0,0,3.85.87l.26-.78C478.12,52.93,475.51,52.66,473,52.22Zm10.68,14c-.23-2.19.2-4.51-1.59-6.21C482.07,62.26,481.31,64.67,483.71,66.23Zm-117,45.8a13.24,13.24,0,0,0-7.05-1A9.81,9.81,0,0,0,366.69,112ZM324.92,49.28a9.3,9.3,0,0,0,5.78-3C328.62,46.64,326.54,47,324.92,49.28ZM475,50l0,.57,4.84,1.52.34-.56c-.44-.45-.82-1.19-1.33-1.29A26.84,26.84,0,0,0,475,50ZM304.7,49.23c-2-.08-4-.38-5.7,1.07C300.67,51.18,301.53,51,304.7,49.23Zm-32,9.77a11.67,11.67,0,0,0-3.15-.4,3.94,3.94,0,0,0-3.25,2Zm-36.9,12.13c2.3-.21,2.38-.4,1.32-2.85C235.09,68.94,235,69,235.76,71.13Zm-7.38,2.52c-2.63-.29-4.14.11-5.47,1.32A9.67,9.67,0,0,0,228.38,73.65ZM326,57.5l-.3-.53-5.84,3.27.24.42C322,59.53,324.43,59.32,326,57.5Zm42.21-8.92c-1.77,1.11-1.95,3.83-.72,6.26C367.69,52.85,367.91,50.91,368.18,48.58Zm-136,25.87c3.92.56,3.92.56,4-1.12ZM413.39,109c2.55,1.88,3.3,2.09,5.67,1.59A14.09,14.09,0,0,0,413.39,109ZM236,76.87c-2.64-1.23-2.64-1.23-4.58-.28,1,.92,2.09.78,3.16.77A5.8,5.8,0,0,0,236,76.87Zm108.32-28,.2-.35c-.91-.24-1.81-.54-2.73-.7s-2-.56-2.93.68ZM407.88,37c1.29,1.45,1.9,1.7,4,1.6C410.46,38.31,409.72,36.43,407.88,37ZM232.46,81.57c.5-.39,1.06-.61,1.13-.92.18-.89-.58-1.14-1.21-1.05-.41.05-.76.56-1.14.87Zm247.44-20c.07-.63.24-1.11.12-1.19a5.89,5.89,0,0,0-3.87-1.14Zm.06-3.27c.08-2.15,0-2.21-3.36-2.1ZM328.33,50.38l.4.63c1.13-.77,2.37-1.35,3.07-2.77ZM249,73.24h-3.78C246.51,73.83,247.78,74.41,249,73.24Zm59.67,38.63.08.6,4.85-.71-.07-.53Zm-30-53a3.67,3.67,0,0,0-3.44,0l.07.51Zm22.84-12.6c-3.36,0-3.36,0-4.43,1.09Zm102.62,62.35.1.8,3.06-.54-.07-.47Zm-154-14.85c-1.51.64-1.51.64-2.21,2C249.45,95.73,249.63,94.69,250.19,93.72Zm62-46.45c-.92-1-1.83-.34-2.92-.6C310.24,48,311.1,47.66,312.23,47.27Zm-71.3,29.52c-.61-.34-1.26-.62-1.81.17a.91.91,0,0,0,0,.87c.84.57,1.33-.06,1.79-.65C241,77.13,241,77,240.93,76.79ZM412.7,43.41,415.28,45C415.11,43.27,414.31,43.16,412.7,43.41ZM157.8,62.68l0,.36,3.35.32,0-.25ZM346.18,48.5c1,1.06,1,1.06,3.3,1ZM277,61.19V61h-4.33v.18Zm88.37-16.65c-.87-1.77-.87-1.77-1.92-.68ZM289.29,57l-.07-.53-2.23.2C288,57.94,288.62,57.37,289.29,57ZM477.66,69.45l1.95,1.74.36-1.8a5.88,5.88,0,0,0-1-.26A6.08,6.08,0,0,0,477.66,69.45ZM313.26,48.81c.88.85,1.48.7,2.09,0Zm-82,36.82V88.8C232.14,87.46,232.08,86.69,231.27,85.63ZM166.41,69c-.1-.2-.2-.4-.29-.6l-1.53.7.19.47Zm62.86,16.82.18,0V82.37h-.18Zm180.39,23.62c.48.94,1.08,1,1.77.18Zm10.42-68.1c1,1.37,1,1.37,2.38,1.5Zm-142.19,8c-.38,1.66.21,1.85,1.6,1.51ZM243.72,86.53v.55c.51-.08,1,.51,1.66-.55Zm43.91-38.37.36-.56-1.77-1.19-.29.41ZM171.93,67.28l-.08-.37a4.44,4.44,0,0,0-.9.07,2.94,2.94,0,0,0-.67.41l.14.24Zm148.63-10.9.18.36a2.41,2.41,0,0,0,.84-.21,3.15,3.15,0,0,0,.62-.73l-.33-.34Zm14.07,53.8V110h-2.12v.14Zm78.89-70.61-.29.48,1.46.61.18-.38ZM261.68,114.18c0-.19,0-.38,0-.39-.56-.19-1.13-.35-1.7-.52l-.1.34ZM164.52,63.41l.08.14h1.8v-.14ZM249.2,76.86l-.2-.49-1.25.56.19.43ZM398.07,36l0,.23h1.67v-.34Zm36.06,77.09,0,.52.89-.31L435,113Zm-23-68.37.36-.49-1.33-.69-.2.34ZM367.72,60.94l-.14.53a6.6,6.6,0,0,0,1,.21s.13-.35.19-.53Zm-197.4,2.54v.31l.86.06v-.28Zm309.13,2.58c-.56.87-.66,1-.77,1.19.18.11.36.3.55.31s.47-.19.48-.31A6.05,6.05,0,0,0,479.45,66.06ZM250.1,71.39l0-.37a1.91,1.91,0,0,0-.77-.08,3.14,3.14,0,0,0-.74.53l.16.29Zm-176-14.71,0-.14-.74.14Zm297,54.68v.28h1.49v-.22ZM243.94,94.76l0-.42h-1.39l0,.27Z"/><path class="cls-1" d="M408.66,78.28c-.93-1.08-1.91-2.12-2.77-3.25s-1.47-2.25-2.27-3.32c-1.27-1.7-2.61-3.34-3.91-5a1.69,1.69,0,0,1,0-2.42,1.47,1.47,0,0,1,2.2,0c3.71,3.13,8.42,4.19,12.65,6.23,2.44,1.17,5.09.91,7.68.87.89,0,1.78-.2,2.67-.29,3.62-.35,5.28.62,6.52,4,.54,1.47.83,3,1.32,4.87l2.45-1.58c1.12.78.78,1.65.11,2.43-4.57,5.27-10.45,6.86-17.16,6-1.53-.19-3-.59-4.56-.86a6.08,6.08,0,0,1-4.82-3.69c-.79-1.77-1.4-3.7-3.76-4.25,1.48-.94,2.26.38,3.29.61Zm5.8-3.44c.77.68,1.43,1.72,2.31,2A6.54,6.54,0,0,1,420,79.18,4,4,0,0,0,422.8,81,5.29,5.29,0,0,0,428,77.43c.25-.82.48-1.64.72-2.48-1.24-1.54-3.17-2.37-4-1.42s-1.83.79-2.84.87-2-.08-2.61.38C417.61,76,416.22,75.44,414.46,74.84Zm5.25,6.22a9.47,9.47,0,0,0-9-4.06Q413.45,81.6,419.71,81.06Zm-1.43,4.42c3.35,1,9.72-.18,11-2C425.39,83.16,422,85,418.28,85.48ZM411.37,82l-.39.27c.47.48.88,1.26,1.43,1.38,2.41.51,4.85,1,7.34-.14ZM427,81.51c2-.49,3.89.12,4.55-2.15l-2-1.62C428.77,78.92,428.05,80,427,81.51Zm-19.42-9.72-.33.65c.93,1.54,2.66,1,4.12,1.14Zm1.82,2.95c.55,1,1,1.31,1.79.79.1-.07.15-.23.32-.49Zm-1.19-4.5-.17.59,2.13.64.14-.48Z"/><path class="cls-1" d="M398.86,83.83c.59,1.24.56,2-.6,2.76-2.79,1.86-6,2.41-9.13,3-2.55.5-5.12,1-7.7,1.26a66.39,66.39,0,0,1-9.23.41,7.24,7.24,0,0,1-6.84-5,18.37,18.37,0,0,0-1.63-2.71c-.73-1.17-1.55-2.3-2.17-3.53-.46-.9-1.06-1.93-.14-2.94A3.46,3.46,0,0,1,364.74,76c1.44.28,2.85.68,4.26,1.07a49.56,49.56,0,0,1,5.82,1.77,5.31,5.31,0,0,0,5.11-.5,13,13,0,0,1,9.89-1.44,16.35,16.35,0,0,0,2.43.16c1.68.06,4.31,2.64,4.37,4.28a2.54,2.54,0,0,1-1.83,2,4.18,4.18,0,0,1-3.86-2.65c-2.6-.38-2.74-.26-2.73,2.13,0,3.25-.69,4-4.57,5.14a7,7,0,0,0,5.36-.92c1.48-.87,2.85-1.71,4.79-1,.77.27,2-.49,2.93-.91A16.86,16.86,0,0,0,398.86,83.83ZM379,86.63c2.23.49,4.33-.21,6.45-.74a1.85,1.85,0,0,0,1.5-1.94,20,20,0,0,0-.22-2.43l-6.09,2.59,2,.42c-.15.26-.17.38-.23.39-.61.17-1.22.33-1.83.47s-1.48.27-1.54,1.24c-.75-.29-1.51-.72-2.15.36Zm-7.82-7.48-2-.39,0,.35h2.09c.19.34.31.9.57,1a57.34,57.34,0,0,0,7,1.83c1.73.27,7.18-2.28,8.73-3.7a2.42,2.42,0,0,0-.62-.26,10.79,10.79,0,0,0-6.07,1.43,8.46,8.46,0,0,1-4.07,1.25C374.88,80.5,373.05,79.66,371.17,79.15Zm-4.51,1.91a9.28,9.28,0,0,0,3.73,5,1.47,1.47,0,0,0,.94.2,23.71,23.71,0,0,0,7-1.76C374.36,84.23,371.12,81.58,366.66,81.06Zm1.63,6.66a7.26,7.26,0,0,0,7.86,2.54ZM364,81c.37-1.22.67-2.23,1.08-3.62-.8.28-1.63.31-1.84.69C362.61,79.07,363.12,80,364,81Z"/><path class="cls-1" d="M337.41,94.8A17.82,17.82,0,0,0,334,96.33c-2.64,1.92-5.77,2.13-8.79,2.74-.41.08-.9-.25-1.36-.34a18.09,18.09,0,0,0-3.31-.58,29.92,29.92,0,0,1-5.08-.16c-1.61-.29-3.37.28-5.07.46a4.26,4.26,0,0,1-1.76-.13,10.2,10.2,0,0,1,5.33-1.2c2.2-.05,4.39,0,6.59,0a13.24,13.24,0,0,1,2.67.2,14.91,14.91,0,0,0,11.78-3c-2-.87-3.86-1.47-6.05-.8-.87.27-2-.21-3.36-.4-2.23,1.84-5.19,2.24-8.39,1.79-5.27-.73-10.56-1.37-15.85-2a30.45,30.45,0,0,0-3.17-.16c-7.52-.17-15-.08-22.33,1.95-3.43,1-6.25,2.69-7.83,6.23,2,.53,3.44-.62,4.75-1.45A16.26,16.26,0,0,1,279.83,97a62.88,62.88,0,0,1,12,.09c3.34.25,6.68.28,10,.45,1.75.09,3.5.27,5.38.41-.24.48-.31.74-.38.73-3.48,0-7-.11-10.45-.2-4.48-.12-8.95-.34-13.43-.39a16.49,16.49,0,0,0-10.13,2.93,9.1,9.1,0,0,1-3.39,1.32c-2.18.47-3-.14-3.61-2.31,1-1,2.06-1.89,3-2.9a10.23,10.23,0,0,1,4.67-3,60.1,60.1,0,0,1,14.89-2.6c4.79-.24,9.6.26,14.41.41a95,95,0,0,1,13,1.57,11.84,11.84,0,0,0,8.53-1.22,8,8,0,0,1,6.14-.92C333,92,335.72,92.41,337.41,94.8Z"/><path class="cls-1" d="M303.75,75.66l12,2.47-.08.58c-.75-.06-1.5-.07-2.24-.18q-3.87-.54-7.74-1.14c-2.22-.35-2.88-1-3.21-3.06,2.19-1,4.35-1.94,6.92-1,3.49,1.23,7.17,1.44,10.83,1.74a54.63,54.63,0,0,1,7,.79c6.14,1.31,11.55-2.72,13.19-8.81a5,5,0,0,1,4.17-3.89,5.14,5.14,0,0,1,5.37,3,5.19,5.19,0,0,1,0,1.43c-.81-.85-1.29-1.33-1.76-1.83a3.77,3.77,0,0,0-4-1.3,4.32,4.32,0,0,0-3,3.18,14.51,14.51,0,0,1-6.42,8.3,10.71,10.71,0,0,1-7.48,1.32c-4.68-.69-9.39-1.09-14.07-1.71-1.52-.21-3-.72-4.51-1.07C306.85,74,306.13,74.16,303.75,75.66Z"/><path class="cls-1" d="M279.08,77.28a5.81,5.81,0,0,1-4.75,6.11c-3.14.37-6.23,0-8.35-2.82a3.69,3.69,0,0,0-3.58-1.63,3.05,3.05,0,0,1-1.81-.46c-1.16-.79-1.16-1.89-.09-2.82,1.5-1.29,3.07-2.1,5.1-1.06,1.23.62,2.54,1.08,3.82,1.61,3.21,1.32,5.76.58,7.74-2.33.63-.92,1.16-1.92,2-3.37.21.87.54,1.41.39,1.73-1.3,2.71-3.09,5-6.11,5.93a5.4,5.4,0,0,1-3-.12c-1.76-.58-3.41-1.51-5.15-2.2-2-.79-2.93-.4-3.94,1.66a10.74,10.74,0,0,0,1.61.14,3.69,3.69,0,0,1,3.73,1.8c1.69,2.86,4.57,3.1,7.3,2.83a5.61,5.61,0,0,0,4.23-3.37C278.48,78.36,278.79,77.82,279.08,77.28Z"/><path class="cls-1" d="M394.46,99.25a4.46,4.46,0,0,1,4.42-1.91c.88.11,1.76.27,2.65.38a4.19,4.19,0,0,0,3.37-.93,6.23,6.23,0,0,1,7.87-.26c-.59.4-1,1-1.6,1-5.17.92-10.2,2.9-15.59,2.2A4,4,0,0,1,394.46,99.25Zm4.72-.62-.11-.43-1.59.4.1.38Z"/><path class="cls-1" d="M333.38,81.54c.67-.19,1.34-.36,2-.57a8.77,8.77,0,0,0,6.09-6.74c.85-3.54,2-4.5,5.65-4.11.69.07,1.36.25,2.16.39-.42,1.19-1.23,1-1.89,1-3.6-.24-3.88.24-4.76,3.49C341.67,78.49,338.31,82.75,333.38,81.54Z"/><path class="cls-1" d="M331.48,82.2a15,15,0,0,1-4,0c-3.05-.82-6-1.93-9-2.95-.2-.07-.36-.28-.79-.62.57-.11.94-.29,1.22-.21,2.16.69,4.28,1.5,6.46,2.11a32.19,32.19,0,0,0,4.05.63c.69.1,1.39.16,2.09.24Z"/><path class="cls-1" d="M268.83,110h9.08C275,111.3,270.65,111.37,268.83,110Z"/><path class="cls-1" d="M257.89,51.7a27.2,27.2,0,0,0-4.85.48,24.13,24.13,0,0,0-3.9,2c-1.33.66-2.94.94-3.6,2.65,1.18,1,2.22.53,3.18-.11.67-.44,1.17-1.13,1.84-1.58a2.08,2.08,0,0,1,1.48-.45c2.89,1.05,5.25,0,7.5-1.69l1.16-.86c-.18.84-.15,1.33-.37,1.59A7.09,7.09,0,0,1,254,56.1a5.69,5.69,0,0,0-4.67,1.32,5.36,5.36,0,0,1-3.18.9c-1.62,0-2.28-1.27-1.48-2.7a3.45,3.45,0,0,1,1.3-1.42c2.54-1.25,5.11-2.47,7.74-3.5a6.38,6.38,0,0,1,2.89-.06C256.93,50.67,257.23,51.15,257.89,51.7Z"/></svg>