<svg id="Layer_1" data-name="Layer 1" xmlns="http://www.w3.org/2000/svg" viewBox="0 0 559.72 150.92"><defs><style>.cls-1{fill:#f0bb1a;}</style></defs><path class="cls-1" d="M18.16,67.3c3.58-2.65,7.4-1.77,11.06-2,2.55-.16,5.09-.46,7.64-.56a17.22,17.22,0,0,1,4.43.28,29.31,29.31,0,0,0,11,.85,16,16,0,0,1,4,0,152.12,152.12,0,0,0,18,.47c4.65,0,9.31.63,14,.93,6.08.4,12.16.87,18.25,1.08,10.58.37,21.18.5,31.77.86,4.93.16,9.85.59,14.77,1,6.16.46,12.31,1.06,18.47,1.44,2.45.15,4.93-.25,7.39-.2,6.26.1,12.54.71,18.78.39,8.48-.43,16.94-.23,25.41-.31,3.95,0,7.9-.4,11.82-.61a3.87,3.87,0,0,0,.3-.86,21.41,21.41,0,0,1,4.21-10.73c2.6-3.67,5.24-7.44,9.67-9.15a35,35,0,0,1,7.1-1.92c4.62-.7,9.29-1.16,13.94-1.65,2-.21,3.9-.05,5.37,1.6a1.64,1.64,0,0,0,2.16.37c1.6-.85,3.06-.34,4.52.42,3.06,1.57,6.13,3.11,9.18,4.71a7.63,7.63,0,0,0,5.9.49c3.9-1.15,7.8-2.27,11.7-3.42a7.41,7.41,0,0,0,1.71-.67,6.74,6.74,0,0,1,5.05-.76,42.56,42.56,0,0,0,7.91.43,13,13,0,0,1,8.25,3.12c1.21,1,2.3,1.66,4,1.14,1.21-.37,2.56-.25,3.84-.56-1.89-.49-3.94.12-6.25-1.18a8.82,8.82,0,0,1,2-.76c2.2-.14,4.42-.13,6.62-.31,1.12-.09,2.49.17,2.84-1.63.08-.42,1.28-.87,2-.89a4.48,4.48,0,0,0,3.24-1.44c3.91-4,8.92-6.18,14-8.18a40.27,40.27,0,0,1,19.24-2.15c1.22.13,2.47,0,3.7,0,3.29.08,5.59,1.68,6.48,4.82a53.09,53.09,0,0,1,1.22,7,44.49,44.49,0,0,1,.44,4.47A7.62,7.62,0,0,1,395,55c-.14.74-.27,1.49-.4,2.23,1.27-.45.51.89,1.65,1.26,2.88.54,2.72.43,5.09-2.78a10.46,10.46,0,0,1,6.12-3.82c7-1.76,14.15-1.89,21.33-1.54,1.75.08,3.53-.14,5.28,0a21.16,21.16,0,0,1,11.18,3.55c2.58-.56,4.89-1.13,7.22-1.54,2.89-.51,5.78-.7,8.56.67a3.59,3.59,0,0,0,2.25.55c2.23-.75,4.39.07,6.57,0,1.74,0,3.48-.49,5.23-.6a43.46,43.46,0,0,1,4.42.07c.25,0,.49.22.75.26A7.63,7.63,0,0,1,487.15,60c.22,1.23,1.31,2.27,1.73,3.5a114.74,114.74,0,0,1,3.57,11.54,30.48,30.48,0,0,1,.27,7.59c-.05,2-.59,4-.61,6a11.23,11.23,0,0,1-1.61,5c-.86,1.73-1.82,3.43-2.52,5.23a9.34,9.34,0,0,1-4,5.06c-4.6,2.63-9.17,5.3-13.77,7.93a4.07,4.07,0,0,1-1.73.57c-3.09.11-6.18.22-9.27.17a10.92,10.92,0,0,1-6.34-2.39c-2.65-2-3.94-1.87-6.22.51a8.62,8.62,0,0,1-5.07,2.58c-2.69.45-5.35,1.19-8.06,1.52a23.18,23.18,0,0,1-5.25-.25c-2.54-.27-5.05-.71-7.58-1-2.36-.3-4.72-.53-7.08-.83-.23,0-.43-.26-.92-.59,3.62-.34,6.91,1.87,10.51.1a22.89,22.89,0,0,0-7.32-3.49c-4.87-1.59-9.78-3-14.63-4.65-2.06-.7-4-1.75-6.28-2.77.22,4-1.17,7.34-2.05,10.82a28.09,28.09,0,0,0-.35,5.75c0,.25.22.52.19.77-.33,2.59.76,4.36,3.4,5.29-.42.47-.59.85-.87.94-3.27,1.07-6.49,2.49-9.85,3-2.8.44-5.78-.09-8.67-.35-4.7-.42-9.1-2-13.5-3.65-4-1.47-6.82-4.57-9.91-7.32a22.51,22.51,0,0,0-4.54-3,38.21,38.21,0,0,0-5.84-2.42,16.18,16.18,0,0,0-8.12,0,5.36,5.36,0,0,0-1.27.39c-4.67,2.21-9.57,2.3-14.54,1.48-2.54-.43-5-1.11-6.66-3.39a5.9,5.9,0,0,0-2.41-1.49c-2.17-1-4.43-1.74-6.55-2.79-1.24-.61-2.24-.58-3.09.4-2.4,2.76-5.69,3.79-9,4.7-4.77,1.31-9.53,2.64-14.33,3.8a9.94,9.94,0,0,1-3.88,0c-2.81-.49-5.58-1-8.39-.12a9.15,9.15,0,0,1-5.21,0c-1.54-.39-3.14-.58-4.66-1a7.17,7.17,0,0,1-2.82-1.39c-2.71-2.49-6-4.34-8.22-7.39a15.94,15.94,0,0,0-2.78-2.43l-.63.24c0-.93,0-1.87,0-2.8-.2-3.16-.39-6.32-.71-9.47a9.26,9.26,0,0,0-.93-2.74c-.95-2.13-2-4.24-3.17-6.77-.13,0-.81,0-1.48,0-6.17.41-12.34,1-18.52,1.22-8.47.33-17,.53-25.44.55-7.86,0-15.74,0-23.59-.47-6.6-.39-13.17-1.45-19.75-2.2-1.93-.22-3.86-.47-5.8-.59-8.28-.5-16.56-1-24.85-1.41-6.08-.31-12.18-.63-18.27-.75-9.63-.2-19.27-.22-28.9-.32a74.77,74.77,0,0,1-8.21-.21,93.57,93.57,0,0,0-13.49-.4q-10.47.26-20.94.44c-1,0-1.93-.13-2.9-.16-2.44-.09-3.54-.66-4.09-2.94C18.85,71.14,17.55,69.33,18.16,67.3ZM279.6,50.58l-3.25-.3c0,.18,0,.37,0,.55l3.26-.25a5.29,5.29,0,0,0,4.52,1.78l.16-.54ZM435.31,96.49c-.9-1.12-2.2-.81-3.38-.95-2-.49-4.09-.9-6.09-1.5q-14.68-4.44-29.36-9c-.92-.28-1.31,0-1.51,1a9.94,9.94,0,0,0,1.56.79c3,.91,5.91,1.81,8.88,2.65q7.75,2.19,15.53,4.3c3.13.84,6.28,1.58,9.43,2.36.71.18,1.44.39,1.53-.73l3.47.94a9.24,9.24,0,0,0,5.42,2.1C439.08,97.52,437.37,96.5,435.31,96.49Zm43.45-9,.07.07,1.83-2.15-1.58.1,1.63-1.34-.2-.55-2.76-.32c-2.1-1.69-4.56-2.67-7-1.42-3.57,1.8-6.91,4-10.35,6.1a9.14,9.14,0,0,0,3.21-.45,11.52,11.52,0,0,1,4.21-.26c1.65.23,3.53-1.19,5.31-1.92,1.58-.66,2.82-2.1,4.7-2.1l-3.95,3.66,5.3-1.45a14.6,14.6,0,0,1-1.54,1c-4.34,2-8.7,3.92-13,5.94-2.09,1-4.11,2.12-6.16,3.18a3,3,0,0,0,2.13-.1A134.88,134.88,0,0,0,475.63,89c.42.48.88,1,.07,1.5a14.51,14.51,0,0,1-2.38,1.15c-5,1.91-10.08,3.76-15.11,5.68a38.55,38.55,0,0,0-4,1.94,1.84,1.84,0,0,0-1,2.42c3.38-1.31,6.58-2.86,9.95-3.8,6.54-1.83,12.28-5.3,18.26-8.3.72-.36,1.19-1.23,1.78-1.86l-.06.06v-2ZM301.51,100.25l-1.41-1.54-.39.51,1.86,1c2.09,2.82,5.51,3.21,8.4,4.63-.39-.74-.91-1.57-1.52-1.64C305.82,102.89,303.78,101.31,301.51,100.25ZM282.16,81.37l6.5,1.07c-.49-.89-.62-1.49-.88-1.55a21.33,21.33,0,0,0-7.34-.62l1.74,1.11L278,81.12l0,.6Zm57.15,1.48a8.72,8.72,0,0,0-7.86,1.66c2.17,1.16,6.13.6,7.68-1,.14-.15.07-.51.1-.78l2.48.34c-.64-.73-.87-1.23-1.17-1.27C339.88,81.73,339.1,81.78,339.31,82.85ZM448.43,102c-.1-2.36-1.24-4.39-1.93-7a30.75,30.75,0,0,0-1.63,4.91c-.21,1.5-2.05,2.42-1.46,4.25,1.84-.7,2.91-2.75,5.08-2.2-.21,2.58-2.37,3.34-4.21,4.2-2.06,1-4.28,1.59-6.39,2.42a6.53,6.53,0,0,0-1.31,1,5.08,5.08,0,0,0-4.4.23l4.37-.26a11.5,11.5,0,0,0,1.56-.23c3-.85,6.08-1.57,9-2.64C449.44,105.77,449.81,104,448.43,102ZM251.79,50.66,249.2,52a14.36,14.36,0,0,0-7.34,8.79c3.33-5.33,8.81-7.44,14.26-9.65a12.65,12.65,0,0,0-3.06.71c-1,.32-1.18-.41-1.29-1.13.78,0,1.66.38,2.53-.67Zm185.77,50.47c-4.64-2.47-9.82-3.31-14.77-4.83,3.86,2,7.73,4,12,5a9.51,9.51,0,0,0,2.83-.22c-.28.62-.55,1.24-.87,1.94-1.83-.33-3.58-1.08-5.31,0-.21.13-.66-.11-1-.22-3.5-1.19-7-2.42-10.48-3.56-1.87-.61-3.78-1.09-5.67-1.63l-.15.5c2.22.8,4.67,1.24,6.59,2.5s4.54.83,6.34,2.43c-1,1.45-2.34.17-3.38.68a5.44,5.44,0,0,0,5.8,2.39c2.78-.46,5.58-.77,8.37-1.18a3.06,3.06,0,0,0,2.67-2.72Zm-80.39,14.06a11.31,11.31,0,0,0-4.8-5.5c1.08,2.44,2.34,4.5,4.86,5.44a25.28,25.28,0,0,0,10.56,7.22c5.12,1.79,10.55,2,15.92,2.33,2.91.19,5.44-1,8.12-2.07-.15-.58-.23-1-.38-1.41a9.6,9.6,0,0,0-.47-1c-7.54,2.19-15,3.22-22.56,1.06a19.79,19.79,0,0,1-4-1.76C361.94,118.09,359.57,116.62,357.17,115.19ZM296.62,99.32l-2.85-2.85c-.9,1.12-1.69,2.24-2.62,3.23s-2,1.89-3.43,3.16a7.64,7.64,0,0,0,5-1.41,33.07,33.07,0,0,1,3.87-2.16,8.51,8.51,0,0,0-1.16,2.34c-.32,2.24-1.82,3.32-3.63,4.17a26.63,26.63,0,0,1-4.1,1.81q-4.82,1.38-9.73,2.45a54.73,54.73,0,0,1-22.83.4,8.25,8.25,0,0,0-1.65,0c-.05.17-.09.33-.14.49a15.36,15.36,0,0,0,2.54,1c3,.68,5.89,2.12,9,1.07a13.68,13.68,0,0,1,7-.28,15.47,15.47,0,0,0,4.44.31c6.69-.77,13.05-2.88,19.31-5.27a11.57,11.57,0,0,0,4.85-4c-1.15-1-2.18-1.83-3.09-2.77A7.09,7.09,0,0,1,296.62,99.32ZM246,95.1l0-.06c.82,5.43,7.47,9.8,12.06,9.94s9,.24,13.47.71a11.41,11.41,0,0,0,9.38-3.49c1.58-1.57,1.55-2.43,0-4a3.63,3.63,0,0,1-1.31-3,8.77,8.77,0,0,0-.5-2.42l3.34-1.5c-1.83-.9-3.59-1.77-5.72-1.63-3.26.21-6.52.28-9.79.43a8.2,8.2,0,0,1-6.71-3.13c-1.26-1.42-1.21-2.76,0-4.3.59-.77,1.18-1.53,1.81-2.33a15.23,15.23,0,0,1,3.36-.36,6.44,6.44,0,0,0,5.55-2.48,30.51,30.51,0,0,1,7.27-6.07c2.68-1.52,5.21-3.68,8.72-2.77.24-1.14.46-2.16.67-3.19l.64-3c-2.49-2.53-7-5.38-9.54-5.66-7.25-.79-14.54-1.75-21.51,1.57-.17.08-.46-.08-1.06-.2l2.3-2a31.81,31.81,0,0,0-7.18.72c-1.77.39-3.22,1.34-3,3.63-1.16-.72-1.64-.24-1.94.66-1,2.93-1.94,5.86-2.95,8.78-.55,1.61-1.17,3.2.38,4.55-2.57,2.57-2.42,3-1.07,4.45a14.54,14.54,0,0,0-.8,3.63,27.3,27.3,0,0,0,.89,5.21C243.35,90.42,243.74,93.2,246,95.1ZM361.73,51.55c1.2,3.84,3.8,6,6.45,8a35,35,0,0,1,7.75,7.48,6,6,0,0,0,1.21,1c1.82,1.5,3.66,3,5.46,4.54.21.18.22.59.32.88a2,2,0,0,1-2.77-.24c-1.87-1.47-3.73-2.95-5.56-4.47-2.11-1.74-4-3.85-6.32-5.18-1.65-1-2-1.93-1.76-3.24l-6.66-6.93c-.12,0-.23,0-.29.06-4.6,3.74-5.77,9.29-7.65,14.47a.3.3,0,0,0,0,.25c1.72,1.73-.14,2.86-.78,4.08a19.07,19.07,0,0,0-2.59,10.14c.44,5.67,1.8,11.24,2.58,16.89a22.26,22.26,0,0,0,6.68,13.24c1.71,1.63,3.71,2.94,5.55,4.44,3.53,2.9,7.85,3.78,12.12,4,4,.19,8.07-.66,12.1-1.11a3.26,3.26,0,0,0,1.23-.61,25.58,25.58,0,0,1-1.29-4.73c-.32-4.29-.38-8.59-.59-12.89-.14-3.12-.36-6.24-.56-9.64l-4.3,1.83-.29-.48a7.5,7.5,0,0,1,.92-1c.72-.52,1.52-.91,2.22-1.44,1.6-1.2,1.61-1.44.42-3.18a14.65,14.65,0,0,0,.69-2.89c.05-2.82,0-5.64-.09-8.46-.11-9.55.3-19,2.69-28.35.38-1.46.56-2.65-.9-3.74a1.82,1.82,0,0,1-.32-2.8c.14-.15.44-.16.81-.29l.73,2c.13-2.85,0-3.17-2.32-3.37-3.07-.27-6.16-.37-9.25-.45a10.94,10.94,0,0,0-2.36.46c8.62.69,9.7.91,11.06,2.56-3.23.91-6.4,1.83-9.58,2.7-1.1.3-2.22.53-3.34.73A24.42,24.42,0,0,0,361.73,51.55ZM420.07,82A2,2,0,0,1,423,80.85c1.11.41,2-.18,2.88-.87,1.62-1.21,3.34-2.29,5.06-3.36a6.69,6.69,0,0,1,6.12-.56c2.26.88,4.4,2,6.71,3.13-.51-4.4-1.05-9-1.64-14a29.83,29.83,0,0,0-4.76-3.62,65.72,65.72,0,0,0-9-3.68,57.62,57.62,0,0,0-6.18-1.38c-6.18-1.37-12.1-1-17.57,2.55a3.64,3.64,0,0,0-.53.45l1.15,2.34a8.49,8.49,0,0,0-2-.26c-.47.06-1.18.26-1.31.59A11.38,11.38,0,0,1,399,66.9c.38,2.64-1.8,3.36-3.41,4.45a4.49,4.49,0,0,0-2.12,3.48c-.16,1.56-.41,3.13-.47,4.7a12.54,12.54,0,0,0,.63,2.62c1.56-1.69,2.64-2.94,3.8-4.11,2.57-2.59,4.59-2.7,7.88-1.32,4.61,1.94,9.35,3.53,14,5.26A2.57,2.57,0,0,0,420.07,82Zm67.08,7.91.62.17c.2-.69.45-1.36.58-2.06a43.42,43.42,0,0,0,.79-4.92c.18-2.7.59-5.48.14-8.09a62.73,62.73,0,0,0-2.9-9.61c-.85-2.46-2.4-4.25-5.28-4.35-.88,0-1.75-.19-2.63-.19-2.74,0-5.47-.07-8.21,0-1.92,0-3.85.24-5.76.47a5.1,5.1,0,0,1-3.74-.68c-2.69-1.75-4.28-1.44-6.66.72a13.77,13.77,0,0,0-4.24,8c-.77,4.16-1.46,8.31-.06,12.31,2.64.76,5.1,1.41,7.52,2.16a7.46,7.46,0,0,0,5.4-.55,19.31,19.31,0,0,0,3.61-2.19c3.6-2.72,7.23-2.92,11.39-1,2.74,1.24,5.47,3.24,9.22,2.11l-1.19,1.69C486.26,86.05,486.7,88,487.15,89.9Zm-168-10.78c.66-.53.94-.92,1.31-1,2.11-.65,2.79-2.5,3.76-4.17a9.49,9.49,0,0,1,2.11-2.6c1.15-1,2.55-1.58,3.74-2.49,2-1.56,4.13-2.59,6.74-1.55,0,0,.12-.09.27-.21-1.56-1.88-3.1-3.79-4.7-5.63-.87-1-1.71-.89-2.63.16a5.64,5.64,0,0,1-1.66,1.58c-4.17,1.78-8.45,3.18-13.08,2.21a6.16,6.16,0,0,0-4.09.54c-3.32,1.54-6.74,2.58-10.49,2-1.42-.23-2.07.37-1.82,1.77a34.92,34.92,0,0,0,1.71,6.91c1,2.46.58,4.42-.47,6.77-3.16,7.06-2.86,6.76,2,11.57a2.45,2.45,0,0,0,2.86.67c2.62-1,5.36-1.77,7.88-3,2.34-1.12,4.69-2.46,5.1-5.51a1.4,1.4,0,0,1,.6-.81c2.13-1.35,2.48-3.67,3.34-5.78ZM54.21,74l3,.24c3.34.25,6.68.64,10,.71,10.15.19,20.31.21,30.47.39,3.88.07,7.75.48,11.62.61,3.7.12,7.41,0,11.11.12,3.26.09,6.52.36,9.77.57,4,.25,7.93.49,11.89.81,2,.16,4,.43,6,.71,4,.56,8,1.46,12.06,1.68,8.55.48,17.11.69,25.68.87,5.63.11,11.28.13,16.92-.07,8.12-.28,16.23-.79,24.34-1.23,2.81-.15,5.61-.39,8.64-.6l-.48-2.41c-.77,0-1.3,0-1.83,0-3.85.31-7.7.73-11.56.91-7.15.34-14.3.76-21.44.72-6.87,0-13.75.26-20.61-.67-3.27-.45-6.65-.16-10-.25-4.4-.12-8.8-.22-13.19-.47-6.6-.37-13.2-1-19.8-1.27-7.5-.33-15-.39-22.51-.6-4-.12-7.9-.33-11.86-.48-1.76-.06-3.53-.18-5.29-.11-4.4.16-8.8.47-13.2-.16a35,35,0,0,0-5-.17c-4.86,0-9.72.11-14.57.14C61,74,57.42,74,54.21,74ZM478.87,94.06c-5.24.74-22.5,7.46-25.32,9.87a20.33,20.33,0,0,0,2.95.56c2.38.06,4.76,0,7.15,0a10.84,10.84,0,0,0,2.62-.25c3.32-.9,6.58-2,9.91-2.81,5.06-1.28,7.9-5,10.36-9.14a8,8,0,0,1-1.81-1,9.69,9.69,0,0,1-1.17-2l-5.3,3.07a4.87,4.87,0,0,0,2.22-.16c.65-.14,1.31-.22,2.56-.43-.73,1.14-1.15,1.81-1.56,2.46l1.63,1.06c-2.15,2.5-7,4.87-9.64,4.73,1.8-2,4.38-2.34,6.32-3.83a25.78,25.78,0,0,0-4.41,1.42C472,99,468.57,100.53,465.17,102c-.8.34-1.59.72-2.45-.53C468,98.82,473.77,97.64,478.87,94.06ZM96.16,71.14v-.32c-1.91-.22-3.81-.55-5.72-.64C85,69.94,79.51,69.82,74,69.62c-6-.21-12-.49-18-.69-5.19-.17-10.39-.34-15.59-.35-4.57,0-9.14.21-13.7.33a4,4,0,0,0-1.31.14c-.36.15-.9.52-.9.78a1.73,1.73,0,0,0,.63,1.3,3.7,3.7,0,0,0,1.77.35q3.16,0,6.34,0C40.17,71.29,47,71,53.9,71c3.61,0,7.23.24,10.85.26,7,0,14,0,20.92-.07C89.17,71.13,92.66,71.14,96.16,71.14ZM406.68,91.69l-13.31-3.64c-.66,4.07.06,5.63,3.21,7.08,4.89,2.23,9.78,4.45,14.7,6.59,2.57,1.11,5.22,2.06,7.86,3,.43.16,1-.13,1.53-.22l.08-.57c-3.34-1.68-6.61-3.54-10.07-4.94a16.43,16.43,0,0,1-4.58-3c-.38-.33-.45-1-.66-1.55L407,94C406.91,93.34,406.81,92.64,406.68,91.69Zm-12,5.51c-.64,1.68.22,2.43,1.44,3,3.9,1.86,7.68,4,12,5,3,.71,5.91,1.77,8.82,2.76,2.67.92,5.22,2.17,7.93,2.9a28.59,28.59,0,0,0,13.91.38c1.11-.25,2.21-.63,3.3-1s2-.67,2.94-1a1.2,1.2,0,0,0-1.14-.22c-5.87,1.53-11.74,2.7-17.73.63-.84-.29-1.68-.53-2.51-.82-4.33-1.5-8.69-2.9-12.95-4.56-3.37-1.32-6.59-3-9.89-4.47C398.76,98.89,396.74,98.08,394.67,97.2Zm-80.89,11.12c2.61,4.88,17,5.19,22.33.7-1-.22-1.89-.49-2.83-.62-4.21-.58-8.34-2.41-12.71-.83a9.59,9.59,0,0,1-2.1.14C316.94,107.89,315.41,108.11,313.78,108.32ZM300.12,63.86c7,2,13.3.73,19.42-3.59-1.56-.6-2.76-1.1-4-1.54a4.88,4.88,0,0,0-5.76,1.3c-.81.92-1.55,1.9-2.38,2.81a4.32,4.32,0,0,1-1.11.65l-.28-.3,2-3.37c-3,.7-5.21,2.07-7.55,3.15C300.26,63.07,300.23,63.56,300.12,63.86Zm19.71,38.79c0,.23.08.46.13.7,1.6,0,3.21,0,4.79-.14.72-.09,1.35-.82,2.09-1A46.55,46.55,0,0,0,342,95.79c-.38-2.13-.67-2.32-2.38-1.52a38.2,38.2,0,0,0-4,2,10.63,10.63,0,0,0-1.85,2l.24.52c-1.56,0-3.25-.38-4.66.07C326.08,99.91,323,101.36,319.83,102.65Zm165.54-3.21a9.68,9.68,0,0,0-1.36,1.18,6.46,6.46,0,0,1-3.94,2.42,7.46,7.46,0,0,0-1.94.81c-1.79.93-3.53,2-5.37,2.83-5.19,2.34-10.5,4.28-16.39,3.95a6.17,6.17,0,0,0,2.25.64q4.75.14,9.51.12a3.29,3.29,0,0,0,1.48-.49c3.45-1.94,6.95-3.81,10.3-5.92C482.09,103.6,484.56,102.41,485.37,99.44ZM470.29,55.27l-.13-.49a18,18,0,0,0-4.44-.15c-2.39.49-4.47-.18-6.67-.86-3.28-1-6.51-.36-10.09.48a4.06,4.06,0,0,0,3.61,1.38c3.41,0,6.81,0,9.78,2.17a2.52,2.52,0,0,0,1.93-.09C466.31,57,468.29,56.09,470.29,55.27ZM400.18,79.79l-2.59,2.65c6.63,2.7,27.83,8.67,29.92,8.36-.83-.36-1.44-.69-2.1-.9-7.48-2.36-15-4.72-22.45-7C401.57,82.44,400.28,82,400.18,79.79Zm42.64-23.43c-5.84-5.09-7.46-5.55-16-3.94,2.31.26,4,.52,5.77.64,2.17.15,4.23.88,4.95,2.91.81,2.27,2.65,2.26,4.3,2.83a1.5,1.5,0,0,0,1.23-.15,3.42,3.42,0,0,0,1.15-3.34A2,2,0,0,0,442,53.66C442.29,54.64,442.56,55.5,442.82,56.36ZM298.43,82.54c1.48-1.47,1.86-3.05,1.18-4.52a26.36,26.36,0,0,1-2.22-10.38c-1.13.84-2.45,1.31-2.64,2.06-.46,1.8-1,3.74.32,5.57C296.59,77.39,298.23,79.49,298.43,82.54Zm-19.69,25.7c-3.84,0-7.67,0-11.51,0a23.46,23.46,0,0,1-3.65-.32A16,16,0,0,0,255.4,109C263.21,110.1,271,110.91,278.74,108.24Zm72.33-.35.89-.34c-3.81-6.72-3.56-14.33-5.34-21.5.17.91.35,1.82.53,2.78-.85,1.25-1.95,2.52-1.53,4.25s.91,3.53,1.5,5.25c.66,1.89,1.44,3.75,2.21,5.61C349.87,105.27,350.49,106.57,351.07,107.89ZM289,84.71c-.56-.76-.82-1.45-1.14-1.48-1.74-.17-3.58-.54-5.21-.13a9.53,9.53,0,0,1-3.6.09c-2.45-.29-4.88-.81-7.33-.91a40.14,40.14,0,0,0-5.74.57l0,.61ZM293.2,65c-.92.31-1.67.33-1.83.65-.84,1.64-1.65,3.6-.75,5.22a3.35,3.35,0,0,1,.06,3.38,2.87,2.87,0,0,0-.24,1.51c.49,2.57,1,5.14,1.63,7.69.09.41.54.73.82,1.1l.68-.15C291.06,78.15,292.32,71.83,293.2,65Zm159.65,42.41c4.88,3,9.7,2,14.84,0C462.53,106,457.69,107.35,452.85,107.45ZM305.22,97.87c2.54,2.19,4.78,4,7.94,2a1.68,1.68,0,0,1,.49-.17c2-.38,2.91-1.61,3-3.8a12.92,12.92,0,0,0-1.55.39c-1.54.63-3,1.34-4.59,1.94a2.85,2.85,0,0,1-1.77.22c-.54-.2-.92-.84-1.41-1.33ZM315,57.62c2.51.78,4.19,2.47,6.44,1.74A6.54,6.54,0,0,1,327,60c1.17.65,1.22.57,2.63-.54C325.13,57.28,320.62,55.8,315,57.62ZM440.94,82.27C439,79,435,77.63,432.21,79.09c-1.53.8-3,1.8-4.46,2.73.51,1,1.49,1.26,1.9.57,1.29-2.16,3-1.81,5-1.36S438.65,81.83,440.94,82.27Zm-231-7.88H179.05A173.59,173.59,0,0,0,209.89,74.39Zm86.58,12.2c1.37-4.42.66-7.88-2.92-10.94C293.43,79.75,293.74,83.33,296.47,86.59ZM280.24,55.05a25.06,25.06,0,0,0-11.53-2.56,5.63,5.63,0,0,0-3.64,1.78Zm8.61,32.51.22-1.14c-2.95-1.21-6.19-.89-9.3-1.13s-6.34-.34-9.5-.5l0,.52C276.38,86.6,282.64,86.8,288.85,87.56Zm-34.48,19.26c-5.2-1.55-8.41-5.4-11.31-10.26a7.39,7.39,0,0,0,.81,5.35c.12.27.55.66.72.61.94-.28,1.17.43,1.64.94C248.39,105.8,251,107.2,254.37,106.82Zm61.5-42.75c2.36.7,4.37.15,6.38-.35s4.08-.15,5.66-1.94C323.33,60.06,319.58,61.2,315.87,64.07ZM453.32,97.94c.62-.25,1.46-.41,1.47-.61.13-2.44,2.31-2.68,3.8-3.48,3.24-1.74,6.62-3.23,9.93-4.85a7.29,7.29,0,0,0,1.21-1l-.24-.27-16.58,7.45C453.06,96.23,453.17,97,453.32,97.94Zm-3.44-34.66c-3.94,5.52-4.6,16.83-1.44,22.75.3-1.79-.65-3.45-.78-5.2a55.94,55.94,0,0,1-.3-5.78,31.68,31.68,0,0,1,.68-5.74C448.43,67.45,449.13,65.67,449.88,63.28Zm-125.59,30c1.59,1.46,2.5,2.05,3.53,1.72,2.12-.67,4.17-1.56,6.58-2.49C330.49,90.06,327.55,92.28,324.29,93.32Zm68.08-44.8c-.9,3.33-2.76,6.37-2.69,10h2.63c.17-1.85.3-3.52.49-5.18S393.21,50.08,392.37,48.52Zm-99.31,38a25.77,25.77,0,0,0,1.71,4.65c.78,1.3,2.2,2.2,3.05,3.46A4.62,4.62,0,0,0,301.48,97a11,11,0,0,0-1.87-2.7c-.75-.86-1.62-1.62-2.31-2.51s-1.19-2-1.87-2.86S295.32,86.45,293.06,86.56Zm-12.2,17.83.54.52,6.39-4.78-2-.93V96.58l-2.86,1C284.71,100.72,282.41,102.44,280.86,104.39ZM350.78,51c4.23,1.72,6.17,1.19,9-2.36C356.59,48.76,353.38,47.91,350.78,51Zm86.05,6c-2.8-3.17-7.33-4-14.7-3.26ZM340.51,68.31c.19-1.51.3-2.35.39-3.1a10.76,10.76,0,0,0-6.84-3.74A27.56,27.56,0,0,0,340.51,68.31Zm51.13,42.42a16.18,16.18,0,0,0,2.15-8.9,2.17,2.17,0,0,0-1.51-2.09c-.19,2-.26,3.8-.57,5.57S391,108.87,391.64,110.73Zm81.25-55.88,9.66,2.2c.22-.14.74-.45,1.24-.79.12-.08.16-.27.32-.57C480.51,54.59,477,53,472.89,54.85ZM348.54,68.45l-3.6,1.38A3.65,3.65,0,0,0,348.35,72c0,1.9-1.94,3.34-1.14,5.63,1.05-2.55,2-4.87,3-7.22Zm-68.65,5.29.17.61,7,.31c.27-2.62-.95-3.7-3.19-2.91A31.63,31.63,0,0,0,279.89,73.74Zm146.39,18-.18.57c1.85.59,3.71,1.17,5.55,1.78a37.13,37.13,0,0,0,5.72,1.88c1.86.3,3.47,1.86,5.46,1.36.06-.22.11-.44.16-.65Zm-100-38c-1.29-1.78-2.9-1.21-4.26-1.22-1.19,0-2.61-.17-3.37,1.53C321.14,54.4,323.57,54.91,326.3,53.67Zm-41.91,35c2.07,2.23,4.63,2.8,7.45,3.51C290.48,87.93,287.29,88.89,284.39,88.64Zm-21.6-3.34c1.26,2.17,3.23,2.07,5.06,2.14,3.12.11,4-.06,5.19-.81Zm85.28-30.67c1.67.95,4.87,1.47,5.78.93l1.07-2.21C352.47,53.61,350.31,53,348.07,54.63Zm-18.26,41c2.25,1.38,5.29.5,8.36-2.42C335,93.53,332.54,94.67,329.81,95.67ZM453.47,58.82a.58.58,0,0,0,.09-.26.29.29,0,0,0-.21-.11,11.55,11.55,0,0,0-6,2c-.16.12-.15.46-.21.66a1.79,1.79,0,0,0,2.78.29C451.06,60.5,452.28,59.67,453.47,58.82ZM324.35,82.71a29.44,29.44,0,0,0,6.94-2.4c-2.59-1.45-4.26.23-6.09.62C324.51,81.08,323.91,81.51,324.35,82.71ZM300.6,61.24c0-.18,0-.36,0-.54L295.94,60l-1.25,2.55.4.46Zm-8.54-3,7-2.06,0-.61c-2.75.82-5.5,1.62-8.28.1Zm2.67,6.26a8.06,8.06,0,0,0-.21,1.37,7.16,7.16,0,0,0,.21,1.27c3.17-.79,3.27-.9,3.2-3.58Zm167,25.24c-4,.21-7.69,1.94-8.81,3.79ZM308,66c-1.23-.17-2.31-.33-3.39-.45a19.08,19.08,0,0,0-3.1-.21c-.36,0-.7.61-1.4,1.28C303.18,66.83,305.59,67,308,66Zm13.12,23.14a11.29,11.29,0,0,0,5.4-1.45C323.81,86.06,322,86.58,321.16,89.17Zm-4.24,11.91c2.1,1,3.75.16,5.54-1C319.51,98.71,318.42,98.91,316.92,101.08Zm19.38-30.3a4.15,4.15,0,0,0-5.34,1.6C332.77,72.84,333.43,72.66,336.3,70.78Zm-96.89-4.66c-1.83,1.19-2.45,2.55-2.17,4.21.07.4.87.69,1.76,1.34C239.16,69.53,239.27,68,239.41,66.12Zm68.67-13.2,8.05-1.32L316,51A12.08,12.08,0,0,0,308.08,52.92ZM358,45.09c3.56,2.11,4.71,2.17,6.53.5C362.48,44.81,360.5,45,358,45.09ZM322.1,98.38c2,1.74,3.82.66,6,0A5.28,5.28,0,0,0,322.1,98.38ZM459,87.33c-3.27.49-5.69,1.64-6.54,3.08A13.92,13.92,0,0,0,459,87.33ZM326.42,86c2.12,1.78,2.59,1.76,4.92-.15A4.79,4.79,0,0,0,326.42,86ZM434,84.81l-.3.59L442.27,88l.21-.73Zm-44.83-10c.77-1.68,1.32-2.91,1.89-4.16l-2-1.49C388.92,71.08,388.6,72.67,389.2,74.77Zm-41.41-9.4c2.39.15,2.39.15,2.63-2.53C348.45,62.58,348.23,64.08,347.79,65.37Zm95.08,25.88-7.66-2.56C437.36,90.76,440.08,91.1,442.87,91.25Zm-117.7,4.66c-2.89-2.11-3.82-2.24-5.52-.84Zm1.51-5a6.13,6.13,0,0,0-5.51,1C323.37,92.35,323.71,92.29,326.68,90.87ZM287.81,78.82c-2.07-1.29-3.52-1.48-6.64-.95C283.36,77.65,285.29,79.35,287.81,78.82Zm-13.43-.15c4.43.67,4.43.67,5.63-.11C278,78.77,276.2,77.53,274.38,78.67ZM389.2,68.19l3.12-2.12-3.12-1Zm-87.77-10.9,0,.51c2-.2,4-.14,5.86-.92l-.15-.76Zm53.1-9.84c1.54.77,2.85.14,4.16-.26C357.33,46.71,355.94,45.44,354.53,47.45Zm-23.34,41c2.12,1,3.28-.09,4.52-1A8.81,8.81,0,0,0,331.19,88.42Zm37.29-44.73-5.22-1C365.49,44.32,366.31,44.48,368.48,43.69ZM351,57.05c-3-1.36-3.23-1.31-3.72.8ZM283,93.59c3.44,1.58,4.22,1.51,4.19,0ZM347,59.18c2,1.32,2.67,1.17,3.68-.84ZM337,73.7l3.23-1.43C338.54,71.52,337.67,72.45,337,73.7ZM289.47,93.8c-.11,1-.17,1.7-.28,2.75l2.47-1.76ZM389.53,60.65l-.15,1.59,2.77-.54,0-.41ZM369.27,40c1.57,1.47,1.86,1.51,3.61.52Zm35.59,14,.28.64L408.73,53l-.27-.61ZM340.46,75.1l-.24-.61-3.32,1.06A3,3,0,0,0,340.46,75.1Zm8.26-13.42c-2.79-.88-2.79-.88-2.71.84ZM272.44,48.62v-.26H267v.26Zm123,11.49c2,1.27,2,1.27,2.94-.21-.7,0-1.29,0-1.88,0A9.55,9.55,0,0,0,395.46,60.11ZM446,65.92c1.45-2.67,1.45-2.67,0-3.32Zm-342.9,5.3.12.18h4.53v-.18Zm241.3,3.08.88,0a16.73,16.73,0,0,0,0-1.87,4.1,4.1,0,0,0-.92-.14ZM432,89.69l-.12.58,3.6.88.1-.37Zm-93.37,12.69.06.57,3.4-.74C340.49,100.93,339.6,101.87,338.65,102.38ZM454.2,85.84c-2.16-.85-2.39-.75-2.75,1.19ZM392.28,77c-.8.91-1.24,1.85-.15,2.86ZM338.36,90.73c0-.3-.07-.6-.11-.9l-2.09.34.1.74Zm8.43,20.53,3.14,1.49C349.48,111,348.06,111.44,346.79,111.26Zm46-13.28.43-.37-1.33-2.13C391.32,97,392,97.56,392.78,98ZM339.6,58.48c.59,1.13,1.24,1.66,2.23.33ZM286.4,56.2l-.48.33L287,58.66l.53-.31C287.18,57.63,286.79,56.92,286.4,56.2ZM451.13,96.07c-1.09,1.68-1.09,1.68.2,4C451.26,98.72,451.21,97.72,451.13,96.07Zm4.74-9.21c-.05-.18-.11-.36-.16-.54l-2.86,1.15.18.46Zm-16.2-2.43-.12.41,2.42.71.13-.45Zm-49.83,17.23.48.08-.38-2.7-.26,0C389.73,99.93,389.78,100.8,389.84,101.66Zm-58.6-22.2h3C332.66,78.62,332.66,78.62,331.24,79.46ZM310.91,54.38l-.12-.7-2.49.48.09.51ZM346.15,68l3.1-.89C347.87,66.45,347,66.14,346.15,68Zm127.22-8.9v.28l2.75-.14v-.14Zm-144-1.47c.07-.2.14-.4.22-.61l-2.34-.83-.14.38ZM214.23,74.37v.18h2.91v-.18ZM283,75.87l-.12.28h2.95v-.28Zm148,37.25.07.2h2.53v-.2ZM317.38,98.26c1.91-.25,1.15-1,.76-1.77ZM448.1,56.4c0-.22-.05-.44-.07-.66-.42.1-.85.2-1.27.32a1.41,1.41,0,0,0,.07.41C447.26,56.46,447.68,56.43,448.1,56.4ZM315.62,101.54l-.05-.69-1.66.49.08.37Zm29.92-34.88c-1.3.35-1.3.35-1.1,1.58Zm.64-2.37.28.36,1.36-.64-.52-.57Zm-19,10.39c2-.27,2-.27,1.51-1.36ZM274.82,81l0-.16h-1.73V81Zm70.37,4.28.43.13.33-1.23-.34-.1Zm-5.53,5.51a5.11,5.11,0,0,0,1.1.69c.21,0,.46-.11.69-.18-.16-.25-.28-.62-.51-.73S340.39,90.62,339.66,90.76Zm-36.25,8.6c.09-.17.25-.35.21-.41a2.59,2.59,0,0,0-.47-.53c-.11.16-.35.42-.31.49A2.36,2.36,0,0,0,303.41,99.36Zm39.89,9.06,0,.17,1.58.15,0-.32Zm71.23-14-.13.31a3,3,0,0,0,.76.46,3.11,3.11,0,0,0,.91,0V94.9Zm-84.81-4.82-.08-.56-1.53.21.06.45ZM440.46,89l.13-.33-1.36-.49-.08.25Zm-29.7-5.32.06-.27-1.27-.28-.06.3ZM344.55,80l.42,0-.1-1.25-.45,0C344.46,79.2,344.51,79.61,344.55,80ZM237.43,77.15l.5.37c.07-.15.23-.34.19-.43a2.32,2.32,0,0,0-.47-.47Zm26-28.27,0,.29,1.23-.07,0-.22Z"/><path class="cls-1" d="M475.56,89.12c.9-.91,1.85-1.75,3.27-1.58l-.07-.07c-.18,1.16.51.78,1.08.6,1.05-.31,2-1.51,3.21-.26l.06-.06-2.47.9A7.6,7.6,0,0,1,475.56,89.12Z"/><path class="cls-1" d="M353.33,74.76c1.43-1.42,2.91-1.18,4.26-1.19,4.07,0,7.69,1.72,11.43,3,2.15.73,4.37,1.29,6.52,2a4.73,4.73,0,0,0,4.93-.87,1.73,1.73,0,0,1,2.57-.06c.59.55.28,2.13-.55,2.87a6.29,6.29,0,0,1-6,1.15c-2.46-.6-4.86-1.48-7.27-2.3C364.59,77.83,360,76,355,75.76,354.47,75.73,354,75.16,353.33,74.76Z"/><path class="cls-1" d="M381,84.39c.25,1.59-.63,1.83-1.35,2q-2.81.78-5.66,1.39c-3.09.65-6.21,1.17-9.29,1.88-1.71.39-3.36,1-5,1.57a9.45,9.45,0,0,1-1.23.43,1.79,1.79,0,0,1-2.19-1.44c-.34-1.12.41-1.66,1.34-1.89,1.62-.41,3.26-.77,4.9-1.06q8.08-1.42,16.17-2.75A21.87,21.87,0,0,1,381,84.39Z"/><path class="cls-1" d="M379.44,47.25c1.88,2.47.59,4.67.75,6.74s.28,4.38.58,6.57c1-2.8.48-5.88,2.05-8.51-1.15,4.3-.2,8.92-1.69,13.17l-.62.07c-.36-.9-.71-1.81-1.13-2.88-2.5,0-3.84-1.57-4.81-3.73s-2.06-4.29-3.07-6.44a9.66,9.66,0,0,1-.29-1.78c3.55,2.86,4.67,6.6,6.67,10.5C379.42,56.25,377.76,51.77,379.44,47.25Z"/><path class="cls-1" d="M368.28,68.45c-2.5-2.69-6.59-3.37-8.6-6.78a67,67,0,0,1,12.8,8.41,1.27,1.27,0,0,1-1.84.86c-1.15-.4-2.23-1-3.35-1.52-2-.89-3.94-1.76-6-2.47,3,3.8,7.42,4.77,11.75,6-1,1.26-2.61,1.72-3.2.78s-1.41-.86-2.13-1.26c-3.15-1.74-6.24-3.58-9.33-5.43a5.14,5.14,0,0,1-1-1.17C359.47,64.89,363.63,66,368.28,68.45Z"/><path class="cls-1" d="M382,101.85a39.59,39.59,0,0,0-10.71,6.08c-1.27,1-2.55,2.13-4.59,1.9.66-2,2.71-1.92,3.89-3a25.44,25.44,0,0,1,4.28-2.63c1.37-.78,2.77-1.52,4.17-2.26s2.8-1.77,4.74-2c.07,2.55-1.83,3.67-3,5.19s-2.57,3.11-3.62,4.37l4.15-.94-2.08,5.71c-1.64-1.19,0-2.53-.23-3.82-2.36-.33-3.49,2.9-6.38,2.26a16.34,16.34,0,0,1,5.12-6.14A14.39,14.39,0,0,0,382,101.85Z"/><path class="cls-1" d="M357.91,109.64l-1.73-.11c-.56-1.21.22-1.57.87-2,3.85-2.67,7.72-5.31,11.54-8,2.73-1.93,5.38-4,8.09-5.95,1.48-1.09,1.6-1.05,3,.77a31.4,31.4,0,0,1-3,2.37c-3.39,2-6.87,3.95-10.25,6-2.48,1.51-4.89,3.15-7.25,4.85C358.62,108,358.39,108.82,357.91,109.64Z"/><path class="cls-1" d="M360.51,97.74c5-1.55,10.22-2.72,14.78-5.63-6.58.58-12.77,2.88-19.4,4.59a3.57,3.57,0,0,1,2.77-2.23c5.24-1.21,10.48-2.38,15.75-3.46a10.5,10.5,0,0,1,3,.31,5,5,0,0,1-3.51,3.05c-3.49,1.23-7,2.42-10.48,3.64-.47.16-.91.4-2,.88l3.2,1.21c-.92,1-1.93.69-2.85.31A2,2,0,0,1,360.51,97.74Z"/><path class="cls-1" d="M360.11,83.86c-.95-1.23-.91-1.61.42-2,.83-.23,1.7-.33,3-.58-2-1.39-4-.19-5.84-1a6.69,6.69,0,0,1,8.15.84c-.38,1.21-1.49,1.23-2.47,1.53S361.4,83.38,360.11,83.86Z"/><path class="cls-1" d="M352.09,93.23c-.56-2.2.4-2.86,3.41-2.08Z"/><path class="cls-1" d="M362.39,112.79c-2.07-.25-2.07-.25-2.56-1.71C361.42,111.14,361.42,111.14,362.39,112.79Z"/><path class="cls-1" d="M364.44,113.85l.79.6c-.11.11-.3.33-.31.32-.26-.21-.49-.44-.73-.66Z"/><path class="cls-1" d="M246,95.1c.16-.41.5-.86.44-1.23-.25-1.48-.76-2.92-.9-4.4a15.15,15.15,0,0,1,.37-3.38c.2-1.49.43-3,.69-4.69a2.14,2.14,0,0,1,1.07.14,6.68,6.68,0,0,1,2.68,7.34,7.73,7.73,0,0,0,.47,6.37,3.67,3.67,0,0,0,1.56,1.65c3.39,1.48,6.78,3,10.69,2a6.78,6.78,0,0,1,2.61.43c.16,2.24-1.54,2.45-2.78,3.32l1.68,1.4a4.82,4.82,0,0,1-1.08-.08,25.43,25.43,0,0,0-8.06-1.83c-3.2-.26-5.54-2.5-7.62-4.84-.64-.72-1.22-1.5-1.83-2.26C246,95,246,95.1,246,95.1Zm3.53,1.28c-.89-2.8-1.66-5.46-.33-8.42a3.45,3.45,0,0,0-1.41-4.14C246,87.76,246.86,94,249.57,96.38Zm14.16,3.9a49.28,49.28,0,0,1-5.88,0,43.33,43.33,0,0,1-5.47-1.43c1.35,1.66,2.59,2.1,4.87,2.13,1.38,0,2.76.16,4.14.27A2.14,2.14,0,0,0,263.73,100.28Z"/><path class="cls-1" d="M250,68.13c.68-2.3,1.74-4,4.48-4.41a18,18,0,0,0,5.06-2.08c2-1.06,3.87-2.49,6.24-2.73s5.27.52,5.93,3.47c-2.08,2.23-5.22,2.92-7.62,4.67-.37-.12-.72-.11-.85-.28-2.2-2.9-5-2-7.69-1.11-.71.23-1.26,1.11-1.77,1.79C252.63,69,251.94,69.17,250,68.13Zm20.44-5.9c-2.61-2.93-6.05-2.53-9.59.9l2.86,2.24Z"/><path class="cls-1" d="M414.57,62.19a16.73,16.73,0,0,1,3.59.75,3.93,3.93,0,0,0,3.52-.15,10.9,10.9,0,0,1,9.46-.13c1.56.72,2.29,1.56,3,3.76a25.73,25.73,0,0,0-3.33-2.37,11.43,11.43,0,0,0-4-1.29,6.79,6.79,0,0,0-3.79,1.08l11.47,3.49-.06.5a5.69,5.69,0,0,1-1.59,0c-1-.24-2-.63-3-.95a30,30,0,0,0-10.35-1.84,12.39,12.39,0,0,1-2.88-.39C415.65,64.48,414.87,64,414.57,62.19Z"/><path class="cls-1" d="M480.36,67.32c-2-1.47-2-1.47-8.33-.3,2.06,2.11,4.24,2.6,8.15,1.54-.65.73-1,1.4-1.33,1.44A15,15,0,0,1,475,70a10.08,10.08,0,0,1-3.21-1.17,10.27,10.27,0,0,0-7.35-1.12,6.29,6.29,0,0,1-3.5-.82,2.07,2.07,0,0,1-.72-1.74c0-.38.85-.92,1.35-1a7.59,7.59,0,0,1,3.12.27c4.12,1.57,8.27,1.29,12.47.52C479.12,64.59,479.14,64.67,480.36,67.32Zm-14.72-1.27c-1.42-.29-2.79-1.52-4.48-.2A4.05,4.05,0,0,0,465.64,66.05Z"/></svg>