<svg id="Layer_1" data-name="Layer 1" xmlns="http://www.w3.org/2000/svg" viewBox="0 0 559.72 150.92"><defs><style>.cls-1{fill:#f0bb1a;}</style></defs><path class="cls-1" d="M305.4,107.75a14.35,14.35,0,0,1-8.71.57c-.47-.09-1.18-.51-1.24-.87-.29-1.62-1.4-1.64-2.62-1.61-2.69.06-5.39.29-8.07.14a89.22,89.22,0,0,1-10.19-1.14c-2.87-.5-5.66-1.15-8.57-.43a17.7,17.7,0,0,1-2.43.2,10.07,10.07,0,0,0-4.87,1.45,31.69,31.69,0,0,1-3.48,1.43c-.65.33-1.07,1.21-1.72,1.4s-1.61-.17-2.41-.08c-.33,0-.61.64-1.05,1.14-1.08-.81-2.33-.7-3.74,0-4,2.06-8.13,2.06-12.38.79a29.89,29.89,0,0,0-4.76-1c-3.1-.42-6-1.1-8.42-3.33a5.3,5.3,0,0,0-2-.84c-.94-.3-1.91-.54-2.87-.77-2.51-.6-4-2.13-4-4.75-.1-5.73-1.77-11.47,0-17.21.07-.23-.07-.52-.12-.86-3.07,0-6.12,0-9.17,0s-6,0-8.93.21c-4.11.24-8.29-.4-12.34.85a2.07,2.07,0,0,1-1.45-.3,5.92,5.92,0,0,0-3.85-.62c-6.29.68-12.59,1.2-18.89,1.76a1.19,1.19,0,0,1-1-.36l4.75-.79,0-.27c-.78,0-1.56-.15-2.34-.14-4.6,0-9.2,0-13.79.18-5.05.18-10.1.63-15.15.77-8.85.24-17.7.31-26.55.52a52.55,52.55,0,0,0-6.75.59c-5.94.92-11.88.5-17.83.25-6.22-.25-12.44-.5-18.67-.69-1.61,0-3.27.44-4.83.18-2.76-.45-5.44-1.3-8.16-1.94s-5.3-1.07-7.65-2.52c-1.68-1-3.35-2.09-5-3.1-.46-1.48-.92-2.92-1.34-4.38a2.49,2.49,0,0,1-.09-1.29c.8-2.54,1.19-5.39,2.64-7.49,1.18-1.69,3-3.61,5.59-3.63a25.85,25.85,0,0,0,4.32-.24c2.8-.5,5,.74,6.91,2.41,2.18,1.86,2.19,3.65.26,5.75a2.63,2.63,0,0,1-2.63,1c-.94-.2-2,0-2.92-.14a16.9,16.9,0,0,0-2.9-.37,4.92,4.92,0,0,0,4.07,2c3,0,6-.07,9.07-.27a48.11,48.11,0,0,1,8.06-.33,34.65,34.65,0,0,0,4.85-.32,17,17,0,0,1,4,0A50,50,0,0,0,87.13,70c5.32-.3,10.66-.25,16-.27,5.68,0,11.35.11,17,0,2.52,0,5-.22,7.54,0a45.64,45.64,0,0,0,10.45-.31A83.15,83.15,0,0,1,157.88,69a111.43,111.43,0,0,0,19.5-.2c2.78-.28,5.6-.27,8.39-.47,4.59-.32,9.18-.81,13.78-1,2.73-.13,5.53-.19,8.63,1.41-.66-2.27-1.1-4.07-1.71-5.8a9.91,9.91,0,0,1-.53-6.09A5.53,5.53,0,0,0,205.6,54a10,10,0,0,1,3.68-11,14.71,14.71,0,0,1,11.59-2.34A106.7,106.7,0,0,1,235,44.33c2.09.71,4.42.7,6.65,1,.35.05.76-.08,1.07,0,5.7,2.21,11,.41,16.2-1.74A15.49,15.49,0,0,1,270.47,43c3.56,1.21,7.38,1.66,11.09,2.43a27.58,27.58,0,0,1,3.44.71,2.94,2.94,0,0,0,3.24-.65l-.71-1.79c2.65,1.34,4-.14,5.34-1.65a9.51,9.51,0,0,1,8.05-3.14,139.11,139.11,0,0,1,14.77,1.69,35.92,35.92,0,0,0,10.51.11c4.19-.47,8.28-1.74,12.58-1.38a8.62,8.62,0,0,0,3.75-.43c2.19-.84,4.14-.23,6.27.2a85.69,85.69,0,0,0,12.31,1.77,9.38,9.38,0,0,0,5.46-1.93,10.76,10.76,0,0,1,5.19-2.09c5.76-.66,11.48-.75,17.16,1.07,3.54,1.14,7,.49,10.39-1.43,3.86-2.18,8.11-3.49,12.69-2.67,2.21.4,4.39.93,6.58,1.44a11.09,11.09,0,0,0,8.39-1,14.82,14.82,0,0,1,8-2,42.42,42.42,0,0,1,11.82,1.34,6.31,6.31,0,0,1,1.34.78,10.61,10.61,0,0,0-1.81-.38c-.17,0-.36.52-.86,1.29l2.66-.92a5.84,5.84,0,0,1,2-.18,14.18,14.18,0,0,0,7.7.07c2.48-.67,5.17-.55,7.76-.78a16.62,16.62,0,0,0,1.88-.16,29.2,29.2,0,0,1,17.25,1.81,18.76,18.76,0,0,1,4.56,3.27,11.13,11.13,0,0,1,2.35,2.59,6.35,6.35,0,0,1,1.21,3.19A111.87,111.87,0,0,1,492.08,56c-.23,1.9-1.25,3.7-1.95,5.54-.39,1-.91,1.95-1.27,3-1.87,5.33-5.94,9-9.77,12.78-1,1-1.81,2.2-2.79,3.23-1.86,2-3.55,4.17-5.72,5.7a29.45,29.45,0,0,1-10.09,4.46,8.71,8.71,0,0,1-1.34.22c-3.59.27-7.19.48-10.77.81-5.64.53-11.17-.29-16.7-1.16-2.3-.37-4.62-1-6.79.44-1-1.27-2.23-.46-3.18-.09-2.28.88-4.47,2-6.75,3.09l2.55,2.19,5.29-2.71c0,1,0,1.79-1.13,2.31a15.92,15.92,0,0,0-2.88,2.1l.06.06.44-1.44a16.06,16.06,0,0,0-2.81.9A20.62,20.62,0,0,1,405,99.55c-2.87-.18-5.76-.27-8.63-.49-3.68-.27-7.36-.64-11.05-1-5.54-.48-10.94.76-16.39,1.4-1.5.18-3,.11-4.56.18-2.42.11-4.85.15-7.26.38-2.69.27-5.38.62-8,1.14a23.79,23.79,0,0,0-4.59,1.53,11.09,11.09,0,0,1-6.58,1c-3.58-.81-7.18-.42-10.75-.81a9.44,9.44,0,0,1-2.14-.3,8.91,8.91,0,0,0-6.29-.08c-.25.1-.56.27-.77.2-3-1-5.2.37-7.14,2.49-.2.22-.65.2-1,.29l0,0a4.27,4.27,0,0,0-1.25-.35c-3.65.25-7.31.53-10.95.86a4.54,4.54,0,0,0-1.32.59v.55a20.4,20.4,0,0,0,3,.55c2.05.08,4.11,0,6.17,0ZM216.86,66.9l-.76,1.26,3.57-.91-.12-.64c-.94-.07-1.89-.52-2.79.37.65-1.34.53-1.56-.86-1.53-.12-1.44-.23-2.88-.35-4.29-1.81,1-1.81,1-1.08,4.31l1.5-.08-.55,1.19ZM332,56.31c-1.14,0-2.52-1.34-3.58.81,1.4-.06,2.77,1.12,3.48-.89l1,.23.25-.57-1.83-1.09-.34.46Zm-103.5,1.54c-1,.38-2.38-.65-3.25.66,2.05,1.15,2.05,1.15,3.81.09l-.65-.82a1.78,1.78,0,0,0,2.34-.74l-3.37-.46Zm35,7.44,3.4,1.26.39-.49-2-2.82c-1.63.89-1.63.89-1.72,2.14h-1.53c.48,3,1.05,3.32,3.17,1.83Zm-17.81-2.58.46-1.2h-2.46c-2.33-1.39-4.64-3-7.25-.52-.06,0-.19,0-.26,0l-5.51,3.42a4.82,4.82,0,0,0,3,1c1.93-.26,3.81-.82,5.71-1.25l-1.65,2c2.09.39,3.73.11,4.81-1.72-1.06-1.37-2.19-.21-3.25-.22-.08-.48-.15-1-.2-1.3l4.68-1.58L243.45,63a8.6,8.6,0,0,0,1.43.06,3,3,0,0,0,.9-.46l2.27,2.32c.41-2,.73-3.59,1.08-5.36h-2.45l.47-1.39c-3.61-2-4.56-2-6.42.19,1.94.89,3.7,2.34,6,1.12l1.46,1.12C247.58,61.66,247.05,62.65,245.69,62.71Zm102.62,8.11,2.58.5c-.49-.94-.74-1.82-1-1.81-1.5,0-2.35-1.07-3.44-1.76a6.24,6.24,0,0,0-1.91-.34c.29.67.42,1,.56,1.3H343l-.11.58L348.54,72Zm58,9.94c1.25,1.82,2.81,1.07,4.42.52a9.38,9.38,0,0,0-3.06-2c-.4-.14-1.07.36-1.56.65-.06,0,.19.58.29.89-1-.49-2-1.24-3.63-.46A12.18,12.18,0,0,0,405,82.1C406.36,82.64,406.58,81.87,406.27,80.76Zm2.24-14.3c3.15,1.1,4.82.71,5.5-1.58-1.79.26-3.43.47-5.06.77-.17,0-.25.57-.36.88-.81,0-1.63-.82-2.83.26a9.71,9.71,0,0,0,2.32.8C409,67.64,408.73,67,408.51,66.46ZM220.87,61.29,222,60c-.91.21-1.9.39-1.33,1.62l-.69.38c.25.29.49.81.76.83,2.24.19,3.67-1.3,5.4-2.44-1.2-1.05-2.14-1-3.17-.28A22.31,22.31,0,0,1,220.87,61.29Zm260.7-12.41-3.11-1c1,.61,1.8,2.19,3.16.93L485.7,52l-2.16.94c-1.5-1.64-4-2.84-5.59-2.57a13.4,13.4,0,0,0,5.64,2.51l.59,1.2c-5.16-1.67-9.83-4.69-15.27-5.66a3.25,3.25,0,0,0,1.17,1.11c2.51,1.35,5.15,2.5,7.53,4,2.21,1.42,4.48,1.35,7,1.28L484.1,54l3.16-.55-.74-2.77C484.67,50,483.13,49.43,481.57,48.88Zm-241.75-.36c-.54-.36-1.12-1.08-1.63-1a28.48,28.48,0,0,0-4,.89l.1.42,5.63-.34-3.51,2.29c1.35,1.31,2.51,1.48,3.82.54.58-.41,1.22-.75,1.82-1.12l-2.2,2.8,6.44-2.13a3.21,3.21,0,0,0-4.33-.58l.76-1.73Zm197.73-9.37,1-2.37-2.46-.63,1.44,3c.51,1.14,1,2.29,1.68,3.8l6.06-1.17C442.34,40.77,439.93,40,437.55,39.15ZM211.44,53.33A21.89,21.89,0,0,0,218,50.56c-2.46-1.81-3.28-1.66-5.31.75a11.09,11.09,0,0,0-1.13,2.1c-2.94,3.44-2.39,5.39.07,8a21.25,21.25,0,0,0-.66-2.7,3,3,0,0,1-.16-1.2C211,56.1,211.21,54.71,211.44,53.33Zm24.41.39c-4.18-1-4.18-1-5.8,2.15.94.58,1.74,1.05,2.88.13a8.56,8.56,0,0,1,2.5-.92c-.07.77.08,1.51,1,1.6A3,3,0,0,0,239,55.23c-1.83-.67-1.83-.67-3.62-.06.14-.5.28-1,.4-1.49l1.91-.91c-1.31-.78-2.33-1.27-4-.68ZM405,71.53H400.6c-.15-1.14-.28-2.1-.47-3.53-1.47,3.6-1,5.09,1.94,5.79,1.27.31,2.76-.23,4.14-.46.1,0,.11-.63.16-1l1.3.58.3-.52c-.84-.5-1.68-1-2.53-1.45A3.83,3.83,0,0,0,405,71.53ZM233.54,57.6c-.68.19-1.56.17-2,.6-1.87,1.92-4.4,2.68-6.59,4a6.73,6.73,0,0,0-.87.81,2.93,2.93,0,0,0,3.59.13c2.18-1.51,4.35-3,6.51-4.56l-.7-1,2.46.28C234.78,56.15,234.19,57.16,233.54,57.6Zm89.72,2.26-1.48,1.47c2,.6,3.67,0,5.29.06s3.13,1.06,5,0a3.11,3.11,0,0,0-1.25-1c-.45-.25-1.28-.53-1.27-.76.06-1.1-.27-1.87-1.4-1.82a8.12,8.12,0,0,0-2.78.69A14.54,14.54,0,0,0,323.16,60l1.68-2.43c-2.67-.84-5.06-.91-7.27,1.11a12.43,12.43,0,0,1-3.08,1.58,13.25,13.25,0,0,1,7.69-4.77c3.07,1.85,4.1,1.78,6.16-.69l-3.62-.92.08,0,.71-.85a12.26,12.26,0,0,1-2.88-.75c-2.49-1.43-7.71-.79-9.91,1.35-.09.09-.05.34-.09.67l1.47,1.11c-2.94.55-1.71,3.16-2.78,5.21,1.4-.21,2.32-.35,3.25-.51a9.52,9.52,0,0,0,2.05,1A9.72,9.72,0,0,0,323.26,59.86ZM330,64.25l-.2,1.15a10.73,10.73,0,0,1,2.54.77c2,1.19,3.47.58,4.9-1a4.61,4.61,0,0,1-.71-.46c-2.07-2-2.15-2-4.6-1-.64.27-1.34.43-2,.64L331,63c-.3-.22-.43-.4-.57-.42-2.87-.22-5.78.52-8.61-.43a3.92,3.92,0,0,0-1.08,0c-.69,0-1.39,0-2.07-.07a41.2,41.2,0,0,0-4.52-.53,8.45,8.45,0,0,0-2.54.85l.12.67a12.18,12.18,0,0,0,2.54.19c3-.38,5.81.66,8.64,1.18C325.37,64.94,327.63,65.38,330,64.25ZM430,76.6c-2-.3-3.52-2-6.26-1.74,2.29,1.37,4.05,2.46,6.33,1.67-1.11,1.28-2.6.56-4.07.59.38,1.48,1.59,1.54,2.48,2,1.55.81,3.12,1.6,4.68,2.39l-9.44-2.92c.39,1.28.47,2.33.77,2.39,2.85.6,5.68,2.64,8.68.46.36.36.66.86,1.1,1.06a14,14,0,0,0,3,1.05c.92.18,1.91,0,2.85.1.79.08,1.55.4,2.34.53s1.54.1,2.28.26c1.72.35,2.53,0,3.7-2-1.92-.55-3.81-1-5.66-1.63s-3.63-1.28-5.81-2.06l1.72-.56a12.82,12.82,0,0,0,2.31,1.29c2.13.7,4.3,1.28,6.47,1.87,1.81.5,2.31.21,3.19-1.5A27.59,27.59,0,0,1,452.48,77c1-1.44.68-2.09-1.15-2.5-3.44-.77-6.87-1.6-10.3-2.41l.08-.34,11.43,2.38c2.46-1.34,4.37-2.46,6.35-3.45,1.77-.89,3.67-1.52,5.38-2.48a13.67,13.67,0,0,1,4.44-1.83c1.05-.18,2.52-.28,3.08-2.25-1.57.31-3.13.17-4,.88-1.63,1.3-2.73.48-4.17-.18,1.25-3.62,4.7-1.44,6.74-2.74-1.7-1.69-1.7-1.69-1.75-3.08l4,.71-.4-1c1.5,0,3,1.8,4.64.23-2.73-2-4.92-2.82-6.72-2.62l1.28,2a18.24,18.24,0,0,1-2.2-1.57,1.86,1.86,0,0,1-.49-1.36c0-.23.69-.58,1.06-.58,2,0,3.93,0,5.63,1.31A13.34,13.34,0,0,0,478,57.37l1.4-1.8c-4.28-1.79-7.94-4.28-12.48-5l2,2c-1.62-.87-3.92-1.14-3.72-3.74l1.74-.19.42-1.87h3.49a7,7,0,0,0-3.44-1.42c-4.53-.48-4.91-1-3.56-5.53l4,1.24c1-.6,1.82-1.47,2.57-1.42,3.24.18,6.48.58,9.7,1a17.06,17.06,0,0,1,3,1c-1-2.41-3-3-4.49-4a6.08,6.08,0,0,0-6.4-.39,24.57,24.57,0,0,1-5.36,1.76,55.24,55.24,0,0,1-5.91.57c-.35,0-.95-.07-1,.07-.73,1.87-2.27.91-3.5,1.07-3.28.43-6.83.49-7.53,4.9a.77.77,0,0,1-.31.44c-1.32.9-1.5,2.4-1.95,3.74s-.7,2.62-1.13,3.89c-.89,2.61-2.16,5-4.64,6.44-2,1.14-3.92,2-6.37,1a13,13,0,0,0-7.73-.32c-3.2.68-4.65-.62-4.29-3.86.46-4.27,3-7.1,6.66-8.86,2.67-1.29,4.58-3.34,6.59-5.33a1.64,1.64,0,0,0,.13-1.49,12.31,12.31,0,0,0-1.76-3c-1.66-2-3.63-2.09-5.68-.53a9.32,9.32,0,0,0-.77.77c-1.55,1.42-3.21,2.74-4.64,4.27-2.42,2.57-4.7,5.26-5.3,9-.43,2.58-1.05,5.13-1.51,7.71-.21,1.15-.37,2.31,1.09,3,.39.18.54,1,.7,1.58.11.4-.11,1.11.09,1.24,1.19.75,1,2,1.34,3.1.71,2.64,3.86,5.44,6.24,5.27,3.69-.26,7.09,1.13,10.65,1.56.15,0,.28.21.8.62l-5.66-.58-.09.53,8.59,2-1.32.53a5.38,5.38,0,0,0-1.84-.21A8.22,8.22,0,0,1,430,76.6ZM310.7,67.09c-1.23,2.14-.81,4.36-.63,6.94,1.2-.52,2-.85,2.81-1.22l9.75-4.57a18.33,18.33,0,0,1-2.29,1.67c-2.69,1.41-5.44,2.72-8.15,4.09-.61.3-1.17.71-1.88,1.15.49,1.11.92,2.06,1.4,3.16l4.16-1.48-4,2.69c1.27,2,.78,4.34,1.3,6.54.48,2,.85,4.21,2.46,5.77,1.17-.28,1.9-1.86,3.37-.65l-1.39,2.49c1.47,2.53,3,3.68,6.23,4.29a35.58,35.58,0,0,0,16.62-1c1.64-.47,3.33-.75,5-1.16s3.05-.83,4.88-1.32c-1.26-1.37-2.76-2.28-3.06-3.48-.52-2.11-2-3.06-3.44-4.23A4.13,4.13,0,0,1,342,82.4h2.48c-1.46-1.55-2.79-3-4.15-4.4-.93-1-.74-1.87-.13-2.36l-3.33-4-10.52,5.17c3.71-2.59,7.83-4.42,11.44-7.09-1.57-2.52-2.35-2.07-4.4-1.16l-4.16,1.79,4.1-2.64c-2.73-1.15-5-2.09-7.61-.66a25.13,25.13,0,0,1-3.19,1.25l3.35-2.4c-1.58-.28-2.52-.51-3.47-.6-.79-.08-1.79.32-2.35,0-1.63-1-3.23-.68-4.88-.34-1.52-1.75-3.45-1.08-5.48-1C309.93,65.13,309,66.44,310.7,67.09ZM159.88,74.52l.07.08.67-2c-4.31-.22-8.4-.82-12,1.94-1.12.87-2.33,1.63-3.51,2.45a12.33,12.33,0,0,0-5.59,1.91c1.84.65,3.11.59,4.18-.73A9.14,9.14,0,0,1,145.15,77l-.68,1.86c3.49,1.31,6.37-.76,9.51-1.26l-.28,2c4.91-2.17,9.76-3.62,14-6.61a17.06,17.06,0,0,0-2-.23,3.33,3.33,0,0,0-3.6,1.17C161.67,74.38,160.63,74.33,159.88,74.52ZM224.67,79,224.6,79c.35,2.27-1.29,2.6-2.9,2.77.08,3.71-1.87,7.07-.95,10.67l11.08,2.29c-3.7.2-7.22-1.16-11.33-.73a29.51,29.51,0,0,0,.88,4c.18.5,1.46.76,1.47,1.15,0,1.3,1,1.72,1.78,2.19a43.81,43.81,0,0,0,6.41,3.4,30.91,30.91,0,0,0,11.68,1.89c2.87-.07,5.58-1.41,8.53-1.11.53,0,1.11-.38,2.29-.81l-19.36-3.4-.13.48,2,.88c-1.44-.43-3.53.8-4.37-1.68a11.74,11.74,0,0,1,5.74,0c3,.62,6,1.25,9,1.74a6.3,6.3,0,0,0,2.24-.51l0,.06,7.74,2.09c.78-.67,2.39-.73,3.27-2.34-4.32-1.58-8.88-.53-13-2.19,1,0,1.94.19,2.91.26s2,0,2.92,0l0-.23-5.6-1.48a132.63,132.63,0,0,1,13.51,2.44,3.23,3.23,0,0,0,3-.37c.31-.25.85-.21,1.28-.31.22,1-.32,2.77,2.17,2l-2.25-2a4.89,4.89,0,0,0-.82-1c-2.77-2-5.48-4.12-8.37-5.94-2.11-1.34-3.43-4-6.79-3.9,1.52-1.27.79-2.51.69-3.82a16.62,16.62,0,0,1,.51-5.29,18.13,18.13,0,0,1,1.93-3.71c-3-1.82-2.49-5.07-3-7.89l-2.11-.56c.47-.86.84-1.52,1.21-2.21-3.24-1.18-3.6-1.09-5.38,1.18l1.69,1.58c-2.77-.46-4.9-.72-7-1.2a4.55,4.55,0,0,0-3.84.58c0-.33.22-.82.07-1a4.51,4.51,0,0,0-7.18.93,3,3,0,0,0,3.14.88c1.31-.24,2.59-.65,3.88-1l-1.95,1.53,2,1.88a18.43,18.43,0,0,1-3.59,0,23.17,23.17,0,0,0-3.65.74V70.51c-2.47-.76-2.92-.6-3.74,1.27-1.89-.4-1.34-2.31-2.1-3.41.95.15,1.93.65,3.26-.54l-3.25.54-4.63,1a12.31,12.31,0,0,0,5.24,6.23c0,.23,0,.48-.06.73-.08,2.37.39,2.85,2.75,2.79A9.52,9.52,0,0,0,224.67,79ZM370.91,50.15c-.31-.15-.5-.31-.63-.28-2.59.73-5.21,1.41-7.76,2.26a2.47,2.47,0,0,0-1.74,2.71,21.26,21.26,0,0,1-.49,5.34c-.79,3.33-1.82,6.6-2.77,9.89-.36,1.25-.76,2.49-1.19,3.91,11.46,2.48,22.84,3.94,33.59,8-5.42-1.07-10.74-2.58-16.14-3.66s-10.93-2.34-17.14-3l2.56,2.38-2.58-.2c-.54,2,1.27,2.38,1.93,3.5-1.27,1.2-.58,2.24.22,3.24s1.8,2.24,2.77,3.31a8.49,8.49,0,0,0,2,1.76,9,9,0,0,0,2.29.55l.5-1.71c1.08.25,2.05.43,3,.7,1.56.45,3.09,1,4.65,1.43a2.2,2.2,0,0,0,2.79-.83c-2.13-.64-4.2-1.2-6.22-1.89s-4.06-.86-5.73-2.2c4.12,1,8.16,2.13,12.24,3.16a5.46,5.46,0,0,0,3.1,0c1-.37,1.77-1.36,3.05-2.42-7.29-1.77-14.09-4-20.89-6.39a2.14,2.14,0,0,1,1.53-.15c4.13,1.29,8.24,2.67,12.39,3.91a80.83,80.83,0,0,0,8.38,2.1,4.14,4.14,0,0,0,3.24-.69,5.84,5.84,0,0,1,2.9-1.43A9.92,9.92,0,0,0,394.19,81c.81-.77.12-1.65-.16-2.5A2.62,2.62,0,0,1,395.3,75c.5-.32,1-.61,1.56-.93-.78-2-3.59-2.56-3.44-5.34l3.22,1.68a2.65,2.65,0,0,0,.05-3,1.32,1.32,0,0,1,.95-2.07A3.3,3.3,0,0,0,400,63a5.82,5.82,0,0,1,4.46-3.91c3.31-.83,6.63-1.58,10.07-2.39l.24-2-4.2,1.63-.25-.42,1.58-1.65h-3.73l-.16-.59,3.79-1.68a16.46,16.46,0,0,0-3.82.28c-1.2.15-2.45,1.34-4-.28,1.5-.52,2.76-.92,4-1.38s2.46-1,3.69-1.52l-.21-.71c-4.91,1.49-9.76,3.64-15.23,1.81a9.76,9.76,0,0,1,1-1.5,11.64,11.64,0,0,1,1.34-1.07,5.58,5.58,0,0,0-2.45.24c-1.14.26-2.39.9-3.41.65-2.65-.67-4.94.47-7.26,1.14a40.35,40.35,0,0,1-9.86,1.64c-1.41,0-2.81.38-4.22.56a10.78,10.78,0,0,1-1.14,0Zm-78.19,26c3-.73,4.18-3.84,6.72-5.43V65.42L288.18,62a3.53,3.53,0,0,1,2.53-.09c3.64,1.19,3.63,1.21,5.29-2.26-1.66-1.66-2.54.75-4,.83-.11-.72-.21-1.37-.36-2.32l-5.22,1.61.92-3.35c-.66.62-1.21,1.06-1.69,1.57s-1,1.18-1.6,1.93l2.67,1.35c-3.23.23-3.92.1-5.81-.78a10.81,10.81,0,0,0-1.85-.48c-.3.7-.51,1.28-.8,1.83q-1.8,3.46-3.63,6.92c-.87,1.65-1.78,3.29-2.66,4.94-.51,1-.93,2-1.5,2.85a19.65,19.65,0,0,1-9.67,8.27c-.26.1-.45.39-.87.78l4.16,1.26c-2.35.2-4.31-1.06-6.36.18l18.32,3.33L275.88,92c-.36-.06-.72-.11-1.07-.18-5.22-1-10.44-2.09-15.66-3.17a8.3,8.3,0,0,1-2.31-.73c-1.45-.8-2.28-.16-3.25,1.15,3,2.26,5.75,4.62,8.79,6.52s6.69,3.49,10,5.32a14.05,14.05,0,0,0,5.55,2c1.62.15,3.23.46,4.85.49,2.47,0,5.09.72,7.43-1.45-2.28-.48-4.36-1-6.46-1.35-2.92-.53-5.79-1.5-8.84-.86-1.36.3-1.73-.68-2.23-1.89h3.76c-.6-.36-1.69-.44-1.71-.65-.23-2.07-1.92-1.54-3.07-1.73-1.68-.28-3.41-.27-5.11-.46-1-.12-2.17,0-2.86-1.37a7.69,7.69,0,0,1,4.57-.11c5.07.87,10.13,1.83,15.2,2.72a8.68,8.68,0,0,0,6.36-1l-9.44-2.09a19.48,19.48,0,0,1,9,.8c1.72.67,3,.2,4.23-1.52l-11-1.61,0-.31,11.4.91c-.28-1.81-.28-3.43-1.37-5-1.2-1.67-1.07-3.75-.8-5.72C292.06,79.26,292.41,77.77,292.72,76.18Zm-238.43,3c3.29-.4,5.92-.59,8.2,1.12.12.09.35.06.52.06l4.29,0c8.1-.15,16.21-.28,24.31-.45,1.43,0,2.86-.32,4.29-.33,2.32,0,4.64.17,7,.13,5.33-.08,10.65-.23,16-.37s10.43-.3,15.65-.47a12.61,12.61,0,0,0,3.44-.32,46.05,46.05,0,0,0,6.77-2.68c1.77-.91,3.86-1.47,5.34-3.53-1.85-.16-3.3-.48-4.79.6a45.14,45.14,0,0,1-4.66,2.64c.42-1.37,2.18-1.4,2.19-3a7.58,7.58,0,0,0-1.14-.16l-13.7.44a34.14,34.14,0,0,1-6.22.13c-9.33-1.45-18.72-.38-28.07-.89a7.34,7.34,0,0,0-.81,0c-4,.14-7.94.39-11.9.38-5.31,0-10.62-.32-15.92-.33-2.88,0-5.75.36-8.63.55-1.51.1-3,.29-4.55.26s-3.12-.25-3.8,1.94c-.3,1-1.63,1.59-2.48,2.39-.35.33-.65.7-1,1.1,3.24,1.32,4.44,1,5.94-1.38.73-1.18,1.73-1.38,3.3-.84C55.19,76.62,55.18,77.55,54.29,79.18ZM282.64,47a10.59,10.59,0,0,0-1.37-.55q-6-1.5-12.09-3a12.46,12.46,0,0,0-8.7.74A24.6,24.6,0,0,1,250.66,47a10.24,10.24,0,0,0-1.43.26l-.12.56c4.11.81,6.84,4.3,10.84,5.37,1.86-5.12,1.86-5.12,7.2-4.8a4.36,4.36,0,0,1,.81,0C273,49.51,277.7,47.81,282.64,47Zm-55.8-4.19c-3.29-.48-6.2-1.22-9.11-1.25-4.4,0-8.14,1.59-10.24,5.79-.92,1.85-1.45,3.78-.13,6L208.58,52c2.44-2.72,5-5.25,8.87-5.74a10.3,10.3,0,0,0,2-.84C221.7,44.58,224,43.8,226.84,42.8Zm85.41-1.17-.08-.49c-3.83-.29-7.65-.59-11.48-.85a7,7,0,0,0-1.88.11c-2.52.48-4.68,1.49-6,4.09,4.3.2,8.42.31,11.82,2.27Zm119.12,7.6a32.5,32.5,0,0,0-3.4,2.08,12.55,12.55,0,0,0-2.85,2.83c-1.52,2.34-.61,3.92,2.18,4.13,3.22.24,6.44-.19,9.67.68,2.07.57,4.37-1.26,4.78-3.2a22.23,22.23,0,0,0-9.58,1.18c-1.08.4-2.13,1-3.33-.17l2.55-2C429,52.41,429,51.38,431.37,49.23Zm54.16-12.72c.25,1.39.39,2.41.62,3.42a64.68,64.68,0,0,0,1.57,6.53c.92,2.73,2,5.39,2.09,8.33,0,1.17.19,2.34.29,3.51a2.79,2.79,0,0,0,1.06-1.94c.23-3.69.3-7.39.61-11.08a7.27,7.27,0,0,0-2.36-5.82A32.29,32.29,0,0,0,485.53,36.51Zm-301,33.88.09.61c1.42,0,2.86-.11,4.28,0,4.58.44,9.14,1,13.72,1.44a29.52,29.52,0,0,0,7.19-.33c-1-2.61-1.1-2.84-3-2.86-4.52,0-9-.11-13.55.08C190.38,69.47,187.47,70,184.56,70.39Zm300.8-22.17a15.8,15.8,0,0,1-1.51-3.1c-.52-2.48-.69-2.89-3.1-3.32-3-.54-6-.94-9.05-1.34a6.93,6.93,0,0,0-1.66.21l-.17.56a38.66,38.66,0,0,0,5,3.32c2.83,1.33,5.81,2.34,8.75,3.43A7.66,7.66,0,0,0,485.36,48.22ZM342.52,83.69c1.06,1.24,1.7,2.07,2.42,2.82,2.34,2.42,5.46,3.36,8.5,4.49,1.82.68,3.25.48,4.51-1C355.61,88,346.05,83.92,342.52,83.69Zm-17.1-39.28c-3.89.92-8.13.69-10.55,5.24l5.86-.49c1.89-.17,3.77-.3,5.64-.52s3.66.48,5.33-.76c-1.83-2.12-4.4-.91-6.43-1.74C325.32,45.57,325.35,45.15,325.42,44.41Zm73.95,46.07.07.36a7.83,7.83,0,0,0,1.26.19c3.32,0,6.66-.23,9.94.12,4.67.5,8.35-1.55,12-3.88a3.15,3.15,0,0,0,.62-.79c-1.93-1.23-4.17-1-5.07.74A2.93,2.93,0,0,1,415.48,89a39,39,0,0,0-6.94.87,15.08,15.08,0,0,1-5.43.16,11.14,11.14,0,0,0-2.15-.1A6.56,6.56,0,0,0,399.37,90.48ZM229.61,107.66c-.84-2-3.56-2.7-7.05-1.4a23.39,23.39,0,0,0,4,2c2.77.76,5.63,1.21,8.43,1.88,4.06,1,8,.88,11.71-1.46-.31-.12-.5-.28-.63-.24-4.3,1.49-8.54.09-12.81-.27C232.18,108.07,231.08,107.87,229.61,107.66ZM393.73,95l0,.43a3.11,3.11,0,0,0,.75.28c5.39.44,10.79.9,16.18,1.28a9.47,9.47,0,0,0,4.94-.91c-1.84-1.75-2.83-2-4.61-1.45a4.54,4.54,0,0,1-2.07.51c-4.46-.94-9,.2-13.42-.3A8.49,8.49,0,0,0,393.73,95Zm-30.7-49c2.18.83,2.19.87,4.18.15a32.6,32.6,0,0,1,9.07-2.3,15.37,15.37,0,0,0,2.69-.68c-1.83-.83-3.52-1.7-5.44-1.32s-3.86,1.29-5.73,1.15C365.19,42.71,364.16,44.11,363,45.91Zm90.33,34.22,4.56-.32a5.52,5.52,0,0,1-.2-1.54c.19-1.36,1-1.92,2.42-2,3.12-.14,6.25-.41,9.37-.63a31.93,31.93,0,0,0-4.27-.64c-1.88-.31-4.26.46-5.06-2.23-2.47.33-4.5,1.4-5,3.65C454.84,77.79,454,78.65,453.36,80.13ZM254,84.43c1.84-.89,4.65,1.19,5.83-2-1.16-.9-2.3-1.91-3.57-2.74a2.16,2.16,0,0,0-3.36.72,10.1,10.1,0,0,0-1.19,3.8c-.19,2.21.44,2.5,2.75,1.59ZM474.23,34c-5.41.31-10.87,0-16.3,1.3C460.55,38.23,466.9,37.77,474.23,34ZM342.38,77.89l-.44.68a44.33,44.33,0,0,0,16.22,9.23,9.22,9.22,0,0,0-4.22-4.25c-1.75-.93-3.55-1.76-5.33-2.63C346.54,79.9,344.46,78.9,342.38,77.89ZM332.33,52.6c2.59,2.91,6,4.43,9.35,6.15,1,.51,1.41-.3,1.61-1.32l-1.9-1.15c-.08-.77,0-1.48-.2-1.62-2.16-1.3-4.36-2.57-6.62-3.7-.58-.29-1.44,0-2.17,0l-.09.52,5.12,2.4-.18.44ZM354.17,82c.68-1.77-.21-2.59-1.4-3.2-3.52-1.77-7-3.53-10.6-5.25a6.54,6.54,0,0,0-1.63-.32C344.64,76.93,348.93,80.17,354.17,82ZM414.12,62.9c-.06-2.55-.95-3.51-2.88-3.14a54.86,54.86,0,0,0-6.24,1.7,11.37,11.37,0,0,0-2.15,1.27c3,2.43,5.78.74,8.49.45l.35-1.7ZM379.43,48.09l.13.68c5.29-1.61,10.6-3.19,15.88-4.85a10.15,10.15,0,0,0,2.17-1.3l-.28-.59C391.18,43.51,384.92,44.61,379.43,48.09Zm10.71-8.4c-8-2.7-17.09-2.88-20.41-.44a9.42,9.42,0,0,0,1.9.36c3.23,0,6.46-.27,9.68-.2a34.28,34.28,0,0,1,5.58.81C388,40.43,389,40.69,390.14,39.69ZM348.06,53.08l5-1.7-2.24,2c1.61.78,3,1.1,4.7.2-.12-1.32-.25-2.63-.38-4l-5.24.91c-.54-1.71-2-2.08-4-2ZM219.51,54.23c1.7-.29,3.26-.41,4-2.29-.64-.16-1.23-.53-1.59-.37q-3.57,1.56-7,3.32c-1,.5-.92,1.38-.4,2.58l5.72-.52ZM69.56,83v.23c4.33.17,8.66.24,13,.55a55.08,55.08,0,0,0,13-.4,8.41,8.41,0,0,0,1.28-.44l-.09-.51ZM280.19,99.08,292,101.35c.46-.95.8-1.64,1.23-2.51C288.91,98.29,284.9,97.12,280.19,99.08Zm37.89-56.32c-5.45-.65-10.09,1.59-11.9,5.49.89.81,1.63.31,2.35-.28A30.81,30.81,0,0,1,311,45.89a4.88,4.88,0,0,1,2.39-1C315.19,44.87,316.46,44,318.08,42.76Zm166.06,16.4-1.95,2.66h3.08c2.56-4.14,2.66-4.7,1.23-6.33C486,57.35,485,58,483,57.61c-1.13-.24-2-.35-2.63,1ZM265.47,78.93c-1.45-.55-2.48-1-3.56-1.33A3.43,3.43,0,0,0,258.67,79c-.41,1.1.51,1.62,1.09,2.24a12.93,12.93,0,0,0,1.55,1.2Zm-72.58-4.57c-3.45-.48-9.87,2.27-11.6,5C185.34,78,189.66,77.58,192.89,74.36Zm64.66-18.87c-.48,3-.94,5.85-1.44,8.93l2.51-.9c.29-2.05.55-4.15.88-6.24C259.69,56.11,259.19,55.61,257.55,55.49Zm-23.84-9.83c-4.05-1.53-8.12-1.87-12.16,0C225.6,45.52,229.63,46.68,233.71,45.66ZM341.36,60.33c-4.15-2.79-5.48-3.39-7.38-3.13l4,3.32-1.33.92,4,2.19Zm86.19,25.4,9.7,1.22C434.49,83.42,430.26,82.81,427.55,85.73Zm-138-37.11c3.48.42,6.35.78,9.22,1.1a8.13,8.13,0,0,0,1.56,0c.11,0,.2-.27.29-.42C297.44,46.72,294.94,46.49,289.56,48.62Zm-34.7,21.94.85-.43c-2.58-2.44-1.69-5.34-1.41-8.16.14-1.43.33-2.87.5-4.3l-.46-.17c-.72.87-1.43,1.74-2.16,2.64,2,1.24,1.94,1.2.66,3-.49.69-1.18,1.79-.94,2.35A45.14,45.14,0,0,0,254.86,70.56Zm-38,33.1c-1.8-5.72-1.8-5.72-3.78-6.36C212.42,101,213.39,102.74,216.88,103.66Zm3.09.15c.94-.57,1.94-1.27.9-2.27a12.22,12.22,0,0,1-2.94-5.61c-1.19.62-1.62,1.32-1.12,2.64A12.2,12.2,0,0,0,220,103.81Zm119.8-34.35,9.75,5.78.5-.43c-.19-.48-.25-1.19-.61-1.42A28.06,28.06,0,0,0,339.77,69.46Zm-73.59,8.29c2.09-1.76,3.64-3.4,3.64-6.16l-5.71,3.8ZM302,61.2c-1.24-.34-1.67.36-2.15,1.19-.15.24-.88.14-1.39.2.1-1,.17-1.71.27-2.64-1.83.45-1.83,2-2.73,3,1.29,1.38,2.9,1.38,4.33,1.71ZM409.17,39.55c-2.33-1.43-4.5-2.65-7.19-1.65-.19.07-.3.37-.62.81l2.37-.28.44,1.54C405.78,40.7,407.38,41.12,409.17,39.55Zm-124,16.38c-3.37-1-4.74-.26-5.68,2.78,1.27,1.74,2.27-.52,3.54-.36C283.6,58.42,284.4,56.84,285.16,55.93Zm158.6-4.21H432.92c.8.55,1,.81,1.21.82,3.12.19,6.24.34,9.45.51ZM286.09,50.36c2.2,1.31,4.13.71,5.81,1.62s1.88.5,2.6-1.75C291.86,50.39,289.26,49.09,286.09,50.36ZM454.46,38c-2.37-1.36-6.69-1-9.22.61C450.07,39.2,451.86,39.1,454.46,38ZM361.3,51.27c2.41-.13,3.83-1.27,5.29-2.93l-4.5-1.11ZM268.52,65.34,271.87,63l-2.55-2-3.23,1.54Zm-71.93,9.37c-5.19,1.66-8.33,3.25-9.18,4.5l9.35-2.94Zm159.29-30c-3.33-3.14-5.33-3-6.47.31ZM338.46,98.42c2.69.7,10.65-1.2,11.84-2.64ZM46.66,64c-2.87-.75-3.66-.55-5.13,1.45H47c.76,0,1.47-.12,1.59-1.07S48,63.22,47.3,63c-.14-.06-.33,0-.5,0C46.75,63.32,46.71,63.65,46.66,64ZM162.78,77.6c3.08-1.11,6.21-2.08,8.68-4.36A14.62,14.62,0,0,0,162.78,77.6Zm196,19.94c2.6.46,4.65.26,6.51-1.44C362.27,95,360.65,95.3,358.77,97.54Zm93.12-10c1.85,1.09,3.82.18,5.69.35,2.1.19,3.86.08,5.53-1.27ZM316.43,99l.36-.45L315,95.34l-3.81,2C312.81,99.19,315,97.74,316.43,99ZM247.67,56.72l.78-.39c-.73-1.36,1.1-2.95-.77-4.34-.89.81-1.73,1.57-2.79,2.55ZM357.39,92.38a7.22,7.22,0,0,0,5.73,1.19C361.75,90.74,360.39,90.43,357.39,92.38ZM308.31,69.27c-1.82.89-2.43,1.31-2.21,1.92.5,1.4.56,3.12,2.6,4.26-.1-1.48.23-3-.3-3.42C306.84,70.86,310.1,70.28,308.31,69.27Zm-9.45,5.31-2.91,3,3.33,1C300.64,76.3,300.64,76.3,298.86,74.58ZM169.52,76.67c2.76-.34,5.36-1,7.26-3.17A12.31,12.31,0,0,0,169.52,76.67ZM392.07,90.85c2.07.63,4.09,1.12,6.34.06L396.94,89Zm-88.71,10.23c3.83.46,5.33,0,7.31-2-.84-.15-1.58-.54-2.11-.34C307,99.28,305.47,100.09,303.36,101.08ZM467.83,72.34V73c2.85.29,5.78,1.06,8.73-1.64ZM181,74.09c-4,.6-7.82,2.92-9.16,5.43l4.8-2.86Zm129.17,29.1a13.07,13.07,0,0,0-8.46,2C304.82,105,307.62,104.61,310.16,103.19ZM481.61,64.12c-4.82-.72-5.28-.63-6.42,1.28C478.4,65.67,480,65.35,481.61,64.12ZM410.14,41.51l-.17-.72-7.65,1.94C405.81,44.38,407.9,42.61,410.14,41.51Zm-191.55,6.7a6.69,6.69,0,0,0,5.9-.05C222.44,45.8,220.51,47.44,218.59,48.21Zm226.73-1-.4-.57a16,16,0,0,0-6.7,1.15,35.83,35.83,0,0,0,5.61.53C444.33,48.31,444.82,47.59,445.32,47.2ZM229.23,52.66V52.1c-.47-.2-1.12-.7-1.38-.54-1.27.75-2.44,1.68-3.75,2.63C226.89,56.09,227.53,53,229.23,52.66Zm44.19,12.88-.49-.48-4.28,3,2.44,1.15Zm206.1,9.84,5-5.16C479.1,73,479.1,73,479.52,75.38ZM407,47.3c-2.71-.38-5.09.69-7.55,1.45C402.19,49.44,404.52,48.07,407,47.3ZM311.31,91.2c-1.74-2.59-2.81-2.53-5,.42Zm33.74-34.94.53-.75a26.17,26.17,0,0,0-6.67-4l-.31.49ZM294.57,79.34c-.2,1.15-.37,2.12-.59,3.33,1.43-.44,3.1.46,3.39-1.72-.45-.32-.86-.65-1.3-.91S295.29,79.67,294.57,79.34Zm111-3.42c1.42,1.7,2.3,1.77,4.62.37C408.83,74.91,408,74.84,405.54,75.92ZM109.27,82.34l.11.59,9-.65,0-.58ZM308,50l1.72,2,2.36-3.8-.4-.41ZM478.8,34.79c1.46,1.23,2.51,3.24,5.14,2.82C482.87,35.14,480.73,35.16,478.8,34.79ZM357.47,95.23C355.33,93,354.8,93,353,95.05,354.38,95.82,355.75,96.28,357.47,95.23ZM133.6,82.12v-.26H121.54v.26Zm264.67-.86c2.12,1.9,2.68,2,5.07,1.06C401.87,81.19,400.5,80.14,398.27,81.26ZM224.34,64.67c-2.2-1.12-2.46-1.05-4.21,1.09C222,66.64,222.2,66.58,224.34,64.67ZM371.61,97v-.62c-1.53-.15-3.06-.35-4.6-.39-.29,0-.6.66-.9,1l.34.54ZM348.8,90.38c1.41,3.25,2.53,3.72,4.53,2.12Zm9.26-37c1.34-2,1.34-4.69,0-6ZM416,48.73,412.65,50l2.73.77L413.61,53C415.29,52.9,415.29,52.9,416,48.73Zm-204.6,26.6-.23-.57-7,2.73.21.51C206.66,77,209.27,76.78,211.37,75.33Zm203.06,5.4c-1.4-2.08-1.73-2.19-4.14-1.37C411.66,80.62,412,80.73,414.43,80.73Zm-4.28-11c2.83,2.7,2.83,2.7,4.28,1.36C412.38,69.5,412.38,69.5,410.15,69.72ZM377.4,95.28l-.14.85,6.19.82.08-.5Zm-82.15,6c1.86-.66,3.43-.45,4.63-2C297.9,99,296.45,99.07,295.25,101.33ZM396.47,44.58c1.77,1.61,2.89,1.49,5.27-.25Zm31.19,39-.28-.86-3.33-.18c.68,1,1.09,2.1,1.49,2.11C426.25,84.65,427,84,427.66,83.58ZM353.61,99.4c-2.34-1-3.46-.89-4.92,0ZM295.89,56.21l-1.42,2.15,2.37.64L298,56.91Zm7.18,22.09c-.9.8-1.3,1.54-.41,2.18s1.87,1.15,2.64-.4Zm29-37.41.15.6c1.51.41,3,.84,4.75-1.15ZM466.26,79.94c-3.28-1-4.22-1-5.74,0ZM263.07,52.74c1.66.34,1.8-2.06,3.45-1.61a3,3,0,0,0-2.11-.75C263.3,50.64,263.13,51.65,263.07,52.74Zm6.69.28c1.72.75,2.67.3,3.33-.79.14-.23-.22-.77-.39-1.3Zm83.77,24.82c.72-1.65,0-2.4-1.12-2.8-.31-.11-.89.51-1.68,1Zm-57.34,26.08,5.78-1.07A6.45,6.45,0,0,0,296.19,103.92Zm46.7-61.75c2.11,1.13,3,1.07,4.63-.28Zm-5.31,24.2c2.28,1.71,2.28,1.71,4.07,1.13C340.46,66.52,339.6,65.22,337.58,66.37ZM306.9,52.48l-.51-.13a5.84,5.84,0,0,1-1.1,1.12,5.4,5.4,0,0,1-1.48.42l0,.51,2.63.68ZM201,76.84l.14.38,5.33-1.9-.23-.62Zm151.2-12.07c2.33,1.18,2.48,1.09,3.16-1.48C353.92,62.85,353.25,63.89,352.17,64.77ZM216.31,89.91l.47.13c.35-1.78.7-3.55,1-5.33l-.67-.11ZM295.51,95c1.63.9,2.74.73,3.79-.59C297.76,93.07,296.86,94.41,295.51,95Zm120.35-54.2,1.55,2.94,1.76-2.21ZM405.37,77.51c-.93-1.14-1.67-1.79-3.1-1.22C403.34,77.67,403.34,77.67,405.37,77.51ZM374.86,47.2l-.13-.63c-1.47-.12-2.87,0-3.73,1.75Zm-76.17,4.7-.23-.83c-.63,0-1.43-.24-1.82.06s-.36,1.13-.51,1.73l.52.35ZM252.43,73.76c.86-1.94.83-2-1.53-3.67ZM342.6,46.81l.14-.58c-1.44-1.14-1.44-1.14-3.22,0ZM299.83,97.74c1.53,2,1.69,2,2.81-.13C301.72,97.43,300.93,96.53,299.83,97.74Zm6.22-9-.32-.56-2.68,1.52C304.72,90.67,305.32,89.57,306.05,88.72Zm40.7-23.08c2.21,1.52,2.25,1.51,3.3-1Zm48.87,31.3,0,.44,5.22.54,0-.32ZM175.81,69.88l-.11.26h5.94v-.26ZM37.43,72.76c-.28,1.11-.06,1.9,1.07,2,.26,0,.85-.69.83-1C39.25,72.42,38.34,72.59,37.43,72.76Zm305.1,0c-2.12-2.08-2.12-2.08-3.89-1.65Zm63.05-4.68c-1.3-1.65-1.31-1.65-3.32-.44A3.34,3.34,0,0,0,405.58,68.06ZM162.83,78.92c2.82.67,2.82.67,2.6-1.09ZM406,44.94l.15.47L410.52,44l-.17-.53ZM183,75.38l.35.46,3.31-1.51C184.56,73.47,183.88,74.63,183,75.38Zm104-21.81v-.76c-1-.33-2-1-3.35.59Zm59.45,8.33c1.76.22,2.55-.27,3.21-1.55C348.27,60,347.52,60.59,346.52,61.9Zm51.69,15.85h3.54C399.87,76.17,399.87,76.17,398.21,77.75ZM224.5,104.44c-2.31-2-2.42-2-2.94,0Zm40.28-48.95.24.77,2.94-1C266.25,53.7,265.53,54.67,264.78,55.49ZM398.52,83.34c-1.68-2-1.75-2-2.75-.13ZM376.89,97.6c-1.9-.83-1.9-.83-2.92.29Zm-84.39-.26.05.68,3.29-.19C294.35,96.42,293.43,96.54,292.5,97.34ZM466.08,82.41c.8,1.58.84,1.58,2.75-.19ZM335.82,60.71l.24-.75c-.63-1.41-1.77-.77-2.91-.24Zm14.56,3.45c1.55.18,2.22-.52,3-1.9A2.76,2.76,0,0,0,350.38,64.16ZM36.87,69.26c2.43-1.12,2.43-1.12,1.5-2.91Zm268.89,9.52c-.09-1.49-1.07-2-2.31-2.14C303.73,77.86,304.72,78.35,305.76,78.78ZM41.88,74.61,42,75l4.53-.58-.09-.52ZM348.1,45.92l-.07.6,4,.49.07-.56ZM455.89,83.28l.13.86,2.7-.4,0-.46Zm-64.25,2.84,0,.48h3.09l0-.7Zm21.17-12-.28.57c1.26,1.32,1.26,1.32,2.81.63ZM303.87,95.7l.37.6c1.25.19,1.86-.47,1.78-2ZM408.2,70.44c1,2.12,1,2.12,2.74,1.82Zm-369,1.22,2.67-.29C40.27,70.27,40.27,70.27,39.23,71.66ZM390,94.8l0-.7-3,.17,0,.65Zm-77.25-1c-1.38-.18-1.38-.18-2.13,1.31ZM477.8,61.21l.14.69c1-.06,2.08.27,2.92-1Zm-321,18c2.09-.09,2.09-.09,3.3-1.67ZM344.44,60.64c1.57.27,2.16-.32,3-1.32C346,59,345.33,59.46,344.44,60.64ZM231.32,51.26l0-.79c-.76-.52-1.52-.86-2.56.59Zm78.43,27a1.79,1.79,0,0,0-1.16-2C308.14,78.27,308.14,78.27,309.75,78.26Zm-9.28-20.65-.55-.37c-.42.62-.85,1.23-1.44,2.08C300.1,59.33,300.34,58.52,300.47,57.61Zm-84.29,1.48,0-.62L213.77,58C214.55,59.79,215.38,59.35,216.18,59.09Zm197.45,10,2.75,1.14C416.07,68.61,415.4,68.32,413.63,69.12Zm31.83,21.39v.19h3.32v-.19ZM357.75,56.76c-.25.54-.55.88-.48,1.1s.49.41.75.6c.16-.27.44-.54.43-.8S358.11,57.19,357.75,56.76ZM355.6,69.05c-.51-1-.74-1.77-1.68-1.12-.28.2-.32.74-.56,1.36ZM471.74,77.9l.07.69c.89-.13,1.89.46,3.12-1Zm-20.63,5.65.14.69,2.55-.66A1.92,1.92,0,0,0,451.11,83.55ZM341.88,62.81c2,.31,2,.31,1.95-1.6Zm73.3-17-2.35.78C414.43,46.93,414.43,46.93,415.18,45.77ZM212.82,70.33c.23,1.94.23,1.94,1.64,1.93Zm-42.51,8.41-.27-.58c-.7.38-1.72.07-2.39,1.84Zm301-18.2c.6,1.1,1.28,2,3,1.28Zm-87-11.45-.13-.56-2.89.78.09.4ZM229.08,47.44c-.81-.22-1.73-1-2.59.74ZM308.42,66.1,307,68.29C308.83,68.27,308.8,67.5,308.42,66.1ZM372.7,92.71l.07.75,1.86-.23-.06-.52ZM243.23,53.64l.42.68L245.36,53l-.3-.44Zm9.69-1.35-.43.32,1.33,1.86C254.7,52.9,253.37,52.86,252.92,52.29Zm4.16,25.27,1.32-1.49C256.57,75.33,256.31,76,257.08,77.56Zm46-21.79,0,.64a15.09,15.09,0,0,0,1.64.13c.1,0,.2-.39.38-.77Zm-64.15,1c1.3-.06,1.3-.06,2.13-1.46Zm107,.29c.51.28.88.62,1,.54.32-.16.53-.55.78-.84-.24-.19-.53-.57-.71-.53C346.72,56.37,346.45,56.7,346,57.1Zm97.11,32.45,0-.5h-1.92v.39Zm-53.12.38.23.54,2-.65-.14-.46Zm-3.38-1.72.06.59,1.7-.41-.12-.51ZM261,74.54l-.29-.82-1.68,1,.23.51ZM398.08,86.4l.06-.8h-1.9l0,.6ZM382.45,44.32l-.05-.52-2.26.65.07.25ZM300,51.75l-1.8,1.61C299.81,53.67,300.34,53.26,300,51.75ZM411.9,45.91l-.17-.58-2.1.68.11.43Zm-131,5.29v-.69l-1.45-.16,0,.92Zm29.47,32a5.64,5.64,0,0,0,.6-1.45c0-.17-.45-.36-.7-.54-.18.28-.48.55-.52.85S310,82.55,310.36,83.16ZM104,82.63l0-.27h-2.13c-.08,0-.16.07-.25.11l.18.15ZM342.94,66.84c-.42-1.43-.88-1.76-2.24-1.24Zm-118.8-.25.33.59,2-1.18-.29-.5ZM425.32,88.06v.42a1.79,1.79,0,0,0,.66.25,4.11,4.11,0,0,0,.89-.26l-.08-.55ZM214.69,86.45l-.32-.13a3.47,3.47,0,0,0-.46.78,3.68,3.68,0,0,0,0,.94l.35,0Zm185.05-1.38,0,.56h1.35l0-.38Zm.06-45.72-.13-.35a5.23,5.23,0,0,0-.82.26,7.25,7.25,0,0,0-.75.62l.24.31Zm69,45.15-.21-.35L467,85l.25.42Zm-162.71.27.23.47,1.48-.67-.25-.53Zm-14-31.3L291.7,53l-1,.73.48.54Zm6.72,1.59-.12-.44-1.3.33a3.76,3.76,0,0,0,.26.57A10.36,10.36,0,0,0,298.81,55.06Zm3,.52-.48-.43-.82,1.2.37.29Zm-9.33,2.31.15-.76-1.65-.3-.14.58ZM206.82,60h.37V58.32h-.37Zm64.28.12.18.41,1.69-.69-.2-.49ZM416.16,74.18l-.49.59,1.32.78.33-.5ZM352.38,68l-.43-.47a12.42,12.42,0,0,0-1.05.87,5.43,5.43,0,0,0,.42.56Zm-.58-1.54-.2-.59-1.13.62.19.4ZM353,72.92c.37.21.61.45.74.4a.77.77,0,0,0,.42-.55c0-.17-.22-.37-.35-.56ZM261.47,62l.41.51,1-1-.32-.36Zm5.15-2.3-.21-.35-1.33.77.21.36ZM51.78,77.48l.15.41,1.1-.37-.15-.45ZM221.1,57.33l.41.56,1.06-.84-.26-.39ZM178.39,79l.33.46.87-.8-.24-.27Zm123.92,2.2c-.51.54-.83.79-.8.87.12.27.34.62.59.67a.82.82,0,0,0,.64-.51C302.76,81.91,302.5,81.59,302.31,81.18Zm172.9-33c-.14.14-.24.2-.25.25a.28.28,0,0,0,.14.21c.41.17.84.32,1.26.48l.14-.34Zm-134.39.93v-.36h-1.69V49Zm-7.13-2-.1.56h1.3v-.43ZM216.48,82.21l-.4-.09v1.59h.24C216.37,83.21,216.42,82.71,216.48,82.21Zm105,18.47.31-.48-1.56-.52-.13.33ZM367.71,93l.22-.57-1.39-.34-.12.39Z"/><path class="cls-1" d="M418.79,97.85a6.81,6.81,0,0,1-6.81,5.33,56.3,56.3,0,0,1-8.23-1.28,12.36,12.36,0,0,1-4.36-1.82c2.1.47,4.19,1,6.29,1.4,1.59.33,3.18.69,4.79.89A6.9,6.9,0,0,0,417,99.86c.57-.69,1.24-1.3,1.86-2Z"/><path class="cls-1" d="M148.51,84.2l4.15-.35.05.36-4,.58Z"/><path class="cls-1" d="M309.79,105.56a5.07,5.07,0,0,1-4.39,2.19l.07.06,4.37-2.2Z"/><path class="cls-1" d="M140.39,84.64h1.38v.16h-1.38Z"/><path class="cls-1" d="M423,93.14l2-2.25A2.64,2.64,0,0,1,423,93.14Z"/><path class="cls-1" d="M379.72,75.14l4.57.71-.06.44-4.56-.78Z"/><path class="cls-1" d="M370.21,73.47l-2.55-.6.06-.34,2.67.51Z"/><path class="cls-1" d="M430,69.25l-4.49-1,.13-.57,4.47,1Z"/><path class="cls-1" d="M448,76.67l.91.39h-1.05Z"/><path class="cls-1" d="M442,76l2.92.34c-1.72.31-1.72.31-2.88-.37Z"/><path class="cls-1" d="M442.08,76l-2.81.24,0-.45,2.77.25Z"/><path class="cls-1" d="M224.67,79l-2.23-2.87c1.68-1.64,4.93-2,8.45-1-2.25,1.54-4.7-.43-6.69.76-.61,1.15.09,1.68.91,2.18a16.76,16.76,0,0,1,2.46,1.65c1.1,1,1.11,1.85-.11,2.63-3,1.92-3.8,4.76-3.56,8.5-1.64-2.2-.78-4.07,0-5.61s2.28-2.86,3.58-4.4c-.54-1.07-1.72-1.47-2.91-1.86Z"/><path class="cls-1" d="M232.52,99.24c-2.33-.29-4.83-.1-6.84-2.38,3.19-1,5.84.43,8.58.93l-5.53-.43-.07.34,3.8,1.59Z"/><path class="cls-1" d="M248.63,102.17l-3-.16.13-.76,2.86,1S248.63,102.17,248.63,102.17Z"/><path class="cls-1" d="M238.42,96.78l-2-.52.06-.25,2.29.56Z"/><path class="cls-1" d="M236.08,99.88l-3.55-.65-.07.06c1.27-.22,2.54-.39,3.62.59Z"/><path class="cls-1" d="M236.08,99.88l2.54-.14V100l-2.53-.13Z"/><path class="cls-1" d="M324.14,73.05l5.25-2.78A8.32,8.32,0,0,1,324.14,73.05Z"/><path class="cls-1" d="M317,80.77,319.68,79l.35.72-3,.95Z"/><path class="cls-1" d="M316,76.84l4.18-1.68Z"/><path class="cls-1" d="M320.05,75.23l2.26-1.43C322,75,321.05,75.15,320.05,75.23Z"/><path class="cls-1" d="M317,80.71l-1.93.91-.15-.49c.71-.12,1.42-.25,2.14-.36Z"/><path class="cls-1" d="M327.56,81l-1,.55-.16-.27,1-.58Z"/><path class="cls-1" d="M159.88,74.52c-.23,1.2-1.27,1.13-2,1.59l-.27-.51,2.31-1Z"/><path class="cls-1" d="M312.48,66.82l2.79-2Z"/><path class="cls-1" d="M324.72,53.84l.95,1.17-1.91.59-.29-.44,1.33-1.26Z"/><path class="cls-1" d="M348.4,70.89,345,68.64Z"/></svg>