<svg id="Layer_1" data-name="Layer 1" xmlns="http://www.w3.org/2000/svg" viewBox="0 0 559.72 150.92"><defs><style>.cls-1{fill:#f0bb1a;}</style></defs><path class="cls-1" d="M318.94,30.65c-.07.25-.15.5-.31,1,2.13-.11,4.23-.58,6.17-.21s3.85,1.72,5.84,2.4c2.16.75,3.07,2.74,4.69,4.63a9.32,9.32,0,0,1,6.74-4.23c4.25-.8,8.22-.26,11.77,2.44a12.48,12.48,0,0,0,4.85,2.58,3.12,3.12,0,0,0,3.3-.82,26.62,26.62,0,0,1,9.21-6.1,38.78,38.78,0,0,1,4-1.07l.18.53-4.15,1.31.07.42h8.94c.05-.32.11-.65.16-1l-.05.06A19.81,19.81,0,0,0,384,33a12.17,12.17,0,0,1,11.1,4.82,6.76,6.76,0,0,0,1.37-1.17,10.06,10.06,0,0,1,4.81-3.63c2.61-1.08,5.24-2.12,7.87-3.17a4.63,4.63,0,0,1,4.56.43,4.27,4.27,0,0,0,1.14.67c3.06.86,6.12,1.71,9.2,2.46a2.63,2.63,0,0,0,1.69-.49c.83-.5,1.53-1.21,2.36-1.72,2.43-1.49,5-2.19,7.85-1.18,2.08.73,4.23,1.28,6.3,2.06a2.58,2.58,0,0,0,2.47-.25A26.48,26.48,0,0,1,449,29.69a11.54,11.54,0,0,1,3.86-.69,34.73,34.73,0,0,1,16.33,3.92,20.24,20.24,0,0,1,3,2.5,50.71,50.71,0,0,0,4.95,4c4,2.52,6.48,6.1,8.37,10.32a26.37,26.37,0,0,1,1.9,14.5,71.4,71.4,0,0,0-.06,11.14,7,7,0,0,0,2.21,5,7.26,7.26,0,0,1,2.2,4.44c.35,2.63.76,5.26,1,7.9a6.59,6.59,0,0,1-2.1,5.26,13.18,13.18,0,0,1-5.48,3.64,5.36,5.36,0,0,0-2.25,1.26c-3.61,4.08-8.25,6.69-13,9.12A122.84,122.84,0,0,1,458.34,117a10.36,10.36,0,0,1-8.76-.56,17.33,17.33,0,0,0-7.06-1.88,33.05,33.05,0,0,1-5.48-1.36c-2,2-5.05,2.09-8,2.43a21.15,21.15,0,0,0-3.61.71,6,6,0,0,1-5.3-.8c-1.83-1.2-1.94-1.12-3.57.43a6.14,6.14,0,0,1-1.73,1.17c-2.52,1.07-5.06,2.11-7.61,3.1a10.34,10.34,0,0,0-3.81,2.23c-2.06,2-4.77,1.54-7.3,1a9.89,9.89,0,0,1-3.19-1.3,4,4,0,0,0-4.2-.35c-2.41,1.09-4.86,2.12-7.34,3a19.08,19.08,0,0,1-5.36,1.42,28.21,28.21,0,0,1-13-2.13,2.69,2.69,0,0,0-2.93.21,42.82,42.82,0,0,1-15.24,5.94,14.64,14.64,0,0,1-8.87-.6,3.24,3.24,0,0,0-2-.4c-3.39,1.32-7.28.8-10.47,2.66-7,4.05-13.54,2.67-20.07-1.13-2.67-1.55-5.53-2.77-8.33-4.08a4.82,4.82,0,0,0-1.59-.14l-.12.54,1.72.4c.3,1.2-.66,1.38-1.27,1.79-1.6,1.09-3.26,2.09-4.8,3.25a6.68,6.68,0,0,1-6.72,1.16c-1.75-.63-3.59-1-5.34-1.58a4.86,4.86,0,0,0-4.29.64c-.76.45-1.51.94-2.23,1.44a16.39,16.39,0,0,1-9.13,3c-3.57.15-6.65-.43-9.43-2.49a67.19,67.19,0,0,1-7.78-6.36c-1.06-1.07-1.38-3-1.75-4.59a37.26,37.26,0,0,1-.44-4.5,10.39,10.39,0,0,0-2.44-5.76,10.34,10.34,0,0,1-2-3.71c-1.23-4.13-2.35-8.31-3.35-12.51a9.56,9.56,0,0,1,.23-4c.54,2.6.94,5.24,1.66,7.79a99.46,99.46,0,0,0,3.35,10.28c.74,1.82,2.18,3.37,3.64,5.53,0-1.46.08-2.45,0-3.43-.4-4.38-.92-8.76-1.25-13.15a39.07,39.07,0,0,1,.15-10.8,5.07,5.07,0,0,0-.11-1.44,16.72,16.72,0,0,0-2.06-.46c-3.2-.37-6.41-.48-9.6-1.09-2.29-.45-4.75-.11-7.13-.07-7,.1-14,.27-21,.31-5.57,0-11.15-.1-16.72-.14-9.39-.06-18.78-.1-28.18-.17-8.86-.06-17.72-.3-26.58-.2-6.1.07-12.21.59-18.31.91-.62,0-1.24.12-1.86.11-7.08-.1-14.18,0-21.26-.36-10.54-.48-21.07-.18-31.6.29a106.82,106.82,0,0,1-19.34-.68,13.77,13.77,0,0,0-3.45-.1c-2.54.28-4.08-1.38-5.79-2.76-.13-.11-.31-.28-.31-.41.09-1.58.31-3.15.3-4.73,0-2,1.3-2.48,2.88-2.78.12,0,.21-.25.63-.74L28,74.81a8.82,8.82,0,0,1,3.56-3.35A53.54,53.54,0,0,1,54.8,65a108,108,0,0,0,13-1.28c4.69-.81,9.36-.53,14-.48,3.54,0,7.09.28,10.61.07a101.37,101.37,0,0,1,16.71.3,249.27,249.27,0,0,0,27.6,1.15c3.09,0,6.17.56,9.26.76,2.21.13,4.42.06,6.64.11,5.39.12,10.79.21,16.18.39,5,.16,9.91.49,14.87.62,6.29.17,12.58.3,18.87.29,4.69,0,9.37-.27,14.06-.4,3.28-.09,6.55-.16,9.83-.19a4.25,4.25,0,0,1,1.27.53c-1.55,1.65-3.77.58-5.37,1.92h12.53c0-1.58.11-3.06,0-4.51a6,6,0,0,1,1.33-3.93c.13-.22.39-.52.58-.51,2.79.18,2.79-2.24,3.53-3.86a10.73,10.73,0,0,1,4.05-5.09,2.86,2.86,0,0,1,3.18-.24c1.72.9,2.75.51,3.57-1.22.53-1.12.95-2.29,1.44-3.43a7.52,7.52,0,0,1,3.7-4,25.84,25.84,0,0,1,11.73-2.86c4.51.08,7,1.53,8.21,6.28a7.21,7.21,0,0,0,.55,1.49c.11.21.39.33.6.5.83-2.06,1.48-4.15,2.47-6.08a26.2,26.2,0,0,1,7.56-8.43c1.61-1.25,3.45-.88,5,.22,1.86,1.34,3.55,2.91,5.29,4.41.61.52,1.13,1.12,1.74,1.64a1.62,1.62,0,0,0,2.54-.24c1.37-1.5,2.73-3,4.22-4.39a20.49,20.49,0,0,1,11.58-5.47,2.74,2.74,0,0,1,1.31,0c1.09.5,1.05,1.09,0,1.62a18.45,18.45,0,0,0-3.41,0C309.59,32,305.71,36,302,40.56l2.59,1.77c1.58-1.72,3.35-3.16,4.49-5a12.89,12.89,0,0,1,7.19-5.45A24.12,24.12,0,0,0,318.94,30.65ZM237.28,76.38l-3.75-.95c2.28,1.45,4.27,3.36,7.16,3.44l-3.49-2.55,3,.75c-.24-1.77-.52-1.86-3.37-1.32Zm35.91,13.1c.16-.07.4-.09.46-.21,1.88-3.36,3.76-6.74,5.59-10.13.12-.24-.08-.65-.22-1.58-2.56,4.09-4,8.12-5.76,12l-1.09,1.57C273.36,91,273.38,90.28,273.19,89.48Zm-34.84-8.79c-.14,2.06,1.56,1.83,2.77,2.39-.09-2.27-.31-2.44-2.86-2.3.13-1.34-1-1.5-1.83-1.84-2.33-1-4.73-1.9-7.11-2.8A5.58,5.58,0,0,0,228,76a72.82,72.82,0,0,0,8.68,5C237.1,81.18,237.8,80.8,238.35,80.69Zm-98.74-5.17c3.51.4,7,.85,10.54,1.19a8.9,8.9,0,0,0,4.49-.73c-3.32-2.36-6.52-3.94-10.13-4.29-3.34-.33-6.73-.2-10.09-.32-2.3-.08-4.59-.4-6.88-.36-4.6.08-9.2.34-13.79.53-7.16.28-14.36,0-21.47,1.15-3.32.55-6.67,1-10,1.45-7.81,1.17-15.74.14-23.56,1.66C52.85,77,46.81,77.31,40.85,78.07c-1.36.17-2.69.53-4.49.9a20.24,20.24,0,0,1,2.43,1.87c2.54,2.81,5.82,3.54,9.39,3.46,2.72,0,5.45-.08,8.17-.31,7.32-.6,14.68.17,22-.88,7.61-1.09,15.3-1.62,23-2.4,4-.4,8.09-1,12.16-1.17,7.69-.39,15.39-.69,23.09-.82,8-.13,15.94,0,23.91,0a6,6,0,0,0,1.29-.29V78l-4.71-1.62a5.68,5.68,0,0,1-3.34,1.2c-4.4-.31-8.79-.81-13.17-1.29-.33,0-.61-.52-.92-.8Zm268.24-7.79.06,0a10.24,10.24,0,0,1,1.35-2.8A5.66,5.66,0,0,0,411,61a2,2,0,0,1,1.44-2.2,7.51,7.51,0,0,1,1.2,4.52c-.05,3.19-.2,6.38-.07,9.56.13,3.35.55,6.68.82,10a8.38,8.38,0,0,1-.09,1.58c-.19,2.27-1.35,4.54,0,6.83.12.21-.21.66-.23,1a2.29,2.29,0,0,0,.09,1.26,31.25,31.25,0,0,0,3,4.3,52.29,52.29,0,0,0,5.72,5.52c2.18,1.78,4.63,3.23,6.93,4.88,1,.75,1.52.11,2-.69.29.19.49.36.71.47,1.9.92,3.3.36,3.68-1.64.41-2.21,1.48-4.33,1.17-6.69-1.93-.37-2.72,2.56-4.88,1.43.77-3.41,4.44-4.74,5.33-8a25.65,25.65,0,0,0-2.5,2.61c-.73.83-1.15,2.24-2.94,1.62,1.11-2.89,3.74-4.86,4-8-1,1-1.7,2.14-2.57,3.19s-1.18,2.5-3.31,2.87l1.69-3.21h-2l1.95-3.35a1.43,1.43,0,0,1-.24-2.25c1.17-1.67,2.29-3.37,3.38-5.08.77-1.2,1.44-2.45,2.16-3.67a20.76,20.76,0,0,0-3.09,3.37c-.93,1.1-1.36,2.89-3.56,2.92.11-.58.06-1,.25-1.19a5.29,5.29,0,0,0,1.84-4.51,5.4,5.4,0,0,1,1.7-3.76c1.6-1.89,3.14-3.83,4.76-5.71,1.43-1.64,2.92-3.24,4.44-4.8.19-.19.76,0,1.27,0a5.48,5.48,0,0,1-.11,1.26c-1.89,4.64-1.47,9.59-1.83,14.41-.28,3.7,0,7.43-.25,11.12a12.17,12.17,0,0,0,3.6,9.62c-1.06,1.73-.65,3.27.78,4.72a15.56,15.56,0,0,1,1.44,2.21,5.15,5.15,0,0,0,2.6,2.25c-.32-1.35-2.32-2-1-3.49,2.88,1.18,5.59,2.47,8.42,3.38a7.6,7.6,0,0,0,8.05-1.91c1.83-1.8,3.57-3.69,5.36-5.54.89-.92,1.6-1.88,1-3.5-4.1.29-6.15,4.55-10.33,5.45l.88-2.45c-1.76-.52-3,.33-4.27,1.16-2.35,1.51-3.49,1.43-5.36-.57a45.61,45.61,0,0,1-3.56-4.61c-.24-.34-.15-.92-.21-1.39.38,0,.58-.12.71,0a5.39,5.39,0,0,1,1.13.68,15.25,15.25,0,0,0,8.32,3.15c.95.1,2.06-.37,2.85,0,2,.88,3.19,0,4.41-1.33a43.72,43.72,0,0,0,3.11-3.28A35.76,35.76,0,0,0,473,91.74l-.55-.45c-1.19,1.09-2.33,2.23-3.58,3.25s-1.89,2.73-4.34,2.7c2.77-4,6.05-7.26,7.42-11.66a2,2,0,0,0-.82.68c-1.35,1.75-2.67,3.52-4.05,5.26-.55.69-1.07,1.64-2.36,1.08.92-3.08,3.9-4.82,4.66-7.85a36.9,36.9,0,0,0-2.83,3c-2,2.33-2,2.32-3.59,2.12l6.05-9.26-.47-.33c-.76,1-1.47,2.06-2.29,3s-1.36,2.49-3.3,2.48c.65-4.25,4.39-6.88,5-10.94-1.67,2-3.13,4.06-4.64,6.12-.68.91-1.16,2.18-3,2.08a10.6,10.6,0,0,1,1.79-4.51,1.87,1.87,0,0,0-.33-2.94c-.83.25-1.06,1.84-2.48,1,0-1-.32-2.29.06-3.26a56.69,56.69,0,0,0,2.82-9.87c.27-1.38.93-2.67,1.19-4,.19-1.05.41-2,1.57-2.11a2.4,2.4,0,0,1,2.58,1.84,29.81,29.81,0,0,0,1.73,3.88c1.63,3.32,3.25,6.63,3.69,10.4a5,5,0,0,0,1.32,2.19,23.61,23.61,0,0,1,2.64,3A24.55,24.55,0,0,1,480,92.34c-.11,2.08-.38,4.16.56,6.26a30.16,30.16,0,0,0,2.87-1.06c.43-.2,1-.64,1.06-1,.41-2.86,1.52-5.67.74-8.62-1.09-4.09-2.22-8.16-3.32-12.24-1.05-3.92-2.38-7.74-2.88-11.83a73,73,0,0,0-3.81-16.26,22.29,22.29,0,0,1-.58-2.31c-.48-2-1.37-2.65-3.4-2.4a23.05,23.05,0,0,0-2.68.63c.22,1.65.41,3.11.6,4.58-2.21,1.66-3.2,1.67-5-.07a20.55,20.55,0,0,1-1.55-1.81c-1.37-1.67-2-1.9-3.85-1.05-2,.93-3.92,2.08-5.95,3s-2.75,2.36-2.75,4.58a96.11,96.11,0,0,1-.51,13.26,51.32,51.32,0,0,0-.1,11.88,79.54,79.54,0,0,1,.1,9.52,7,7,0,0,1-1,3c-.44.8-1.23,1.34-2.24.4A26.8,26.8,0,0,0,446.48,79c-.85-4.19-.54-8.27-.27-12.39.17-2.72.86-5.41,1.08-8.13a85.33,85.33,0,0,0,.21-8.76,9.13,9.13,0,0,0-.89-4.06,9.65,9.65,0,0,0-5.07-4.44,29.52,29.52,0,0,0-6.15-2c-5.2-.76-9.73,4.27-9.83,8.38-.1,4.68-.05,9.37,0,14.06a12.16,12.16,0,0,0,.56,3.9c2.18,6,1.73,12,.11,18A20.5,20.5,0,0,1,424.91,87a1.21,1.21,0,0,1-2,.49c-.16-2.23-.33-4.49-.47-6.75,0-.54,0-1.09,0-1.9-1.56,2-1.56,2-3.27,2.23l1.9-4.72L419,77V74.81l-1.42-.68c.43-1.63.82-3.08,1.19-4.54.72-1.85,2.33-3.35,2.21-5.53-.91,1.79-2.6,3.28-2.14,5.6l-2,.92a6.78,6.78,0,0,1,.15-5.36c1.23-3.38,2.17-6.86,3.4-10.89-3.79,1-6.08-1-8.51-2.8a4.19,4.19,0,0,0-4.54-.18L404,53c-.19-2.12.25-2.92,2-3.31a40.34,40.34,0,0,1,6.54-1,9.29,9.29,0,0,1,3.84.86c1,.41,2,1.14,1.35,2.84-1.42-1.47-2.71-3-5-2.54,2,2.44,4.57,3.81,6.77,3.68,1.48-.09,2.2-1.12,1.41-2.31-1.73-2.63-2.86-5.59-5.28-7.85s-2.19-2.48-5.12-1.47l.17-1.1a3,3,0,0,0-3.58,1h3.49a18.82,18.82,0,0,1-3.15.78,19.8,19.8,0,0,1-3.28-.22,8.08,8.08,0,0,0,1.07-1.85c.31-1.07,1-1.28,2-1.41,1.35-.19,2.69-.47,4-.72,1.83-.43,2,2,3.57,2.21-1-2.54-1.16-2.61-3.58-2.21a2.57,2.57,0,0,0-3.92-.69c-2.61,1.78-5.5,3.28-7.24,6.1a27,27,0,0,1-2.25,3.85c-2.09,2.4-2.43,5.49-3.07,8.28a13.88,13.88,0,0,0,1.62,10,2,2,0,0,1,.32,1.22c-.54,2.37.34,4.56.82,6.78a29.31,29.31,0,0,1-.63,15C396,91.56,395,94.18,394,96.81c-.13.34-.65.83-.87.77-.44-.11-1.12-.56-1.11-.85a11.15,11.15,0,0,1,.57-3.3c.49-1.34,1.28-2.58,1.18-4.37-1,1.07-.42,3-2.67,3.09.16-1.69.31-3.27.45-4.82h-2.07c.61-1.8,1.13-3.34,1.59-4.67a6.65,6.65,0,0,1-.65-2.12,18.58,18.58,0,0,1,.63-3.36,44.28,44.28,0,0,0,1.28-14c-.17-2.19-.25-4.38-.26-6.57,0-1.29.19-2.58.32-4.12-2.41.84-2.59,3-3.42,5-.59-3.16,1.53-4.64,3.1-6.55a40.19,40.19,0,0,1-2.45-4.09c-1.44-3.16-4-5.06-7-6.49-4.57-2.16-11.28.31-13.19,5-.19.46.15,1.14.29,2-1.18.25-1.37,1.11-.88,2.49a7.93,7.93,0,0,1,0,2.83,14.43,14.43,0,0,0-.2,2.35c.52,5,.87,10.07,1.7,15a78.86,78.86,0,0,1,.28,23.56c-.6,4.48-3.23,8.1-5.21,12-1.29-.5-1.49-1.15-1.19-2.2.73-2.62,1.38-5.26,2-7.91.11-.48.21-1.29,0-1.48-1.3-1-.61-2.06-.21-3.1.63-1.66,1.36-3.28,1.93-5,.43-1.24.68-2.54,1-3.82-2.07,2.28-2.05,5.62-4.55,7.68-1.61-1.41-.46-2.63-.18-3.79s.77-2.49,1.16-3.73c-1.46.93-1.57,2.83-3.42,3.5-.85-2.47,1.11-4.31,1-6.48l-1.25-.41c.16-1,.32-1.9.52-3-1.6,0-1.69-1-1.57-2.14a12.67,12.67,0,0,1,.29-1.83c.56-2.32,1.16-4.62,1.74-6.94.43-1.72.84-3.46,1.32-5.43,1.84,1.08,1,2.31.74,3.21-.57,2-1.4,4-2.12,6a6.46,6.46,0,0,0-.39,4.09c.3-.66.54-1.11.72-1.57a50.71,50.71,0,0,1,2.05-5.18,11.55,11.55,0,0,0,1.36-7.39c-.17-1.13-.13-2.3-.24-3.44-.22-2.26-.48-4.52-.71-6.6-3.56-1.08-6.7-2.35-10-2.94-3.46-.62-7.05-.8-10.21,1.52a20.73,20.73,0,0,1-3,1.5c-.45-1.73.62-2.1,1.4-2.51,1.49-.77,3-1.43,4.59-2.07,2-.81,4-1.51,6.17-.82a7.11,7.11,0,0,0,2,0c-.06-.7-.1-1.27-.16-1.92a47.19,47.19,0,0,0-6.42-.71A8,8,0,0,0,345.24,42c-3.59,2.77-5.48,6.76-6.86,11a2.25,2.25,0,0,0-.07.52c-.11,4.51-.62,9,.59,13.48.49,1.79.63,3.66,1,5.48.78,3.9,1.51,7.81,2.42,11.69,1.75,7.49,2.9,14.92.33,22.51a12,12,0,0,1-3.7,5.38c-.75.65-1.86,1.39-3.2.25,1-1.07,1.87-2,2.7-3a3.16,3.16,0,0,0,.82-1.56c.26-3.48.42-7,.61-10.57-.35.65-.69,1.25-1,1.86s-.5,1.55-1.57,1.49c-.18-.35-.35-.65-.5-.93l-2.25,1.55c-.46-3,.89-5.18,1.46-7.62l-2.16,1.19c.57-2.84,1-5.12,1.48-7.43l-1.87.18c.7-4.55,1.32-8.93,2.1-13.27.12-.71.93-1.3,1.13-1.56a35.17,35.17,0,0,0,0-5c-.8-5.35-1.44-10.68-.88-16.11.24-2.31-1-3.62-3.33-3.84a20.29,20.29,0,0,0-3.08.19c-.25-.67-.29-1.42-.68-1.75-2.29-1.9-4.72-3.49-7.94-2.31a5.29,5.29,0,0,1-1.55.36c-.81,0-1.8-.06-1.7-1.12,0-.46.83-1,1.4-1.22a4.75,4.75,0,0,1,1.84,0,29.37,29.37,0,0,0,4,.26c2.16-.16,4,.21,5.21,2.14.94-.52,1.09-1.2.54-1.84a9.25,9.25,0,0,0-2.3-2.12c-2.47-1.43-5.22-1.24-8-1.3a9,9,0,0,0-6.62,2.85,36.16,36.16,0,0,0-2.68,3.6c-1,1.17-1,2.53-1.24,3.9s-1.59,2.31-1.92,3.58a50.27,50.27,0,0,0-.78,6.44c1.13-1.75.91-3.79,2.8-5a7.33,7.33,0,0,1,.06,1.55c-.43,1.84-1.54,3.65.06,5.5.2.23.05.89-.11,1.27-1.35,3.12,0,6.25.05,9.36.05,2,1.12,3.85,1.57,5.81a78.45,78.45,0,0,1,2.16,10.84,30.45,30.45,0,0,1-.92,8.4c-.76,3.73-1.64,7.41-1.42,11.26,0,.44-.46.91-.71,1.36l-.76-.16c-1.46-4.3-.52-8.61.72-13.31-2,1.92-1.06,4.78-3.28,6.5a8.19,8.19,0,0,1-.23-1.39c.11-1.64,1.36-3.39-.62-4.82-.25-.18,0-1,0-1.54q.21-3.3.43-6.6l-1.63-.18c.57-4.78,1.13-9.42,1.75-14.54-1,1.29-.66,3-2.75,3a16.86,16.86,0,0,1,0-2.37c.31-2.11.75-4.19,1-6.29a7.54,7.54,0,0,0,.06-3.4,14.26,14.26,0,0,1-.56-5.45c0-2.53,0-5,0-7.78l-2.27.89c-.83-.68-1.7-1.28-2.44-2-2.56-2.58-4.57-2.78-7.45-.62-1.33,1-2.63,2-3.86,3-1.63-.83-1.66-2-.73-2.93A8.71,8.71,0,0,1,290.75,48c1-.43,2.25-.48,3.29-.92,3.7-1.57,4.52-1.36,6.71,2,1.5,2.31,2.84,2.27,4.75-.33-2.06-1.31-2.05-4.37-5.16-5.5a2.59,2.59,0,0,1-.3.76,5.29,5.29,0,0,1-.91.83c-.27-.33-.52-.5-.59-.73-.73-2.42-.88-2.54-3.21-2.32-.61.06-1.21.25-1.81.37-2.53.49-4,2.48-5.84,4a19,19,0,0,0-6.43,9.23,18.48,18.48,0,0,0-.77,8.74,11.33,11.33,0,0,0,1.4-1.73c.5-1,.75-2.2,1.33-3.18,1-1.66,1.39-3.72,3.27-4.84a9.68,9.68,0,0,1-.61,3.06c-.64,1.65-1.49,3.22-2.07,4.89-1.33,3.82-3,7.55-2.46,11.81.42,3.16.54,6.35.76,9.53.16,2.29.08,4.63.44,6.89,1.1,6.88-1.09,13.2-3.45,19.37a9.33,9.33,0,0,1-8.32,6.12c-2,.16-2.95-.57-3.34-2.56a1.56,1.56,0,0,1,.38-1.32,1.36,1.36,0,0,1,1.32.32,1.73,1.73,0,0,0,2.28.74,10.7,10.7,0,0,0,6.46-6.26,78.8,78.8,0,0,0,2.18-7.65,13.81,13.81,0,0,0,.22-2.15c-.3.16-.52.2-.58.32-1.43,3.13-2.85,6.28-4.25,9.42-.26.58-.32,1.37-1.47,1.25l1.55-5L272.81,105l-.51-.43c2.25-3.62,5-7,5.93-11.27-1,1.34-1.78,2.83-2.76,4.17s-1.28,3-3.27,3.39c1.67-3.83,4.19-7.24,5.11-11.39-1,1.19-1.69,2.6-2.62,3.8s-1.13,3.19-3.45,3.47l.74-2.59c-1.71.09-1.81-.89-1.31-2.05.62-1.45,1.37-2.85,2.1-4.35l-1.51-.51c.06-.65.39-1.45.12-1.81-.92-1.22-.25-2.13.26-3.16A95.42,95.42,0,0,0,276,73.18c.84-2.26,2.28-4.44,1.86-7.09A28.47,28.47,0,0,1,278.24,55a2.54,2.54,0,0,0-.53-2.12,14.13,14.13,0,0,0-3.66-2.54c-2.16-1-4.43-1.72-6.68-2.5-6-2.08-7.07-2-10.84,3-1.59,2.11-4.26,4-3.31,7.3-2.16,1.55-2.3,1.59-3.11,4.19A25.27,25.27,0,0,0,249,74.17a15.61,15.61,0,0,1,.47,4.45,1.61,1.61,0,0,0,.07.53c.6,2.84,1.21,5.69,1.87,8.79l4.76,1.21c.15-1.11.29-1.87.35-2.64.3-3.69.64-7.38.84-11.08.15-2.53,1.32-4.91,1-7.53-.1-.71.53-1.5.83-2.26l.6.18c-.16,1.64-.24,3.3-.52,4.93s-.92,3.24-1.1,4.9c-.27,2.48-.27,5-.38,7.5.72-.12,1-.33,1.12-.61,1.43-3.23,2.89-6.45,4.22-9.72.5-1.22,1.32-2.87.87-3.77a2.67,2.67,0,0,1,.28-3c.76-1.27.43-2.29-.18-3.47a33,33,0,0,1-1.78-4.41,1.42,1.42,0,0,1,1.07-2.07l2.88,5.31,2.47-.59c-.2,1.45-.77,2.77-.44,3.79.78,2.38-.05,4.51-.33,6.77-.34,2.79-1,5.37-3.06,7.4-.24.23-.29.64-.5.92-1.27,1.66-1.58,3.7-2.21,5.61-.43,1.31-.79,2.64-1.21,4l2.46.86,0,.31-2.28.19c-.82,3.08-1.83,6-1.52,9.18A52.52,52.52,0,0,0,263,114.58a11.44,11.44,0,0,0,3.5,4.87,17.66,17.66,0,0,0,8.76,4c3.92.54,7.88,1.35,11.77-.28.06-.87.12-1.74.21-2.92l2.71,1.63a34.76,34.76,0,0,0,2-4,3.9,3.9,0,0,0,0-2.48c-1.16-3-2.47-6-3.81-9.12-1.58,3.2-2.14,6.66-3.16,10-.9-3.71,1.16-6.76,2.16-10.25-1.84-.44-1.77-1.9-1.41-3.3.53-2,1.26-4,1.88-6a4.63,4.63,0,0,0,.06-1h-1.66a5.55,5.55,0,0,1,0-1.17c.93-3.58,1.9-7.15,2.82-10.74,1-3.93,2-7.87,2.91-11.82.54-2.32.84-4.7,1.45-7a37.56,37.56,0,0,1,1.81-4.38l3-1.13c-.14.83-.19,1.44-.34,2-.44,1.79-1.06,3.56-1.35,5.37-.61,3.75-.88,7.57-1.6,11.29-1.12,5.82-2.49,11.58-3.77,17.37a17.54,17.54,0,0,0,.11,9.69c.66,1.91,1.36,3.81,1.95,5.75a13.32,13.32,0,0,0,7.88,8.41c2.26,1,4.51,2,6.72,3.15,5.92,3,11.86,2,16.45-2.76a2.62,2.62,0,0,0,.62-3.32,23,23,0,0,1-1.13-3.24c-.39-1.41-.69-2.86-1-4.32l-2.2.75c2.27-3,1.93-6.1,2.08-9.06,0-.71.26-1.4.31-2.11,0-.41,0-1.11-.19-1.22-1.6-.76-1.05-2.06-.86-3.23.33-2,.77-4,1.06-6,.26-1.73.26-3.5.57-5.21.48-2.62,1.13-5.21,1.7-7.82-1.72,1.85-1.82,4.56-3.87,6.24-1.63-2-.37-4-.44-6.07-1.5.1-1.35-1-1.18-2a21.57,21.57,0,0,1,.79-3.36c.44-1.29,1.36-2.49,0-3.81-.24-.22,0-1,.13-1.52.47-1.61,1-3.22,1.52-4.81A11.87,11.87,0,0,1,323.16,58c.45.81.8,1.32,1,1.87.72,1.69,1.5,3.37,2.09,5.1a45.6,45.6,0,0,1,2,18.86,78.33,78.33,0,0,1-2.48,13c-.17.68-.51,1.81-.24,2,1.89,1.41.41,2.61-.05,3.89a6.52,6.52,0,0,0-.54,2,24.82,24.82,0,0,0,4.15,14,3.61,3.61,0,0,0,2.95,1.41c1.39-.29,2.23.3,3.34.74,8.88,3.54,17.08.84,22.41-5.77a2.56,2.56,0,0,0,.4-3.07,16.71,16.71,0,0,1-1.69-7.63,7.63,7.63,0,0,0-.94-4.51c-.59,1.69-1.09,3-1.49,4.35a4.55,4.55,0,0,0,0,1.52,10.21,10.21,0,0,1,.19,2.78c-.52,2.13-1.26,4.22-2,6.31a4.66,4.66,0,0,1-.76,1.05,55.87,55.87,0,0,1,1.16-6c.1-.45.12-1.22-.14-1.41-1.11-.82-.6-1.73-.31-2.63.38-1.17.85-2.32,1.25-3.49,0-.13-.09-.32-.13-.47l-1.56-.26c1-4,2-8,3-12.32-1.51,1.16-1.24,3.11-3.17,3.56,0-1.24,0-2.33,0-3.42s.62-2.76.09-3.31c-1.27-1.29-.48-2.26-.12-3.35s.87-2.32,1.29-3.49c.05-.13-.06-.32-.09-.48l-1.76.78c-.8-2.25-.15-4.71,1.64-6.94-.32,1.21-.68,2.6-1.05,4l.57.2a11.35,11.35,0,0,1,1.56-3.2c.85-.9,2-1.47,1.87-2.93-.29-.42-1.84-.3-.58-1.38.27-1,.55-2,.83-3-.92.86-1.46,1.82-.82,3l-2,1.49a8.14,8.14,0,0,1,.16-1.07c.21-.58.44-1.16.69-1.72,1.44-3.24,2.8-6.49,2-10.18-.21-.94-.3-1.92-.53-2.86-.16-.71-.08-1.37.67-1.42a1.58,1.58,0,0,1,1.28.87,37.22,37.22,0,0,1,1.22,6.72c.18,4.15,0,8.3,0,12.45,0,3.1,0,6.19-.06,9.28-.1,2.81-.47,5.62-.52,8.43,0,1.48.43,3,.54,4.45.21,2.91.23,5.84.51,8.74a56.4,56.4,0,0,0,1.15,5.54c1.49-1.34,2.74-1.89,4.42-.75-.51,1-.94,1.88-1.46,2.74a2.73,2.73,0,0,0,1.34,4.22c.47.19,1,.36,1.38.52.08,2.67.54,3.45,2.53,3.56,6,.32,11.42-1.17,15.73-5.63a14.76,14.76,0,0,0,1.43-2.12A11.91,11.91,0,0,0,377,114.1c-1.92,1.38-4.57.87-6.49-1.39a6.94,6.94,0,0,1,1.49-.34,26.3,26.3,0,0,0,2.92.18c1.93-.21,4.27-.38,5.09-2.26a17.52,17.52,0,0,0,1.05-10.14c-.64.56-1,.9-1.38,1.2s-.81.53-1.62,1.05c.32-4.2,3.15-7.17,3.46-11-1.1,1.08-.92,3-3,3.56.94-4.16,3.33-7.65,3.51-11.76-.72,1.13-1.25,2.34-1.88,3.5s-.42,2.89-2.5,3.1c-.09-3.06,1.43-5.64,1.9-8.59-1.28,1-1,2.9-2.92,3.34a3.67,3.67,0,0,1-.05-1.34,8.11,8.11,0,0,0,.67-4.87,6.26,6.26,0,0,1,.57-2.83c.46-1.52,1.11-3,1.53-4.53.64-2.38,1-4.86,1.8-7.17a11,11,0,0,0,.42-5.47c-.08-.58-.18-1.16-.32-2.06,1.5.47,2.74.8,3.9,1.3.17.08.14,1.38-.1,1.49-1,.47-.63,1.12-.51,1.8a42,42,0,0,1,1.13,6.79,117.75,117.75,0,0,1-.45,14.8,32.47,32.47,0,0,0,1.09,14.15c.74,2.21.61,4.76,2.87,7.23.13-.47.11-1,.35-1.16,1.45-1,2.31-.69,2.42,1a7.16,7.16,0,0,1-.23,2.89,2.75,2.75,0,0,0,1.06,3.28c1.9,1.55,3.9,3,5.92,4.39a5.63,5.63,0,0,0,7.9-1.45,23.49,23.49,0,0,1,3.6-4.57c1.84-1.55,3.58-2.91,3.05-5.64,0-.23.15-.5.24-.74.95-2.35.5-4-1.65-5.67L409.65,99c2.9-.39,3.37,0,2.46,2.14-1.08,2.51-2.41,4.91-3.65,7.35,0,.05-.28,0-.63,0,.38-2.92,2.64-5.13,3.18-8.48l-4.77,3.67-.52-.48c.8-3.52,4.94-5.15,5.74-9.2-2.47,1.33-3.13,4.36-6.6,4.65l2.63-4.15c1-1.56,2-3.11,3-4.68a1.31,1.31,0,0,0-.3-2c-1.64,1.16-2.05,3.68-4.5,3.87-1-1.67.58-2.92.55-4.37l-1.76-.46c.83-1.54,1.51-3,2.33-4.3s1.87-2.55,2-4.81c-.94,1.24-1.49,2-2.11,2.77s-1.23,1.9-2.37.8l-2.53,2.46-.62-.42a18.1,18.1,0,0,1,.92-2.28c2.22-4,4.51-8,6.72-12a27.78,27.78,0,0,0,1.24-3.41ZM90.23,85.14v.53c.93.07,1.85.21,2.78.22,1.77,0,3.54,0,5.32,0,5,0,10.1,0,15.14-.12,5.49-.17,11-.76,16.46-.8,8.86-.08,17.72.17,26.58.23,8.32,0,16.65,0,25,.07,5.23.06,10.45.41,15.67.49,3.26,0,6.53-.26,9.79-.26,5.67,0,11.33.14,17,.17,1.45,0,2.91-.17,4.36-.27a4.64,4.64,0,0,0-2.46-.81c-2.83-.11-5.66-.11-8.49-.22-4.86-.19-9.72-.44-14.57-.65-1.06,0-2.13.06-3.19,0-5.46-.46-10.9-1.12-16.37-1.39-7.77-.38-15.56-.54-23.35-.69-5.47-.1-10.94.05-16.41,0a94.29,94.29,0,0,0-13.23.47,37.09,37.09,0,0,1-4.22,0c-1.5,0-3-.08-4.5,0-5.74.38-11.49.7-17.21,1.26C99.59,83.79,94.92,84.53,90.23,85.14Zm167.29,19.42c-1.29,1.91-1.1,4.17-3.31,5.39,0-3.82,2.44-6.77,2.37-10.41l-2.49,2.14c.5-3,3.46-4.88,2.14-8-1.66,1.45-1.94,4-4.33,4.07-.27,2.26-.1,4.53-.88,6.41a35.62,35.62,0,0,0-2.48,11c-.33,4.12,1.54,6.71,4.22,9.16a7,7,0,0,0,4.88,1.73c1.94,0,3.87.12,5.81.16.58,0,1.16-.06,1.84-.11-.5-2.46-.47-4.88-2.71-6.47a4.69,4.69,0,0,1-1.1-2.09c-1-2.63-2-5.25-2.89-7.93A47.4,47.4,0,0,1,257.52,104.56ZM65.41,65.38c0,.18,0,.37,0,.56a15.9,15.9,0,0,1,3.62.55c3.91,1.52,8,1.37,12,1.3a75.51,75.51,0,0,1,9.28.15,77.36,77.36,0,0,0,14,.1c5.2-.38,10.42-.67,15.63-.82,6.45-.18,12.91-.19,19.36-.29a12.81,12.81,0,0,0,1.63-.24,1.42,1.42,0,0,0-1-.43c-3.71,0-7.42.06-11.12-.12-5.91-.28-11.81-.74-17.72-1.12a98.9,98.9,0,0,0-11.12-.6c-9,.44-18,.33-27.06.13A53.67,53.67,0,0,0,65.41,65.38Zm412-23.91a6.27,6.27,0,0,0,2.26,4,10.2,10.2,0,0,1,3.27,8.09c-.05,2.56-.13,5.13-.15,7.69a48.68,48.68,0,0,0,.11,7.35c.34,2.33,1.33,4.56,1.94,6.86,1.32,4.94,3.06,9.78,3.73,14.88a6.93,6.93,0,0,1-.83,5.07,33.54,33.54,0,0,0-2.16,4.54,7.51,7.51,0,0,0,6-8.16q-.4-2.76-.75-5.52a9.3,9.3,0,0,0-2.58-5.7,8.47,8.47,0,0,1-2.36-7c.24-2.91.39-5.82.54-8.74.11-2.12.25-4.24.19-6.36-.1-4.27-1.91-8-3.8-11.73C481.59,44.29,479.51,42.92,477.38,41.47ZM245.79,54.1a13,13,0,0,0-1,1.17,7.75,7.75,0,0,0-.59,1.19,32,32,0,0,0-1.74,14.37c.39,5.1,1.33,10.16,2,15.24.14,1.11.67,1.61,1.71,1.58a14.25,14.25,0,0,0,1.86-.32,4.57,4.57,0,0,0,.07-1.66c-1-2.68-.91-5.56-1.49-8.3a25.52,25.52,0,0,1-.11-9.5c.58-3.47,1.35-6.91,2-10.18ZM91.36,70l-.07-.58c-1.83,0-3.67,0-5.5,0-4.33-.11-8.7-.63-13-.33-7.15.5-14.26,1.49-21.38,2.32a9.47,9.47,0,0,0-5.06,2.42,27.77,27.77,0,0,0,4.22-.3c3.44-.34,6.87-.66,10.31-1,2.55-.22,5.11-.39,7.66-.55,6.36-.39,12.73-.73,19.08-1.17A24.62,24.62,0,0,0,91.36,70Zm153.56,18.2c-1.41,3.5-1,16.66.6,24.61.68-2.35,1.39-4.94,2.19-7.51.9-2.84,2-5.64,1.11-8.72a10.28,10.28,0,0,1,0-1.57c-.17-2.08.12-4.24-1-6.22Zm-63.79-8.72.13-.66c-1.81-.88-3.6-1.83-5.45-2.62-4.94-2.09-9.73-4.79-15.45-3.95a14.89,14.89,0,0,1-3.17-.22c-1-.09-2.08-.16-3.12-.24,2.7,1.56,5.47,2.72,8.16,4,4.08,2,8.2,3.62,12.92,3.23A37.83,37.83,0,0,1,181.13,79.49Zm-5.65-10.13c1.79.75,3.57,1.62,5.53.92,2.35-.85,4.71-.53,7.08-.22a21.72,21.72,0,0,0,5.51.53c4.34-.55,8.46.44,12.64,1.15a20.54,20.54,0,0,0,3.42.21c3.18,0,6.35-.22,9.52-.13,3.81.12,7.6.49,11.4.71a15.84,15.84,0,0,0,2.16-.17,1.93,1.93,0,0,0-2-1.89c-1.24,0-2.48-.09-3.72-.08-5.31,0-10.62.15-15.93.1-2.38,0-4.76-.53-7.13-.54-5.12,0-10.15-1-15.24-1.31C184.26,68.34,179.93,69.12,175.48,69.36Zm23.19,11.25c-3.92-2.78-8.41-3.92-12.54-5.85s-8.37-1.57-13.26-1.83a11.56,11.56,0,0,0,1.43,1.12q4.66,2.22,9.35,4.39a12.59,12.59,0,0,0,3.67,1.43C191.09,80.26,194.88,80.39,198.67,80.61ZM307.23,44.73l.48.22c2.07-2.27,4.12-4.56,6.23-6.78a5.44,5.44,0,0,1,5-1.84,15.93,15.93,0,0,0,3.16-.06c4-.22,7.79.21,10.37,3.87.16.23.55.31,1,.57.14-.68.47-1.27.3-1.58a8.5,8.5,0,0,0-2-2.74c-3.39-2.5-6.87-4-11.49-3.37s-7.76,2.48-10,6.34c-.49.83-1.13,1.58-1.62,2.42S307.72,43.74,307.23,44.73ZM187.86,73.48c.09.15.14.38.26.44,4.53,2,9.08,3.89,13.59,5.91,2.95,1.31,6.1.76,9.15,1.14a27.25,27.25,0,0,0,3.26,0,3.39,3.39,0,0,0-1.69-1.29c-4.49-1.61-9-3.16-13.47-4.77A24.41,24.41,0,0,0,187.86,73.48ZM36.5,71.89l.35.72L66.07,68a50.51,50.51,0,0,0-28,2.8A7.88,7.88,0,0,0,36.5,71.89Zm271.93,54c-3.73-1.79-7.25-3.5-10.79-5.16-.44-.2-1.23-.37-1.46-.14a8.2,8.2,0,0,0-2,2.61c-.48,1.2.77,1.69,1.56,2.1,1.79.93,3.68,1.66,5.5,2.54C305,129.62,305.43,129.53,308.43,125.85Zm159.21-88c-6.47-1.64-14.64,1-16.19,8.14a7.34,7.34,0,0,0,.95-.58,24.16,24.16,0,0,1,9.19-4.58c1.29-.34,3.09-.49,4.06.16,1.91,1.29,3.58.75,5.37.4.36-2.21.21-2.69-1-2.64-2.37.09-4.73.34-7.1.55-.85.07-1.7.2-2.56.31l-.08-.56Zm-87.08,60c2.06,1.19,2.15,1.23,2,3.35-.22,2.77-.57,5.54-.86,8.3a9.87,9.87,0,0,1,2.45.69,15.66,15.66,0,0,1,2.39,2.1c.31-.53.47-.84.66-1.14,1.25-1.94,1.11-2-.15-4a18.75,18.75,0,0,1-1.83-4.57,64.55,64.55,0,0,0-3-8.74ZM202.77,74.48a11.61,11.61,0,0,0,1.57,1q6.65,2.63,13.31,5.18a10,10,0,0,0,2.54.74c1.82.18,3.69.63,5.54-.17-4.11-2-8.26-3.68-12.4-5.4a12,12,0,0,0-3.14-1.3C207.87,74.34,205.52,74.48,202.77,74.48Zm64.88,55.63c-.33-1.79-1.46-1.74-2.51-1.73-2.2,0-4.4,0-6.6.18a10.4,10.4,0,0,1-10-5.08c-.57-.86-1.27-1.63-1.91-2.44a5.56,5.56,0,0,0,.26,3.15c.36.88,1.26,1.58,1.49,2.47.57,2.19,2.24,2.93,4.1,3.2a74.16,74.16,0,0,0,8.92.85A48.47,48.47,0,0,0,267.65,130.11Zm-17.9.39a6.92,6.92,0,0,0,4.92,3.8c1.19.29,2.54.14,3.65.6,2.43,1,4.48.2,6.56-.89,1-.53,2-1.08,3-1.69a4.88,4.88,0,0,0,.88-1C262.42,132.21,256.3,131.66,249.75,130.5ZM475,97.89c2-1.6,2-1.6,2.19-3.59a17.48,17.48,0,0,0,.18-2.88,26.4,26.4,0,0,0-1.47-7.91c-.36,1.62-.59,2.68-.82,3.68-2.46.18-3.41,1.09-4.44,4.07,2.08-1.45,2.08-1.45,3.94-1.53.25,4.15-3.4,6.08-5.59,9.32C471.24,98,472.72,95.89,475,97.89ZM449.89,35.31c3.73-2.2,7.56-4.33,12.23-3.68-5-2.6-13.08-2.61-17.5,1.62Zm-170,14.46c.43-.09,1,0,1.18-.27a82.34,82.34,0,0,1,6-6.27A16,16,0,0,1,293.77,39c.62-.21,1.26-.4,2.34-.73C287.64,37.08,280.15,42.52,279.85,49.77Zm-25.22-4c1.36-.35,2.55-.34,3.32-.91,2.27-1.68,4.85-1.37,7.37-1.54.88-.06,1.78,0,2.65-.09,2.44-.33,4.67,0,6.66,2.25-.95-3.4-3.23-5.25-6-5.06a42.11,42.11,0,0,0-7.11.86C258.92,41.94,256.2,42.66,254.63,45.8ZM306.45,131c4.69,3.15,12.53,3,15.54-.08l-5.64-2.28C313.34,130.55,309.92,130.78,306.45,131Zm97.39-94.15c-3.35-.71-5.36.22-7.1,2.14a12.39,12.39,0,0,0-3.49,6.37,2.5,2.5,0,0,0,1.22,2.79C396.31,43.45,399.44,40,403.84,36.85Zm25.5,74.36c-4.17-2.24-8.11-4.95-12.83-6-1,1.69-1,1.69,0,2.72,2.12,2.21,9.37,4.46,12.53,3.87C429.11,111.74,429.14,111.61,429.34,111.21ZM401,35.26c3,.82,3.5.68,6.42-.36a9,9,0,0,1,4.09-.48,19.14,19.14,0,0,1,4.73,1.6,24.61,24.61,0,0,1,3.12,1.91c.39.25.76.53,1.15.8a5.61,5.61,0,0,0-1.35-2.17,9.1,9.1,0,0,0-8.93-4.05C407.09,32.87,403.86,32.87,401,35.26ZM454.36,46c1.52-.6,3-1.24,4.58-1.8,2.46-.9,3.37-.5,4.87,1.67A7.08,7.08,0,0,0,466.05,48a1.5,1.5,0,0,0,2.21-1.4c.09-2.09-2.26-4.8-4.34-4.91C460.07,41.49,457,43.29,454.36,46ZM375.58,35.41c-3.12-.74-5.76.13-8.33,1.44s-3.14,2.52-1.7,5.72ZM175.14,68.13c-11.65-1-36.9-.61-40,.64Zm40,6.58L242.1,86.25C239.67,83.3,220.58,75.18,215.15,74.71ZM384,34.46c2.2,3.41,5.61,4.86,8.33,7.19,1.68-2.47,1.57-3.58-.37-5.14C389.68,34.71,387.07,34.3,384,34.46Zm55.78,59.45-.56-.31-4,5,3.23-.5c.78,1.84.12,3.25-.25,4.67a15.39,15.39,0,0,0-.61,2c-.08.86.26,1.63,1.28,1.64,1.61,0,3.55-2.88,2.88-4.3-.6-1.26-1.4-2.42-1.91-3.71a8.22,8.22,0,0,1-.39-2.72A8,8,0,0,1,439.74,93.91Zm7.76,17.69c-.08,1.13-.39,2,.59,2.81,2.82,2.27,8.06,2.57,11.53.6-2.23-1.65-2.23-1.63-4.5-1.52a7,7,0,0,1-2.09-.16C451.28,112.85,449.57,112.26,447.5,111.6ZM336.31,128.37c4.21,1.82,10.28,1.19,14.83-1.42a12.2,12.2,0,0,1-8.49-1,3.44,3.44,0,0,0-2.5.12A31.47,31.47,0,0,0,336.31,128.37ZM236.52,63.25l-.27,0V69h3.11a62.47,62.47,0,0,0,.62-9,27.93,27.93,0,0,0-1.7,3.87c-.13.32-.59.52-.89.77-.24-.3-.51-.59-.72-.91A1.9,1.9,0,0,1,236.52,63.25ZM425.75,35.34l12.83-2.88C433.76,29.51,428.42,31.86,425.75,35.34ZM282.27,127.8a12.88,12.88,0,0,0,7.05,1c1.87-.3,2.09-.54,2.56-2.81-.53-.21-1.14-.7-1.65-.62-2,.32-4,.79-5.9,1.27A12,12,0,0,0,282.27,127.8Zm198.17-24.57c-2.43-.6-3.8-.06-5.07,1.55a28.31,28.31,0,0,1-4.29,3.86c-.81.68-1.71,1.27-2.57,1.89C473,109.17,476.64,106.54,480.44,103.23Zm-143-56.34,7-8a11.34,11.34,0,0,0-6,3.57,26.37,26.37,0,0,1-2.71,2.19Zm141.94-.35-.66.15q1.29,6,2.59,12l.59,0c0-2.18.11-4.36,0-6.52A9.75,9.75,0,0,0,479.35,46.54ZM344.59,37a7.12,7.12,0,0,0-8.3,3.09c-.52.79-.44,1.47.32,1.9C339.3,40.28,341.9,38.65,344.59,37Zm-52.4-2.26c-1.8-1.35-3-1.49-4.32-.41A28.67,28.67,0,0,0,283.71,38a49.87,49.87,0,0,0-3.44,5.13l.72.61a6.4,6.4,0,0,1,.73-1.31c2-2.12,3.9-4.25,6-6.26A6.07,6.07,0,0,1,290,35.08,15.33,15.33,0,0,1,292.19,34.72Zm-36.52,55L251,89.16l.41,6.63.59.12Zm70.66,38c-2.92-1.82-4.76-1.67-7.51.62C322.39,130.48,324.46,130.31,326.33,127.67ZM308,91c1.57-3.34,3.33-6.67,1.3-10.83C307.76,84,308.13,87.52,308,91ZM38.39,83.67c-.81-2.71-2.87-3-4.33-3.92-.8-.5-2.1.41-2.24,1.25-.17,1,.49,1.46,1.31,1.64C34.72,83,36.34,83.27,38.39,83.67ZM340,85.56c-1.38,1.59-3.35,8.32-3.59,11.73.73-1.26,1.36-2.2,1.84-3.21a17.27,17.27,0,0,0,1.39-3.68A38.35,38.35,0,0,0,340,85.56Zm12.89,3.29a16.4,16.4,0,0,0,3-10.16c-.52.6-1.31,1.1-1.45,1.75C353.83,83.22,353.39,86,352.89,88.85Zm43.63,28.29.34-.47-6.59-5.33L389,113.1C391.91,114.09,393.57,116.78,396.52,117.14ZM248.76,52.59c.49.66.77,1.09,1.11,1.47.15.17.44.22,1,.48,1-2.88,4-4.55,4.61-7.88-2-.17-2.23,1.47-2.7,2.5C252,50.89,251.2,52.46,248.76,52.59Zm75.8,15.86A17.4,17.4,0,0,0,322,77.19C323.45,74.47,325.47,71.9,324.56,68.45Zm-56.92,55.32c1,3.16,2.53,5.12,5.38,6a2.23,2.23,0,0,0,3-1.09,45.26,45.26,0,0,1-4.47-.81c-1.79-.49-2-1.15-1.48-3.18Zm178.46-12c-.41-1.87-1.23-3.19-2.87-3.72-1.09-.36-1.69.49-2.26,1.33A7.47,7.47,0,0,0,446.1,111.82ZM314.87,127.71c-3.64-1.32-5.17-1-6.85,1.53A10.49,10.49,0,0,0,314.87,127.71Zm102.8-86.92c1.29,2.9,1.83,6.11,4.33,9C421.69,45.79,419.45,43.36,417.67,40.79ZM322.79,93.66c2.55-3.36,2.52-6.74,2.8-10.06-1,2.64-1.84,5.32-2.61,8A13.48,13.48,0,0,0,322.79,93.66ZM43.7,73.22c-3.6-.24-7,.47-8.75,1.72C37.72,75.45,42,74.69,43.7,73.22Zm290.63,52.21c-2.42-1.59-4.42-3.27-7.21-4C330.47,126.06,330.94,126.32,334.33,125.43ZM466.8,64.52c-2,2.89-3.94,5.22-4.7,8.25A68.81,68.81,0,0,0,467.22,66C467.34,65.79,467.06,65.36,466.8,64.52ZM406.8,89l.64.4c1.51-2.28,4.1-4.06,3.11-7.53Zm62.14-18.26-.63-.3-5.05,7.8.66.42C465.32,75.81,468.59,74.21,468.94,70.71Zm-58.25-.57a21.86,21.86,0,0,0-4,8C409.42,75.26,410.75,72.65,410.69,70.14Zm-4,47.33c2.91-.72,6.08-.7,8.35-3C411.86,114.31,409.44,116.35,406.71,117.47ZM281.9,131.76c3,1.89,5,1.5,7-1ZM235.57,72.37h3.89c.34-1.46,0-2.28-1.4-2.37C236.36,69.9,235.87,70.29,235.57,72.37ZM423.32,34.9c-1.88-.79-3.42-1.83-5.76-1.78,1.18,1.12,2,2,2.94,2.77C421.77,37,422,36.85,423.32,34.9ZM273.65,49.45,274,49c-2-1.61-4-3.16-6.94-2.3Zm85.26,72.35-1.72-2-4.47,2.93.18.51Zm-75.06,8.56.14-.49c-3.83-1.57-4.94-1.47-6.91.92ZM459.19,101.1l-5.27-.94C455.6,103.14,457.19,103.41,459.19,101.1Zm-90.76,22.33c2.91,1.2,6.62.83,8.17-.79Zm-11.95.08-9.72,1.92C350.3,126.21,353.43,125.05,356.48,123.51ZM438,90.07l.5.4c.42-.72,1.15-1.42,1.2-2.16.15-2.53.05-5.08.05-7.62-.48,1.11-1,2.42-.62,3.38.65,1.64.06,2.91-.48,4.3C438.38,88.93,438.17,89.5,438,90.07ZM363.7,46.46l.43-.58L360,42.58c-.11,1.08-.38,1.91-.17,2.06C361,45.47,362.11,46.57,363.7,46.46ZM440.38,37c2.95,1.21,2.95,1.21,4.36-.32C442,35,441.81,35,440.38,37ZM429.45,35.8l-.31-.51A14.3,14.3,0,0,0,424.3,38c-.53.53-.53,1,.33,1.47Zm3.53,0c2.22.23,4,.47,5.8.53.32,0,.67-.73,1.17-1.32C437.44,34.56,435.38,34.42,433,35.84Zm-213.75,32,0-.43h-9v.43Zm107.61,61.87c2.18-.31,3.88-.42,5.36-1.65C329.62,126.84,328.75,127.07,326.84,129.75Zm95.34-90c-.43,1.84.41,2.75,1.62,3.83l1.5-2.2Zm-20.92,80.44c-2.4-.07-4.76-1-7.82-.53A14,14,0,0,0,401.26,120.23Zm-60.89-16.42.63.16c.35-1.83.69-3.66,1-5.49l-.63-.13A17.11,17.11,0,0,0,340.37,103.81ZM287.8,38c.79-.29,1.58-.61,2.39-.84s1.56-.31,2.35-.46C290.58,35.75,289,36.06,287.8,38ZM470.43,75.62l-.77-.49c-.76,1.38-1.52,2.77-2.29,4.15l.37.21Zm-87.13-6-.53-.2-1.52,3.91C384,72.65,382.92,70.86,383.3,69.62ZM378.51,36,383,37.14C381.55,36,380.41,35,378.51,36ZM452,38.64l2.53-2.34-.28-.47-3,1.25Zm-37.57,70.7c-1,1.17-1,2-.25,2.62.33.25,1,0,2,0C415.49,110.91,415.05,110.23,414.46,109.34ZM245.05,127c-.38-1.54-.75-3.08-1.13-4.61A3.76,3.76,0,0,0,245.05,127ZM442.24,112.5,437.93,111A4.07,4.07,0,0,0,442.24,112.5ZM327.29,124.05c-1.6-1.53-2-1.45-3.28.45Zm70.22-2,0,.55c1.29.07,2.62.41,3.75-.82ZM364.08,80.31c1.65-2.17,1.65-2.17,1.13-3.59Zm-26.83,3.78c1.47-1.56,1.47-1.56.87-3.42Zm22.46,36c1.25.44,2,1.22,2.73.11a1,1,0,0,0-.15-1C361.32,118.37,360.78,119.22,359.71,120.09Zm8.11-48-.52-.14-.77,2.76a4.51,4.51,0,0,0,1.4-2.14C368,72.4,367.86,72.21,367.82,72.05Zm51.75,32.52a2.82,2.82,0,0,0-2.53-2C417.27,104.17,418.36,104.43,419.57,104.57Zm44.89,8.54-.27-.7-3.13,1,.24.7Zm-97-33.35c1.28-1.26,1.28-1.26.74-3.17C367.87,77.83,367.65,78.79,367.42,79.76ZM422,112c.55,1.13,1.35,1.72,3,.84Zm-29.28,6.51.19-.65-3.27-.73-.15.71Zm1.64-40.38c1.56-1,1.29-1.71.49-2.84C394.68,76.34,394.56,77,394.36,78.17Zm36.39,35.39.24.69,2.46-.68c0-.19-.09-.37-.14-.56Zm18.68-72.72c-2,.37-2,.37-.91,1.62ZM459,33.47l-.2-.83-2.48.72.12.53Zm-113,2-.11.57,2.29.43.11-.56ZM309.88,93h.5l.3-1.87-.52-.07Zm84.71-6.76.51.16.38-2.19-.41-.08ZM365.78,69l.76.11c.19-.82.38-1.64.58-2.45l-.67-.16C366.23,67.32,366,68.15,365.78,69Zm58.86,9h.23l-.12-2.48h-.11ZM409.17,93.7l.38.31,1.14-1.69-.34-.22Zm-130-4.21c1.24-.24,1.07-.95,1-1.6,0-.1-.21-.16-.5-.38C279.47,88.19,279.34,88.77,279.16,89.49Zm8.63,10.74-.49-.23-.53,1.82.42.14Zm73.63,16.46c-1.23-.6-1.57,0-1.91.61-.06.09.06.28.18.69ZM411.26,113l.42.69c.4-.3.81-.59,1.2-.91a1.54,1.54,0,0,0-.23-.39C412.18,112.59,411.72,112.81,411.26,113ZM268.75,133.76l-.14-.31c-.55.28-1.11.55-1.65.85,0,0,0,.26.06.53Zm119.8-19.18-.28.44,1.47.59.15-.34Zm-6.24-35.39-.42-.14-.55,1.65.45.14ZM473.6,41.8l.13-.4-1.22-.54-.22.66Zm-87.85,77.66-.39-.44-1,1.11.26.29Zm85.59-39.2-.54-.3-.51,1.11.35.19Z"/><path class="cls-1" d="M380.41,32.56l-2.69-.32a1.69,1.69,0,0,1,2.63.39Z"/><path class="cls-1" d="M323,115.38a2.74,2.74,0,0,1-3.07,1.77c-4.29-.18-8.63,0-12.76-1.51a2.17,2.17,0,0,1-1.23-1.38,13.14,13.14,0,0,1,1.66,0,34.4,34.4,0,0,1,3.92.63,4.81,4.81,0,0,0,4.63-1.12,10.61,10.61,0,0,1,3.26-1.72c1.48-.5,2.09-.07,2.88,1.58-3.55-.23-3.62-.22-5.86,1.54C318.51,116.38,320.64,115.53,323,115.38Z"/><path class="cls-1" d="M441.36,49.74a6.88,6.88,0,0,1-1.7.17c-2.85-.53-5.7-1.09-8.53-1.72a2.55,2.55,0,0,1-2-2.1,5.91,5.91,0,0,1,1.82-.46c2.1.24,4.19.53,6.26.95.89.18,1.84.38,2.25,1.57C439.64,48.73,440.53,49.08,441.36,49.74Z"/><path class="cls-1" d="M407.85,67.73c-.42,1-.8,2.1-1.28,3.11-.84,1.76-1.72,3.49-2.62,5.22-.59,1.14-.62,1.13-2.45,1.52.32-4.68,2.81-8.38,4.72-12.29.55,2.67-1.85,4.49-2,7.51l3.72-5Z"/><path class="cls-1" d="M374.2,46.87c1.41-1.65,3.34-1.62,5.25-1.34,3.66.53,6.3,2.74,8.78,5.48-1.48-.28-2.78-.5-4.07-.78-.19,0-.33-.35-.49-.54A7,7,0,0,0,377,47.42c-.9.12-1.81.13-2.72.19Z"/><path class="cls-1" d="M139.64,75.5l-2.26.18v-.14h2.22Z"/></svg>