<svg id="Layer_1" data-name="Layer 1" xmlns="http://www.w3.org/2000/svg" viewBox="0 0 559.72 150.92"><defs><style>.cls-1{fill:#f0bb1a;}</style></defs><path class="cls-1" d="M440.31,16.2a5,5,0,0,1,1.8.19c3.46,2,7.15,1.95,11,1.76a16.59,16.59,0,0,1,11.41,3.38c4.17,3.31,8.34,6.68,11.56,11,2.52,3.38,5.42,6.6,7.28,10.33a126,126,0,0,0,6.36,11.22,5.58,5.58,0,0,1,1,3.26c-.67,5.58.49,11,1.47,16.36.9,5,1.11,9.94-.81,14.68-3.18,7.85-7.41,14.95-14.28,20.32-3,2.32-5.89,4.52-9.54,5.41-2.88.69-5.85,1-8.78,1.42-.78.12-1.57.18-2.69.3,1.23,2.38-.16,3.69-1.57,4.92-3.25,2.84-6.35,5.91-9.89,8.33-2.93,2-6.39,3.22-9.64,4.72-1,.45-2.15.5-3.07,1-3,1.67-6.2,2.25-9.49,2.89-4.58.89-9.1,2.13-13.62,3.32a14.15,14.15,0,0,0-4,1.61c-1.31.85-2.18.38-3.1-.46-.32-.31-.49-.8-.84-1.06-.94-.68-2.17-1.11-2.87-2a10.32,10.32,0,0,1-1.14-3.17c-1.7.49-1.77,2.93-3.9,2.88.33-2.39,1.1-4.71.84-6.91s-1.53-4.33-2.44-6.7c1.84-.15,1.92,1.63,3,2.21a6.73,6.73,0,0,0,5.27-3.2,26.51,26.51,0,0,1,8.5-8.32,7.08,7.08,0,0,0-1.46-5.44,35.27,35.27,0,0,1-2.62-4.71l5.29,6.18,2.1-1.82c-.24-.31-.31-.49-.45-.58-1.55-1-3.09-2.13-4.7-3.08a9.58,9.58,0,0,0-2.24-.69c-1.8-2.09-3.59-4.19-5.1-6a33.31,33.31,0,0,0-3.88,3.37c-2.79,3.31-6.92,4.47-10.34,6.75a4.34,4.34,0,0,0-1.87,2.08c-.62,2.39-2.19,4.1-3.65,5.92a14.52,14.52,0,0,0-1.44,1.62c-3.24,5.54-8.47,8.6-13.91,11.48-2.38,1.26-4.57,2.88-6.83,4.35a17.11,17.11,0,0,0-1.76,1.27c-3.59,3.11-8,4.55-12.39,5.86-2.25.67-4.49,1.38-6.77,1.95a12.83,12.83,0,0,1-9.24-.91c-1.53-.77-3.17-1.33-4.68-2.15-1.12-.6-2.16-1.11-2.41-2.88-.18-1.35-1.82-2.52-2.87-3.71-.53-.61-1.25-1.05-1.8-1.64-2.33-2.48-2-5.9,1-7.61,2.26-1.3,4.73-2.24,7.08-3.4,1.69-.83,3.37-1.69,5-2.65,3.78-2.25,7.59-4.45,11.25-6.89a43.76,43.76,0,0,0,5.59-4.7c1.83-1.73,3.42-3.75,6.16-4.14.24,0,.39-.64.71-1.2a7.82,7.82,0,0,0-4.87,1.16c-2.46,1.34-4.91,2.71-7.26,4.22a16.33,16.33,0,0,1-14,2.29,6.15,6.15,0,0,1-4.4-3.61c-1.13-2.66-2.45-5.23-3.72-7.82-.3-.63-.73-1.2-1.24-2-.54.62-1,1-1.3,1.5-4.08,6-9.69,10.2-16,13.47a67,67,0,0,1-8.57,3.27c-2.21.78-4.47,1.45-6.71,2.16-.51.16-1.08.51-1.55.41-1.93-.42-3.25.67-4.67,1.64a72.73,72.73,0,0,1-7,4.52c-2.31,1.21-4.87,1.92-7.28,2.93A77.76,77.76,0,0,1,243,132a14.71,14.71,0,0,0-3.6,1.05,23.94,23.94,0,0,1-9.5,1.52,4.22,4.22,0,0,1-2.93-1.12c-1.84-1.66-4.41-1.79-6.64-2.65a11.44,11.44,0,0,0-1.31-.34c-3.64-.93-4-1.49-4-5.2,0-1.27.23-2.31,1.47-2.92.24-.11.41-.38.65-.49,4.7-2.11,7.91-5.91,11.1-9.74a6.22,6.22,0,0,0,1-1.25,24.79,24.79,0,0,1,6.55-8.53,3.21,3.21,0,0,0,.51-.83A56,56,0,0,1,231.93,97c-2.05-2.61-3.91-5.38-5.81-8.11-1.29-1.85-2.42-3.8-3.77-5.59a14.35,14.35,0,0,1-3.08-8.47,94.33,94.33,0,0,0-1.51-10.53c-2.2-.15-4.07-.28-5.93-.39-5.77-.33-11.54-.71-17.31-1-2.24-.09-4.49.13-6.73.19-2.78.07-5.57.07-8.35.2s-5.57.44-8.36.53q-10.25.36-20.47,0c-5.32-.2-10.66-.28-16,0-8.2.39-16.4.36-24.59.54-6.77.14-13.54.11-20.31.05-4.61,0-9.22-.41-13.83-.39-4.33,0-8.66.34-13,.6-4,.23-7.91.72-11.87.78-3.51.07-7-.3-10.55-.45a6.63,6.63,0,0,0-2.14.07c-1.54.47-2.9.35-3.89-1-.64-.86-.14-3.7.8-4.59,1.27-1.19,3.26-1.67,3.62-3.75a28.92,28.92,0,0,1,4.5-1.49,45.71,45.71,0,0,1,4.83,0c6.66-.36,13.3-1,20-.6,2.76.17,5.57-.41,8.36-.4,5.69,0,11.37.13,17.06.32,3.79.13,7.57.63,11.35.66,4.6,0,9.21-.32,13.81-.33,1.55,0,3.46-1,4.63,1,.11.2.65.22,1,.24l13.23.66c2.43.13,4.86.33,7.29.41,1.63,0,3.34.68,4.81-.84.35-.36,1.6-.06,2.33.22,3.91,1.49,7.93,1.53,12,1.35,3-.13,6.1.11,9.15.18l15.42.36c.31,0,.62-.15.94-.74l-2.92-.5c3.34-.66,6.65-.17,9.93.21a66.53,66.53,0,0,0,10.27.39c3.42-.14,6.86,0,10.57,0,.34-1.26.63-2.35.93-3.44a56.08,56.08,0,0,1,2.2-7.79,17.6,17.6,0,0,1,8.12-8.74,27.53,27.53,0,0,0,11.57-12.18,30.55,30.55,0,0,1,7-8.92,11.5,11.5,0,0,1,8.41-3A62.18,62.18,0,0,0,265.4,12a22.13,22.13,0,0,1,14,2.78,14,14,0,0,0,4,1.55,12.5,12.5,0,0,1,6,2.84,5.28,5.28,0,0,0,5.19,1.54,5.31,5.31,0,0,1,3.12.56,47.48,47.48,0,0,1,11,6.38c1.47,1.18,3.11,2.15,4.79,3.3l3.62-2.68.27.3L316,30l-1.63,1.77,2.73,2.4c3.78-4.48,8.41-7.67,13.17-10.76s10.3-4.51,16.23-6.33c-2.87-1.15-4.75.73-7,.17a17.19,17.19,0,0,1,3.07-.87c5.48-.53,11-1.15,16.46-1.36a26.35,26.35,0,0,1,7.44,1.11,64.65,64.65,0,0,1,13.19,4.79,20,20,0,0,1,2.87,2c2.22,1.69,4.39,3.46,6.64,5.11,4.09,3,8.09,6.1,11,10.36a34.78,34.78,0,0,1,1.71,3.2c1.39-1.39,1.33-3.08,1.67-4.6.54-2.36.89-4.78,2.56-6.7l-.07-.07c-.36,1.7-.73,3.41-1.16,5.44a6.75,6.75,0,0,0,1.14-.76c2-2.52,4.11-5,6-7.6a14,14,0,0,1,6.57-5c3.76-1.43,7.59-2.67,11.39-4l3.29-1.14-.08.05,7.15-1.14ZM303,105.2a5.91,5.91,0,0,0,2.61-2.74l-.65-.45L303,105.25l-2,1.22.46.58ZM398.5,38.88c.22.75.3,1.62,1.58,1.4L398.43,39a3,3,0,0,0-2.3-2.84ZM381.62,91.71c-.68-1.56-.68-1.56-1.72-.37l1.8.28-.52,2.66h2.68v3c2.28-1.49,4-.08,5.85.79.39,1.64-.86,2.19-1.92,2.85-.11.07-.32,0-.55,0l1.15-1.45c-2-2.82-4.38-.72-6.41-.82-1.21-1.43.7-2,.74-3.27L378,96l2.43-3.16c-2-.43-3.35,1.57-5.37.87.94-2.17,4.05-2,4.57-4.81-1.74.61-3.17,1.07-4.56,1.62s-2.8,1.28-4.24,1.81a6.37,6.37,0,0,1-2-.15c3.06-3.09,7.37-3.23,10-6.5-1.75-.2-2.84.57-4,1.2-1.74.94-3.53,1.8-5.29,2.69,1.05-1.11,1.18-3.13,3.19-3.27s3.19-1.79,4.72-2.79c.29-.19.38-.7.71-1.36a7.32,7.32,0,0,0-1.82.13c-2.26.85-4.51,1.75-6.73,2.69-.87.37-1.67.75-2.4-.44A19.62,19.62,0,0,0,366.4,87c-.27,1.94.35,2.55,2.36,2.48h.81c-2.89,1.28-4.08,3.69-4.81,6.63a11.28,11.28,0,0,1-4.4,6.34,6.27,6.27,0,0,0-1.47,1.57c-1.08,1.61-.84,2.73.59,4a6.36,6.36,0,0,0,4.55,1.4c3.88,0,7.76-.21,11.65-.31a14.69,14.69,0,0,0,3.45,0,29.9,29.9,0,0,0,14.49-8.45,8.52,8.52,0,0,0,2.69-5.13c.09-1,.52-1.79,1.53-2,1.34-.21,1.72-1.25,2.11-2.22.68-1.67,1.27-3.38,1.8-5.11a21,21,0,0,0,.47-2.66c-1.69-.73-3.19,1-4.75-.38l4.75-3a10.22,10.22,0,0,0-3,.24c-1,.13-2,.91-3.12-.11,1.56-2.6,4.93-2.13,7-4.33-2.69-.21-4.56,2.3-7.43,1.37,2.13-1.94,4.9-1.94,6.8-3.61-1.5.29-2.89.88-4.33,1.27s-2.64,1.68-4.22,1.33l-.23-.62L399,73c-2.16-.4-3.91.57-5.75,1.17-1.29.42-2.68,1.39-3.83,1.16-2.72-.56-4.68,1-6.86,1.87-2.45,1-2.72,2-1.93,4.65.1.34.12.71.22,1.06,1.47,4.72,3.89,8.7,8.46,11.06.92.48,2.42.78,1.73,2.18s-1.95.44-2.89.09c-1.49-.54-2.91-1.29-4.36-1.94Zm-3.29-69.58,2,1.44.3-.57-2.35-.79a9.49,9.49,0,0,0-5.84-2.5C374.34,20.62,375.85,22.54,378.33,22.13Zm38,88.44c-1.79.25-3.93-.7-5.36,1.62,2.4,1,3.88-.24,5.31-1.67l4.19-1.68-.11-.56a4.23,4.23,0,0,0-1.67-.27C417.44,108.34,416.85,109.44,416.36,110.57Zm66.41-19c-.77-1.15-1.63-.94-2.67-.2a3.23,3.23,0,0,0,2.76.13l-1.44,4.67c2-1.64,3.89-3.24,3.33-6.5ZM344.08,28c-2.44.1-5.06-.71-7.12,1.39a20.36,20.36,0,0,0,5,.19c.88-.09,2.07-.25,2.08-1.64l2.64-.36C345.62,27,344.7,27,344.08,28Zm22.18-10,3.44,1c-1-.94-2.14-1.6-3.51-1-.16-.21-.28-.56-.49-.62a25.75,25.75,0,0,0-12.27-.64c-.06,0-.09.21-.16.38Zm17.28,12.69-.88,1.6c1.78-.16,1.62-.76.82-1.57L381.17,28l-3.86,2.83.23.57Zm51.54,100.74,5.19-2.59c-3.9-.3-7.63-.61-11.26.58a36,36,0,0,0,4,.44c1.07.07,1.93.4,2.12,1.6l-9.19.41,2.76,1.83Zm-14.19-101c-.5-1.34-1.48-.54-2.26-.47-1.11.09-2.08.46-2.33,1.82A4.93,4.93,0,0,0,421,30.32c.24.32.45.89.72.92a9.4,9.4,0,0,0,2.7-.1c3.17-.64,6.32-1.37,9.48-2.09.08,0,.1-.28.26-.81-1.8.12-3.48.11-5.12.36C426.25,29,423.37,28.85,420.89,30.42Zm-70-4.88c1.18-.64,2.38-1.22,3.51-1.92s2.72.18,3.72-1.42c-6.05-.45-11.13,1.65-16.15,4l.16.63,9-2.64c-.07.69-.1,1-.15,1.38l-2.87.14.09.6ZM269.44,24c-3.07.55-6.27.39-9.43,1.78.13,1,.26,2,.43,3.33,6.28-1.78,12.53-2.32,18.45-4.35a32.72,32.72,0,0,0-5.77.69c-2,.38-4,.87-6.05,1.21-1.84.31-3.62,1.44-5.83.66.77-1.38,2-1.46,3.06-1.73,1.3-.34,2.67-.37,4-.67.43-.09.76-.61,1.16-.92l2.54.28,0-.28Zm48.85,21.09a5.69,5.69,0,0,0-1,.79c-1.88,2.44-1.77,5.3-1.56,8.13.09,1.23.62,2.32-.57,3.47-.86.83-.37,2,1,3.25-.17-3.44,1.4-6.17,2.68-9a36.7,36.7,0,0,0,1.73-5.12,6.16,6.16,0,0,0-.05-1.91A3.14,3.14,0,0,0,318.93,46c-.31.53-.45,1.17-.74,1.72a10,10,0,0,1-.91,1.25l-.45-.24c.46-1.25.93-2.49,1.38-3.75.38-.54.75-1.09,1.12-1.63C318.27,43.6,318,44.22,318.29,45.08Zm56.86-14.34.07.07c.07-1.79-.49-2.36-2-1.81s-3.3,1.44-5,2.08c-.82.31-1.64,1.13-2.93.27.75-.49,1.34-.82,1.87-1.23s1.12-1,2.07-1.81c-4.28.89-5.9,3.53-5,7.39,1.16-.49,2.3-1,3.46-1.45a4.46,4.46,0,0,1,1.78-.39,12.94,12.94,0,0,0,7.42-2.5Zm86.74,2.39c2.19,1,4.35.41,6.56-.08-1.65-1.93-1.8-1.94-2.95-.21-1.57-.35-3.14-.72-4.72-1.06s-3.17-.71-4.77-1-3.21-.46-4.82-.68l-4.52-.58.06-.64c5.37-.3,10.74,1.64,16.33.19-1.24-.8-2.24-1.92-3.4-2.13-4.6-.86-9.18-2-13.91-1.95a9.93,9.93,0,0,0-1.63.34l.7.91c-2.38,0-1.84,1.89-2.16,3.34,3.54.79,7.14.81,10.51,2.07-3.68,0-7.32-1-11-.19,8.41,2,16.85,3.7,25.29,5.37a5.56,5.56,0,0,0,1.55-.16,3.56,3.56,0,0,0-1.77-1.1c-1.55-.5-3.11-.94-4.63-1.51-.31-.11-.46-.64-.69-1Zm-19.5,78.79c-2.56-.65-5.23-.86-7.81-1.9l1.47-4.08c-.94.36-1.75.64-2.53,1s-1.26.72-1.93,1c-3.61,1.34-7.2,2.76-10.87,3.91-3.14,1-4.48,3.57-6,6.08-.1.18.06.51.12.89,2.24.82,4.37-.35,6.2-1a18.59,18.59,0,0,1,7.56-1.15c1.26.06,2.63.36,4.23-.61-3.64-1.21-7,1.08-10.4-.2.35-.38.49-.67.68-.7,2.28-.37,4.48-1.22,6.87-.86,1.33.2,2.69.25,4,.32,1.17.06,2.31.19,2.94-1.29.19-.46,1.18-.68,1.84-.82,1.14-.25,2.32-.36,3.45-.54l2.26-.76a12.13,12.13,0,0,0-6.2-1.15Zm9.49-8.13c-.64-.89,0-1.45.49-2.12,1.17-1.75,1.63-6,.94-8.22,0,0-.16-.06-.34-.12a13.81,13.81,0,0,1-.66,2.53,8.36,8.36,0,0,1-1.75,2.62,25.73,25.73,0,0,1-7.12,4.76,14,14,0,0,0-1.47.81,59.24,59.24,0,0,0,8.88.35c.37,0,.73-.46,1.09-.71,1,2-1.07,2.27-2.16,3.46l3.05.33c-1.46.64-2.89-.31-4.25,1.4,2.79.11,5.07.28,7.36.24a30.18,30.18,0,0,0,3.73-.61,4.48,4.48,0,0,0,4.23-4,2.43,2.43,0,0,1,.47-1.24c2.15-2.14,1.47-4.42.35-6.7-1-2-2.07-4-3.13-6-1.69-3.17-3.4-6.33-5.14-9.57-1,1.64-.38,3.39-.52,5-.35,4,1.7,7.92.43,12a.43.43,0,0,0,.07.26c.67,1.82-.44,3.18-1.32,4.48C454.42,103.75,453.34,104.58,451.88,103.79ZM437.82,80.37a19.13,19.13,0,0,1-7.47-2.23,10.41,10.41,0,0,0-2.55-.56,21.26,21.26,0,0,0,5,3.2,2.88,2.88,0,0,1,1.6,1.88h0l2,2.11-.33.61C429.88,83.54,425,79.07,419,76.83L422,79.61c-2-1.11-3.93-2.19-5.88-3.32a1.77,1.77,0,0,0-2.56.17L425.15,83l.33-.46-3.55-3a10.06,10.06,0,0,1,2.2.94c3.41,2.49,6.77,5,10.15,7.57a10.05,10.05,0,0,0,1.21.66l-.39.56-2.45-.3,2.11,2.43-.39.62c-3.26-1.13-6-3.49-9.63-5.11l3.1,3.28-1.12,1c2.36,1.64,4.84,2.79,6.2,5.31-5.9-1.47-10.27-5.83-15.63-8.31,3.46,3.1,7.61,5.27,10.92,8.51l-.27.55c-.86-.33-1.73-.65-2.62-1-1.25-.33-2.12-1.8-3.72-1.17-.28.1-.8-.33-1.18-.57-2.76-1.72-5.52-3.43-8.25-5.2a31.24,31.24,0,0,1-2.56-2.1c2.55-.49,3.67,1,5.07,1.79s3,1.77,4.49,2.66l.33-.54c-1.66-1.19-3.33-2.36-5-3.57-1.09-.81-2.18-1.62-3.18-2.53s-.29-1.49.56-2c-2-3.24-4.14-.18-6.08-.29a20.69,20.69,0,0,0-1.6,9.91c.26,4.35,2.4,7.61,4.95,10.73.56.69,2,1.45,2.56,1.18,1.43-.69,2.53-.16,3.82.13a19,19,0,0,0,3.3.19l.16-.53c-.8-.53-1.57-1.09-2.39-1.57-1.33-.78-2.71-1.46-4-2.27a3,3,0,0,1-1.23-1.36c-.16-.46.16-1.09.26-1.58-1.22-1-3.14-1.1-3.86-3.46,3.4,1,5.34,3.44,8,4.63s5.18,3,8.11,3.94a20.46,20.46,0,0,0-4-4c-2.79-2-5.72-3.79-8.56-5.72-.75-.51-1.88-.77-1.83-2.4,2.3-.06,3.78,1.64,5.58,2.38a44.17,44.17,0,0,1,5.13,3c1.76,1,3.57,1.93,5.35,2.9l.21-.28-1.47-1.92,1.12-.49c1,1.37,2.06,2.73,3.13,4.13-1.74.49-1.76.52-3.27-.38-2.47-1.48-4.91-3-7.39-4.49a16.16,16.16,0,0,0-1.69-.77c3.31,3.34,7.78,5.26,10.35,9.7,4.36-1,8.84-1.82,13.26-2.94a21.71,21.71,0,0,0,5.45-2.28c3.81-2.2,5.91-5.36,5.09-10a4.44,4.44,0,0,1,.56-2.82,2.37,2.37,0,0,0-.71-3.5c-2.66-3.06-10.24-7.58-13.62-7.74.13.33.52.39.82.59,2.73,1.75,5.38,3.63,8.19,5.26a30.8,30.8,0,0,0,4.69,1.82l-.57,1.31-4-1.66.15,1.84a31.68,31.68,0,0,1-8.08-4l1.61-.34-2.19-1.1-.23.31ZM287.39,75.5l1.16-.62.35.51a10.29,10.29,0,0,1-1.49,1.18,49.58,49.58,0,0,0-5.54,2.81c-2.5,1.75-4.69,3.87-3.75,7.45a3.61,3.61,0,0,1,.2,1.06c-.15,2,.22,4.38-.65,6.06-1.2,2.3-2.69,4.68-5.26,6a11.48,11.48,0,0,0-2.27,2c2.08,3.31,5.32,3.7,8.1,4.73a10.33,10.33,0,0,1,2.34-1.5c2.24-.66,4.54-1.1,6.8-1.7a4.94,4.94,0,0,0,4-4.63,8.85,8.85,0,0,0-.29-1.65c5.48-2.28,8-7.24,10.85-11.79a24.32,24.32,0,0,0,4-15.54c-5.9,0-11.57,0-17.24,0a6.57,6.57,0,0,0-1.86.3A18.27,18.27,0,0,0,285,71a42.43,42.43,0,0,0,4.87,1.14c1.46.36,3.12,0,4.89,1.25-3.74.52-7.12-.36-10.18.89l2.83,1.25c-1.75-.76-3.93.53-5.91-1.4l3.38-1.54-2-1.52.13-.65a30.54,30.54,0,0,1,4.35-1c3.14-.29,6.3-.27,9.44-.57,2.87-.26,5.72-.77,8.66-1.19,1.06-1.68-.63-1.81-1.83-2.36l2.64-.46L304,63.61l2.26-.88c-6.89-1.93-13,.26-19.12.52-.17,0-.32.52-.68,1.13L301.6,65c-4.19.43-8.38-.07-12.81.71l1.45.67c-2.46.41-4.82-.33-7,1.14s-3.8,2.79-4.39,5.23c-.54,2.2-1.15,4.46,0,6.78Zm32.94-22c.06-1.48,1.9-2.6.78-4.91-.7,2.06-1.21,3.59-1.91,5.65l1.21-.83c-.25.67-.5,1.34-.76,2-1.78,4.46-3.25,9-1.69,14.16,2.31.29,4.81,1,7.26.8a24.76,24.76,0,0,0,7-1.87c3.91-1.5,7.73-3.26,11.57-4.9a11.23,11.23,0,0,0-6.61-.1c-4.35,1.55-8.9,1.05-13.36,1.42-1.57.14-2.76-.82-3.78-1.78-.67-.64-1.32-1.7.39-2.36a8.56,8.56,0,0,0,8.29,1.33,9.58,9.58,0,0,1,1.6-.29l9.12-1a25.65,25.65,0,0,1,7.73.49l.45,1.74,8.26,1.1L358.07,58c-1.28-1.91-2.67-4-4-6l-4.36,1.09c2,.44,3.82.91,5.4,2.59l-1.25,1.62-.44-.25.18-1.8c-1.91-1.49-4.5.14-6.77-2.34l2.81-1.33c-1.63-.34-2.53-.46-3.38-.72-1.14-.33-1.33-1.27-.34-2a16,16,0,0,1,2.43-1.07l4.2-.77c-.29-.47-.53-1.22-.78-1.22-2.08,0-4.2-.42-6.51.3l3.19,1.74c-.9-.12-1.79-.24-2.69-.34-2.14-.25-2.2-.3-2.84-2.7-2,0-4.08,0-6.15,0a25.84,25.84,0,0,1-4-.41c-.47-.09-.85-.7-1.73-1.48a21.92,21.92,0,0,1,3.28-.78c1.89-.1,3.8,0,5.7,0,.9,0,2.11.31,2.65-.15,1.86-1.57,3.86-.52,5.78-.61a32.86,32.86,0,0,1,3.7.26c.17-2.14.15-2.22-1.6-2.27q-8.53-.27-17.07-.45c-.86,0-1.85-.13-2.35,1.16l10.3.72c-3,.2-5.89.23-8.83.18-1.53,0-3.09-.28-4.39,1.9.3-1.67,0-2.31-1-2.13a2.73,2.73,0,0,0-1.63.81,33.62,33.62,0,0,0-3,4.51,2.61,2.61,0,0,0,0,2.28,2.43,2.43,0,0,1,.33,2.45,23.61,23.61,0,0,0-.27,2.68c-.22,1.47-.49,2.92-.74,4.38l-.45-.07.49-4.9ZM301.4,45.88c-2.56-.54-4.78.9-7.19,1.29-.34.06-.67.58-.9,1-1.15,1.9-2.25,3.83-3.4,5.73a15.81,15.81,0,0,1-1.13,1.46l-.71-.3a11.1,11.1,0,0,1,.53-2.92c1-2.11,2.18-4.12,3.26-6.19A3.75,3.75,0,0,1,294.92,44c1.11-.17,2.21-.41,3.41-.64-.72-2.42-2.47-3.64-3.82-5.16a30.94,30.94,0,0,1-1.85-2.53l7.11,6.76a3.09,3.09,0,0,0,1.45-3.37c0-.38-.94-1.07-1.18-1-1.86.79-1.75-.47-2.05-1.8l5,.72c-1.31-1.48-3-2.36-4.08-3.68s-2.8-1.69-4.24-2.47c-1.84-1-3.52.69-5.22-.22.1-.52.2-1,.37-1.86a20.44,20.44,0,0,0-8,1.12c4.24.95,8,2.57,10.93,5.86-.79-.38-1.6-.74-2.38-1.14-1.44-.75-2.8-1.66-4.29-2.27-4.65-1.92-9.62-2-14.51-2a24.16,24.16,0,0,0-10.57,2l-4.37,2c.19,2.26.37,4.46.56,6.67,0,.27,0,.65.19.77,2.52,2,3.21,5,4.69,7.61a53.32,53.32,0,0,1,3.67,6.48,6.11,6.11,0,0,0,3.68,4c.56-2.39.43-4.4-1-6.26s-2.68-3.55-4-5.31c-.74-1-1.52-1.9-2.26-2.86-.37-.47-1.05-1-1-1.44.34-1.94-.73-3.49-1.24-5.18-.61-2-.59-2.15,1.49-2.91,1.35,3.08,2.61,6.19,4.08,9.2.48,1,1.79,1.6,2.18,2.59,1.13,2.92,3.57,4.81,5.35,7.21a4.46,4.46,0,0,0,1.91,1.44c2.37.89,4.78,1.65,7.18,2.42a3.64,3.64,0,0,0,3.74-.77A6.8,6.8,0,0,1,288.3,57c.59-.18,1.26-.16,1.83-.39,2.32-.92,4.6-2,6.93-2.84,1.85-.7,3.81-1.12,5.62-1.9.8-.35,1.89-1.27,1.91-1.95a12.24,12.24,0,0,0-1.68-6.65c-1.44,1.1-1.44,1.1-1.58,2.64Zm176.19-1.29c-2.7-1-5.37-2.12-8.11-3s-5.57-1.56-8.32-2.43-5.6-.53-8-2.18c7.13.13,13.48,4.06,20.62,4.29-.22-3.27-.35-3.45-3.37-3.21a15.51,15.51,0,0,1-5.34-.3c-4.7-1.28-9.43-2.46-14.19-3.5-2.71-.59-5.47-1.18-8.22-.66-2.08,2.6-2.17,5.47-1.42,8.39-1.2.61-1.72,0-2.1-.74a10.61,10.61,0,0,1-.95-2.23,6.75,6.75,0,0,1-.05-2.33,19.09,19.09,0,0,1,.76-2.57l-3.14.5c-.79,4.56,2.23,7.19,3.92,10.26,1-.15,1.9-.59,2.28-.3a55.27,55.27,0,0,1,4.32,3.93c.75.72,1.28,1.86,2.15,2.21a17.68,17.68,0,0,1,9,8.51c.11.22.38.36.54.51,2.7-.21,2.95,0,3.48,2.22.69,2.84,1.19,5.88,4.54,7,.13,0,.22.25.3.4,1.08,2.16,2.95,2.3,5.13,2.44s4.14-.93,6.25-1l-.25-2.4a28.72,28.72,0,0,1,9.5.55V66.69c-3.74-1.08-7.31-2.38-11.24-1.82L477.29,66c-3.47-.53-3.47-.53-3.57-2.33,2.09-.57,4.09-.09,6.12.41,1,.25,2.3,1.09,3-.59l3.48,2c.24-3.32-.09-3.79-2.79-4.35-1.4-.28-2.78-.66-4.19-.89a22.77,22.77,0,0,0-2.74-.16l-.29.67,1.49,1.05c-1.31-.25-2.59-.54-3.11-2.48a13.41,13.41,0,0,1,2.4-.19c1.67.19,3.32.61,5,.74a9,9,0,0,0,2.45-.48l-.07.05c1.08-.68,1.26-1.31.39-1.78a27.56,27.56,0,0,0-3.51-1.39c-1.13-.41-2.27-.77-3.4-1.16l.13-.49,4.62,1c1.43-2.15.9-3.9-1.43-4.46-3-.7-6-1.25-9-1.77-.54-.1-1.15.32-1.74.34a19.68,19.68,0,0,1-3.6-.11c-.45-.06-.83-.68-1.25-1l.21-.56c4.65-.31,9.12,1.83,13.83,1.41a7.75,7.75,0,0,0-2-1.29,45.5,45.5,0,0,0-12.09-3.81c-.82-.14-1.73-.25-2.08-1.53,5.52.54,10.49,2.61,15.82,3.28l-1.82-1.52c-.08-1.79-.2-1.92-2.22-2ZM241.3,75.22l-3.06,2,.25.41,4.07-2.08-1.34-.25a14.63,14.63,0,0,1,2.52-1.47c2.46-.85,5-1.58,7.45-2.31.87-.25,1.77-.37,2.65-.54l.2.68c-2.46,1-4.95,1.93-7.38,3s-5.12,2.27-7.61,3.55c-2.3,1.19-4.74,2.19-6.7,4,4.58-.36,8.43-3.36,13.11-3.3C242.53,81,238.71,81.46,235.3,84l5.13-.62.18.62-5.26,2.74.13.42,4.15-.39.14.67a21.39,21.39,0,0,0-3.84,1.69,14.87,14.87,0,0,0-2.4,2.8l.27.29,2.9-1.17.22.42-1.48,1.77c3.38,1.9,6.92,2.39,10.53,3.08,2-3.4,4.19-6.66,8.57-7.59a33.77,33.77,0,0,0-7.44,12.29c.78,0,1.4,0,2,0a35.72,35.72,0,0,0,10.74-2.47c.57-.25,1.19-.39,1.79-.59,2.27-.75,4.56-1.47,6.81-2.28a1.85,1.85,0,0,0,1.2-2.59c-.83-3-3.09-4.32-5.72-5.2a9.15,9.15,0,0,1-5.05-3.56,8.17,8.17,0,0,1,.68-10.41c1.36-1.59,3.29-2.7,4-4.83,0-.08.33-.06.5-.08,1.67,2.14,1.36,4.07-1.13,5.83a5.35,5.35,0,0,0-2.34,2.84c-1.05,3.64.74,6.65,4.7,7.79A9.28,9.28,0,0,1,272,92.81c.21.91.45,1.82.75,3,1.79-1.73,3.36-3.14,3.37-5.43,0-1.88-.19-3.77-.28-5.66a4.8,4.8,0,0,0-2-3.65,8.78,8.78,0,0,1-2.36-3.19,9.69,9.69,0,0,0-2-3.38A6.74,6.74,0,0,1,267.71,71a34.1,34.1,0,0,1-.08-5.54,10,10,0,0,0-2.91-.33c-3.8.8-7.35-.49-10.9-1.31a8.79,8.79,0,0,0-6.77.79,11.83,11.83,0,0,1-7.33,1.28,4.82,4.82,0,0,0-2.54.48c-1.67.87-3.15,2.09-4.84,2.9s-1.75,1.79-1.21,3.62l12.5-5.72-.55,1.24,2.22.8a40.31,40.31,0,0,1-10.48,4.68l5.65-3.07a21.6,21.6,0,0,0-4.81,1.45c-2,.74-4,1.38-6,2.16-.32.13-.45.73-.67,1.12a5.72,5.72,0,0,0,2.67-.59c1.07-.41,2.17-.76,3.25-1.14-1.14.69-2.27,1.4-3.43,2a2.75,2.75,0,0,0-1.58,2.34l9.4-4-.07-.06c-.23,1.35-1.5,1.34-2.4,1.8-1.7.86-3.41,1.69-5.11,2.53l.19.38ZM426.7,52.47c4.45-.88,9.14.41,13.74-1.62L438,49.6l1.42-.63-1.73-2.15-4.56.71-.11-.45,2.57-.95a4,4,0,0,0-2.48-.73c-2.8.13-5.59.35-8.38.52-3.34.2-6.67.42-10,.56-.92,0-2,.15-2.37-1.43a6.15,6.15,0,0,1,1.81-.34,68.11,68.11,0,0,0,19.07-.8,6.17,6.17,0,0,0,1.66-.93c-.36-.52-.54-1.13-.86-1.2-1.53-.38-3.1-.62-4.67-.92,1.35-.57,3,.22,4.22-1.06-4.52,0-9,.86-13.46,1.05,3.37-.7,6.75-1.28,10.1-2a10.81,10.81,0,0,0,2.36-1.12l-.19-.53-9.57.62v.31l1.56.56c-1.23.21-2.19.41-3.16.53-2.87.34-5.74.67-8.62.95-.35,0-.72-.32-1.38-.63.81-.67,1.37-1.15,2.06-1.73l-1.58-1.26c-.7,1.59-1.29,2.94-2,4.6h6.62v.32l-6.78.86,1.63.79-2.46.31c-2.46,2.91-1.46,6.09-1.07,9.29L406,52.19c.25,2.4.56,4.61.67,6.83s0,4.59,0,7a2.93,2.93,0,0,1,2.81,1.82c1.69,3.49,3.84,4.13,7.61,2.51,1.14,1.41,2.75,1.33,4.37,1,2.82-.59,5.62-1.25,8.44-1.85a14.59,14.59,0,0,0,3.17-.59c3.45-1.66,6.86-1.13,10.26-.05a3,3,0,0,1,1.82,1.39c.7,2,2.43,2.08,4.09,2.83,1.25-4.68-2.7-4.75-5.23-6.16,1.28-1.33.69-2.56.34-3.74-2-.59-4.1.41-6-1.23l3.78-2c-3.11-1.67-6.29-.63-8.74-2.37.6-1.39,1.77-1.31,2.8-1.47s2.18-.27,3.27-.4l0-.64c-1.15,0-2.3,0-3.44,0-2.35-.13-4.69-.3-7-.49A2.15,2.15,0,0,1,426.7,52.47ZM322.25,90.9c.88,2.31,3,3,4.92,4,2.07,1.09,4.19,2.1,6.24,3.23,4.24,2.34,8.47,3.46,13,.71,1.3-.78,2.42-1.33,2.57-3.08a7.14,7.14,0,0,1,1.19-2.67c.84-1.48,1.76-2.92,3-4.91l-2.78-1.16L356,83l-.79-2.62A46.14,46.14,0,0,0,350.55,79c-1.55-.29-3.51.27-4.67-.5-1.6-1.06-3.45.82-4.93-1.06l3.76-1.35-.13-.5c-3.09.64-6.17,1.26-9.24,1.94-.92.21-1.76.52-2.38-1,4.5-1.58,9.16-2.36,13.69-3.67a2,2,0,0,0-1-.12c-5.87,1-11.75,2-17.62,2.92a22.05,22.05,0,0,1-3.24.3c-.42,0-.85-.34-1.67-.71,3.55-1.54,7-1,10.17-2-3,.12-6.06.38-9.08.74a33.16,33.16,0,0,0-5.05.89c-2.26.62-2.79,2.64-1.44,4.58a3.48,3.48,0,0,1,.76,2.1,5.64,5.64,0,0,0,1.23,4.17c.71,1,2.23,2.21.7,3.87-.21.23.37,1.2.6,1.84Zm70.4-53.81c-1.35-.77-2.11-1.58-2.8-1.53a37,37,0,0,0-5.26,1c-.37.08-.69.46-1.06.53a18.11,18.11,0,0,0-2.81.43,94.08,94.08,0,0,0-17.59,8.92,11.5,11.5,0,0,1-4.52,2.28c-1.95.34-2.38,1.53-1.55,3.44a39.14,39.14,0,0,0,2.28,4.29c.46.75,1.33,1.3,1.65,2.08a8.58,8.58,0,0,0,4.63,4.72c3.87,1.69,7.87,3.13,11.89,4.44a3.53,3.53,0,0,0,4.1-1.23,26.28,26.28,0,0,1,3.44-3c2.74-2.38,4.91-5,4.55-9a9.46,9.46,0,0,1,.7-2.83,1,1,0,0,0-.06-.43l-2-.86,3.25-2.48L389,47c1.55-1.38,3.76-1.22,4.63-3.37-4.83,0-8.24,3.82-12.78,4.22a3.64,3.64,0,0,1,1.52-1.34c2.76-1.32,5.55-2.61,8.32-3.92a6.69,6.69,0,0,0,3.31-3c-3.41-1.63-5.94,2-8.54,1.11a26.35,26.35,0,0,1-3,2c-4.62,2.21-9.69,3.42-14.08,6.18-.41.26-1.08.13-1.63.17a2,2,0,0,1,.92-1.42c2.65-1.32,5.31-2.64,8-3.85,4.23-1.9,8.21-4.4,12.95-5C389.83,38.67,390.9,37.88,392.65,37.09ZM233.22,61.73a11,11,0,0,0,6.14.77c3.45-.44,7,.07,10.34-1.43a3,3,0,0,1,.8-.1c2.7-.44,5.08.88,7.58,1.46a23,23,0,0,0,8.57.18c-.27-.81-.31-1.82-.74-2-2.07-1-2.31-3.13-3.23-4.8-1.14-2.05-2.14-4.16-3.94-5.75a7.82,7.82,0,0,1-2.63-4.28c-.31-1.46-1.21-1.87-2.6-1.59-3.45.68-6.91,1.33-10.36,2-.36.07-.66.42-1,.64l.11.47h5c-1.88,2.23-4.78.77-6.8,2.39l2.19,1.43L236,52.8l.84,1.61C233.82,56,234.17,59.08,233.22,61.73ZM464.07,82.25l-.06-.86c3.3.13,6.59.31,9.88.37s6.69.39,10-.53c-8-2.35-16.28-2.28-24.79-2.45a15.34,15.34,0,0,0,.69,2.91c.86,1.88,1.94,3.66,2.82,5.53,2,4.33,5.68,7.9,5.74,13.15,0,1.31.23,2.44-.77,3.47a1.88,1.88,0,0,0-.31,2.62c3.14-.49,5.58-2.26,8.23-3.58,3-1.49,3.91-4.35,4.92-7.11a8.47,8.47,0,0,0-.08-2.9l-1.54-1.31A3.14,3.14,0,0,1,481.64,90a2.13,2.13,0,0,0,2.12-2.28c-1.38-.13-2.69-.29-4-.36-2.55-.14-2.55-.11-3.4-1.26,2.5-1,5.33.17,7.72-1.29a25.11,25.11,0,0,0-3.43-.26c-.8,0-2,0-2.29-.5-1-1.43-2.32-1.15-3.63-1.2-1.89-.06-3.78,0-5.67-.12C467.39,82.6,465.73,82.4,464.07,82.25ZM125.53,61.73c-4.71-2.17-9.37-3.82-14.44-3.86-1.61,0-3.22-.27-4.83-.43-6.45-.67-12.87-1.84-19.4-.81a7.62,7.62,0,0,1-2.38-.32,14.11,14.11,0,0,0-2.08-.4c-2.35,0-4.7-.06-7.05,0-2.61.08-5.21.27-7.82.42-2.87.17-5.74.28-8.6.53-5.46.49-10.93,1.06-16.39,1.61-.74.07-1.46.23-2.68.43,5.46,2.87,6.55,2.89,10.87,3,9.76.19,19.43-2,29.21-1,1.88.19,3.77.26,5.67.32q9.72.33,19.46.61c1.25,0,2.51,0,3.77,0,4.86.06,9.7-1.3,14.57-.06A8.82,8.82,0,0,0,125.53,61.73Zm241.91,59.63-.12.69c-6.68,1.67-13.71,1.33-20.87,3,2.34,1,4.51-.16,6.86,1.29a14.69,14.69,0,0,1-2,.57c-2.25.22-4.5.37-6.75.59-1.53.15-3.25-.27-4.21,1.63-.22.44-1.29.51-2,.62-1.51.24-3,.4-4.57.6l-.43,1.47c-1.89.18-3.68.31-5.47.53s-3.62.41-5.16,2.57c1.41-.13,2.27-.29,3.13-.29,2.5,0,5.06-.31,6.73,2.37a3.29,3.29,0,0,0,2.58,1.07c2.32-.13,4.8-.15,6.91-1,4-1.59,8.33-2.15,12.15-4.33,3.34-1.92,7-3.31,10.45-5,2.95-1.45,3.93-4.13,4.49-7.34l-3,.13Zm-115.3-2.14.05.44a17,17,0,0,0-3.43,0,17.29,17.29,0,0,0-3,1.32,3,3,0,0,1-.8.07c-1.35.12-2.7.25-4,.4-.44,0-1.15,0-1.26.3-1,2.26-3.4,2.44-5.23,3.44a2,2,0,0,1-1.46.3c-1.64-.7-2.12.37-2.85,1.54,2.52,1.09,4.76-2.62,7-.25-.34,3.19-3.28,3.26-5.14,4.75a5.61,5.61,0,0,0,2.52,0c1.65-.43,3.28-.94,4.9-1.47,3.33-1.1,6.65-2.2,10-3.35,4.84-1.69,9.62-3.64,14.84-3.71,4.89-.07,8-3.6,11.81-5.86a14,14,0,0,0-7.43-.16l1.3,1.2h-22v.37ZM313,66.38c-3.3-.51-3.09-.47-3.61,2.15-.91,4.65-.84,9.53-3.26,13.84a3.49,3.49,0,0,0-.42,1.82,6,6,0,0,1-1.83,4.36c-.62.74-1.5,1.37-.93,2.58.12.24-.08.73-.28,1-1.23,1.65-2.43,3.33-3.77,4.88a26.44,26.44,0,0,1-2.76,2.45c.92,2,.71,2.54-1.13,2.36a9.86,9.86,0,0,0-6.09,1.71,14.7,14.7,0,0,1-2.21,1c-1.82.65-3.67,1.23-5.58,1.87.68,1.24,1.45.93,2.24.68a37.09,37.09,0,0,1,4.62-1.4,32.56,32.56,0,0,0,13.76-5.94,21.75,21.75,0,0,0,7.4-10.09A51.61,51.61,0,0,0,313,73.48C313.14,71.17,313,68.85,313,66.38Zm120.17,59.41,10.09.78c.06,0,.57-.42,1-.83s.84-.83,1.27-1.25l-.2-.48-18.08,1.18v.43l2,.36c-1.82.08-3.73,1.09-5.92-.41,3.8-2.24,7.68-.67,11.19-1.67l-.66-1.66,4.47-.51c-.81-.09-2,.13-2.73-.35-2.32-1.57-4.62-.67-6.71.05a76.39,76.39,0,0,0-8.25,3.88c-.11,0-.14.28-.2.42l1.3,1.18a10,10,0,0,1-5.41,3.38c-3.3.77-6.57,1.63-10.28,2.56a11.06,11.06,0,0,1,1.29.83c.46.45.88.95,1.31,1.43a9.91,9.91,0,0,1-1.41,1c-.76.38-1.57.64-2.37,1v.6a17.8,17.8,0,0,0,2.41.78,4.82,4.82,0,0,0,1.89-.08q8-1.8,16.07-3.68a6.06,6.06,0,0,0,1.53-.91c-1.23-.68-2.57-.59-3.59-1.12a14,14,0,0,1-2.87-2.74c1.91-1.4,4.15-1,6.19-1.32,2.22-.4,4.46-.79,6.7-1s4.26-.08,6.39-.11C437.71,125.87,435.42,126.35,433.21,125.79Zm-175-16.86c-4.15-.2-7.67-.27-11.17-.57a15,15,0,0,0-7.79,1.29,36,36,0,0,0-17,15.24c-.07.12,0,.34.09.67a4.06,4.06,0,0,0,3.8.06c2.71-1.41,5.35-2.88,6.92-5.79a34.91,34.91,0,0,1,3.73-4.91,2.11,2.11,0,0,1,.93-.48c1.68-.64,3.39-1.2,5-1.9a14.25,14.25,0,0,1,6-1.24,22.33,22.33,0,0,0,5.35-.45A20.86,20.86,0,0,0,258.16,108.93ZM241.28,26.27c2.55-1.41,4.61-2.71,6.79-3.72,3.11-1.44,6.3-2.68,9.47-4a34,34,0,0,1,13.51-2.3c2.46,0,4.92-.08,7.38-.12l.06-.69a20.3,20.3,0,0,0-10.71-2.4c-3.87.19-7.73.53-11.6.82a12.15,12.15,0,0,0-6.13,1.79A24.92,24.92,0,0,0,241.28,26.27Zm123.4-2c-2.88.18-5.3.27-7.7.5-1.47.13-1.94.8-1.32,2.17a4.46,4.46,0,0,1,0,2.84,30.87,30.87,0,0,0-.14,4.2c0,.25.11.54,0,.76-1.07,2.75-.49,5.64-.64,8.46a27.17,27.17,0,0,0,.28,3.43c2.8-.72,4.4-2.43,4.74-5,.68-5.36,1.71-10.61,4.12-15.51A16.65,16.65,0,0,0,364.68,24.31ZM284.22,62,272.5,58.16c.07,2.73-.13,5.11-1.52,7.41-1.13,1.88-.79,4.25.1,6.28.78,1.76,2.79,1.35,4.23,2,.14.06.34,0,.65,0a13.51,13.51,0,0,1,6.66-9C283.49,64.32,284.54,63.66,284.22,62Zm28.59-30.22C308.25,28.59,304.2,25,299,23.08a13.46,13.46,0,0,0-2.54-.89,2.46,2.46,0,0,0-1.93.38c-.63.71.21,1.17.7,1.71,1.82,2,3.62,4,5.32,6.07a12.81,12.81,0,0,0,3.77,3.36,13.64,13.64,0,0,1,3.2,3.19c.58.67.91,1.56,1.49,2.24a13.05,13.05,0,0,1,2.79,6.9c.15,1.08.34,2.16.5,3.24,1.18-1.85,1.77-3.62.33-5.48a11,11,0,0,1-1.24-2.39,39.42,39.42,0,0,1-1.86-4.76,13.53,13.53,0,0,0-5.48-7.59c3.45.59,4.81,3.36,6.37,6.24Zm13.12,94.42a8.23,8.23,0,0,0,5.19-.46,13.7,13.7,0,0,1,2.81-1c3.09-.8,6.45-.91,8.73-3.66.27-.32.81-.39,1.18-.64,1-.66,1.91-1.37,2.87-2s2-1.31,3-2l-.23-.6c-3.63.54-7.42.61-10.85,1.76-3.71,1.23-7.09,3.45-10.59,5.29A3.79,3.79,0,0,0,325.93,126.24Zm16-20.66c-4.05-.5-7.87-.84-11.65-1.47s-6.84-3.21-10.91-4.52a35.71,35.71,0,0,0,4.41,8.42,2.57,2.57,0,0,0,1.32.87,18.64,18.64,0,0,0,7.72.82C336.21,109.24,338.92,107.33,341.89,105.58Zm60.6-46.78c-.28-3.69-1.53-6.73-3-10.1l-6,2.54c-.67,2.85-.91,5.63-2,8s-3.05,4.14-4.62,6.18a3.66,3.66,0,0,0,2.1-.81c1-.89,1.91-1.92,2.84-2.89A9.46,9.46,0,0,1,400,58.58C400.71,58.66,401.42,58.71,402.49,58.8ZM321.2,139.15c3.69,2.69,7.12,4.6,11,4.48,7-.21,13.34-2.82,19.51-5.88a5.25,5.25,0,0,0,1.14-1.12,3.55,3.55,0,0,0-1.75.18c-3.44,1-6.86,2.17-10.34,3.07a22.9,22.9,0,0,1-10.7-.06,2.08,2.08,0,0,1-1.13-1c-1-1.67-1.66-2.06-3.37-1.5C324.33,137.77,323.12,138.36,321.2,139.15Zm30.32-40.51.33.59c2.4-1.31,4.89-2.47,7.17-4a5.6,5.6,0,0,0,2.77-4.41,18.87,18.87,0,0,1,.85-4.48,7,7,0,0,0-.08-4.42c-2.14,2.31-4.25,4.37-6.1,6.64-1.63,2-3,4.24-4.43,6.39-.1.16,0,.48.05.74H355C353.51,97,352.51,97.8,351.52,98.64Zm-37.75-9.37A37.84,37.84,0,0,0,307.83,100a12.15,12.15,0,0,1-4.93,6.83c-2.7,1.79-5.58,3.31-8.37,5-.86.5-1.7,1-2.55,1.57a1.34,1.34,0,0,0,1.21.11,42.24,42.24,0,0,0,17.5-11.36,42.53,42.53,0,0,0,4-5.43,2.27,2.27,0,0,0,.5-1.48C314.85,93.34,314.34,91.55,313.77,89.27ZM232,36.51c-8.56,3.16-13.16,13.05-12.65,21.67,2,0,1.95,0,2.3-1.65,1.06-4.94,1.93-9.93,6-13.6a24.09,24.09,0,0,0,3-3.85A27,27,0,0,0,232,36.51ZM452.72,75.25c-2.19.92-2.28,1-1.92,2.58s.49,3.18,2.39,4.37a24.82,24.82,0,0,0,.88-3.7,27,27,0,0,0-.25-4c1.95-.17,3.1-1.52,3.53-3.58.37-1.74,1.55-3.34,1.2-5.19l-6.31,1.74c0,1.26-.08,2.6,0,3.94S450.76,74,452.72,75.25Zm-22.54,45c2,.53,3.67-.7,5.48-.91a16.78,16.78,0,0,1,5.62-.2c1.71.38,3.6-.41,5.61.39l-1.37.93,2.08,2.25a27.38,27.38,0,0,0,3.41-2.47,2.71,2.71,0,0,0,.58-2.18c-.08-.4-1-.84-1.66-.9-2.6-.29-5.22-.44-7.83-.63-2.44-.19-4.83-.18-7,1.28a10.92,10.92,0,0,1-4.64,1.84C430.37,119.65,430.31,119.93,430.18,120.24Zm-71-59.37a7.7,7.7,0,0,0,.63,7c.83,1.48,1.46,3.08,2.23,4.6.49,1,1.08,1.91,1.62,2.87.44-3.32,2.6-5.52,4.28-8.39C364.2,65.94,361.21,64.39,359.16,60.87Zm83.29-6c-1.87,2.12-4,1.59-6.1,2.39,1.25.28,2,.44,2.81.64.95.24,2.18.25,2.75.87s.55,1.87.79,2.89c2.21.9,2.14-1.78,3.52-2.12-.55-3.45-2.8-5.55-4.81-7.8-3.78,1.1-7.58.8-11.34,1a8.2,8.2,0,0,0-1.6.54C433.12,54.91,437.66,53.61,442.45,54.86ZM402.27,130.1l-.17-.55c1.42-.44,2.84-.89,4.26-1.32,2.82-.86,2.82-.86,3.92-2.36-3.29,1-6.45,2-9.58,3-.4.14-.65.76-1.05,1.26l1.41,1.65c3.54-.69,6.6-1.31,9.67-1.88,1.86-.34,3.73-.58,5.6-.89a8.12,8.12,0,0,0,3.65-1.82c-5.21-1.25-6.69-1-10.7.88A18.64,18.64,0,0,1,402.27,130.1Zm-69.07-92c6.45.23,12.82.64,19.12-.39.29-2.38.19-2.63-1.79-2.58-4.15.12-8.29.49-12.44.49C335.93,35.62,334.79,37.14,333.2,38.1Zm-27.88,23V58.68a4.55,4.55,0,0,0-.79-.26,28.88,28.88,0,0,0-13.82.65,4.09,4.09,0,0,0-2.34,2h16.95Zm79.07-27.74c-6,.15-19.49,7.12-22.55,12C366.43,43,370.49,41,374.52,39c3.19-1.62,6.35-3.31,9.52-5C384.21,33.91,384.26,33.58,384.39,33.32Zm-151.34,5c1.74-.55,8.79-5.33,9.56-6.36a2.13,2.13,0,0,0,.27-.46c1-2.77,3-4.63,5.3-6.29a10.85,10.85,0,0,0,1.09-1.12C243.71,25.87,235.21,33.35,233.05,38.28Zm214,15c.6.94,1.32,1.55,1.28,2.1-.22,3,1.91,4.86,3.23,7.08,1.51,2.54,3.58,2.52,5.62,0C454.91,58.58,451.42,55.87,447,53.32ZM356.68,73.54l.19.67-2.47,1.44,1.76.45L354,77.4l3.07.78c.12.89.19,1.69.36,2.46.09.39.36,1,.57,1a1.81,1.81,0,0,0,1.35-.5,4,4,0,0,0,.63-1.71,10,10,0,0,0-1.93-8l-10.36,2.35.11.55Zm-34.6,50.66a14.31,14.31,0,0,0-5.84,3,3.43,3.43,0,0,0,0,5.39,19.8,19.8,0,0,0,2.32,1.49c.39-1.38.45-2.74,1.12-3.64a11.23,11.23,0,0,1,2.8-2.15C322.32,126.71,322.21,125.53,322.08,124.2Zm-76.42-19.3c.28-.38.37-.46.37-.53s-.1-.14-.17-.17a5.68,5.68,0,0,0-4.93-.08,3.2,3.2,0,0,1-2.05.42c-.67-.19-1.2-.91-1.91-1.49-2.37,2.17-5.08,4.08-5.82,7.82C236.21,108.63,240.5,105.32,245.66,104.9Zm-5.15,11.72.12.62c9.53-.31,19.06-.68,28.56-1.71a22,22,0,0,0-3.88-.21q-7,.11-14,.24A5,5,0,0,1,248,115c-1.41-1-3.11-.47-4.66.1.28,1.86-1.1.93-1.84,1.12A5.38,5.38,0,0,0,240.51,116.62ZM403.09,62c-5.67-.87-7.87.14-11.32,3.88a8.28,8.28,0,0,1-4.4,2.43c-.58.14-1.14.31-1.71.46l.14.57a53,53,0,0,0,6.28-1.61c2.92-1.11,5.71-2.58,8.6-3.8a7.61,7.61,0,0,1,2.21-.13c.13,0,.26-.18.47-.34ZM236.15,78.52c-3.18.33-5.77,2.51-9.18,2.36l2.28-2.77-3.31.37c.47-1.85,1-3.52,1.29-5.23s0-2.06-2.3-2.3c-.5,4.43-.25,8.7,2.26,12.73ZM378.39,33.13v-.36a3.27,3.27,0,0,0-1,0c-4.19,1.37-8.4,2.69-12.54,4.21-2.13.78-2.36,1.58-2.06,4.43ZM332.63,71.25l.16.59,24.48-1.68c.15-.8.12-1.53-.91-1.55a37.85,37.85,0,0,0-4.52.07c-3.41.33-6.81.71-10.21,1.17C338.62,70.25,335.63,70.78,332.63,71.25Zm74-1.64v9.94a10.34,10.34,0,0,0,5.3-5.91Zm-119.74,43,.36.5c5.8-1,9.83-4.83,13.76-8.76-4.58,1-8.82,2.53-11.09,7ZM366.19,82c3.63-1.11,7.17-3.27,8.8-5.36-1.25.59-2.29,1.12-3.37,1.56s-1.87,1.37-3.25.51c1.74-2.19,5-1.72,6.65-4.39-3.09-.52-5,2.74-8,1.48C366.23,77.84,366.34,79.78,366.19,82ZM353,67c-2.36-1.84-4.75-1-6.79-.79a25.47,25.47,0,0,0-9.89,3.46C338.65,69.87,350.43,68,353,67ZM266.4,22.17l.07.41.8.09c4,.44,8.05-1.15,12.09-.11a.9.9,0,0,0,.53-.07l4.78-1.9a3.54,3.54,0,0,0-3.46-1.11C276.26,20.33,271.33,21.26,266.4,22.17Zm67.41,21.16c6.09,1.62,12.27.75,18.37,1.33.43-1.7-.57-1.72-1.48-1.72q-7.44,0-14.86.15A20,20,0,0,0,333.81,43.33ZM437.49,70.69c-4.24,0-9.73,1.31-11.9,2.68,2.1,1.43,4.19,2.56,6.65,1C433.87,73.32,435.42,72.15,437.49,70.69ZM224.41,60.45c.39,2.59.63,4.6,1.06,6.58.09.42.86.86,1.37.94.3,0,.88-.54,1-1,.39-1,.61-2.06.91-3.09.45-1.51.24-2.14-1.21-2.74A22,22,0,0,0,224.41,60.45ZM399,47.8c-1.17-2.58-2.2-4.87-3.35-7.39l-1.9,1.43,1.41,1.64a5.78,5.78,0,0,0,.06,5.68ZM222.2,79.85c0-2.25-.1-4.26,0-6.26.14-2.53.26-5-1.66-7l1.84-1.67-3.16-.47c.18,1.06.28,1.75.42,2.44.58,2.73,1.32,5.42,1,8.28A6,6,0,0,0,222.2,79.85Zm0,41.22-.51-.41c-1,.55-2,1.13-3.07,1.63-1.94.91-2.36,2.47-2.11,4.44s1.15,2.63,3.45,2.29a3.15,3.15,0,0,0-.2-1c-1.22-2.13-1.22-2.12.25-4C220.76,123,221.47,122,222.2,121.07ZM410.85,80.48c1.89,1.15,3.73,2.44,5.72,3.45s3.71,2.75,6.14,3A29.65,29.65,0,0,0,419,83.63C417,82.19,415,80.8,413,79.43,411.86,78.62,411.22,79.19,410.85,80.48ZM234.69,85.71c-1.57-.32-2.77,1.37-4.21,0,1.17-.81,2.24-1.56,3.31-2.32l-.27-.41-5.17,2.34c.6,2.3,1.07,4.45,3.21,5.75l1.75-1.89-2.12-.84ZM345,123.53l.17.56,17.93-2.19a51.23,51.23,0,0,0-14.32.43A25.1,25.1,0,0,0,345,123.53ZM230.42,45.21c3.39-.7,7.31-.08,9.49-3.78C236.56,42.19,232.79,41.85,230.42,45.21ZM314,43.68c2.93-4.39,3.3-5.45,2.76-7.68l-5.07,3.52Zm-58.5,70h25.27C272.35,112.63,263.93,113.24,255.51,113.69Zm100.73-9.48a8.08,8.08,0,0,1,3.88-4.93c.38-.23.48-.93,1-2-2.92,1.65-5.27,2.91-7.53,4.31a2,2,0,0,0-.5,1.63c0,.31.76.62,1.22.76A11.8,11.8,0,0,0,356.24,104.21Zm71.4-83.67c-5.12.46-11,3.54-12.5,6.52C419.44,24.68,423.85,23.23,427.64,20.54ZM243.24,97.87,234,94.78c1.65,2.23,3.09,4.15,5.73,5ZM352.41,32.92a9.05,9.05,0,0,0-1.28-.3,12,12,0,0,0-2.68,0c-.67.11-1.29.83-1.93.83-2.15,0-4.3-.19-6.45-.27-1,0-2.11,0-2.53,1.44C342.62,34.78,347.47,34.59,352.41,32.92Zm102.4,79.57c-1.29-2.19-3.48-2.9-6-2.8l-.77,2.8Zm34.7-36c.31,5.22-1.25,10.06-2.93,14.87C489.31,86.8,491,82,489.51,76.52ZM415.66,37.73a96.79,96.79,0,0,0,15.18-1.63C425.61,35.1,420.62,36.33,415.66,37.73ZM229.75,55.1c-4.22.62-4.22.62-4.5,2.6l5,1.92C230.07,57.84,229.92,56.54,229.75,55.1Zm107.3,46.72L332.29,99c-1.62-1-3.21-2-4.86-2.89a6.9,6.9,0,0,0-1.87-.35C328.76,99.25,332.12,101.57,337.05,101.82ZM458,112.42c4,.68,11.14-1.14,13.17-3.34C466.85,110.71,462.31,110.48,458,112.42Zm-90.6,7-.05-.65c-5.22-.19-10.43-.21-15.51,1.47ZM226.73,49.08a38.68,38.68,0,0,0,8.43-2c.49-.15.83-.8,1.69-1.68C232.82,46.09,229.44,46.6,226.73,49.08ZM405.85,123l.47.43c5.69-2.8,5.13-3.71,4.29-7-2.14,1-2.31,1.56-1.15,3ZM313.92,32.62l-.8.27a34.58,34.58,0,0,0-1.5,3.35,1.6,1.6,0,0,0,.53,1.32c.2.19.9.09,1.2-.13.92-.67,1.74-1.46,2.53-2.13Zm-42.56-3.75c3.77.52,7.38-.3,10.95-1.44C278.53,26.83,275,27.85,271.36,28.87Zm-29.92,7.28.24.56a22.94,22.94,0,0,0,4-1c1.45-.62,1.53-2,.34-3.49ZM265,20.78c3.59.15,7-.66,10.87-1.68A18.39,18.39,0,0,0,265,20.78Zm171.08,4.46-.5-.76c-2.51.78-5.35-.56-7.66,1.62a40,40,0,0,0,6.82.31C435.24,26.39,435.67,25.65,436.12,25.24ZM249.74,129.15c3.77.1,9.15-1.51,11.76-3.46A57.45,57.45,0,0,0,249.74,129.15Zm154.14-82c.46-2.89,3-5.26,1.95-8.7C404.22,41.3,402.82,43.94,403.88,47.18Zm-151.8-6.06c-.63-.92-1.06-1.56-1.51-2.2-2.06.62-4.23.7-5.24,3.24Zm95.11,9.13,6.71,1.17c-.57-1.11-.8-2.21-1.22-2.29C350.84,48.78,348.91,48.61,347.19,50.25Zm54.92,43.36c-1,1.65-1.7,2.7-2.32,3.77a1.82,1.82,0,0,0,.22,2.46c.16.15.46.15.74.24l.78-2.26,1.9,1.56C403,97.35,402.61,95.81,402.11,93.61Zm4.08,26.66a5.46,5.46,0,0,0-5,4.67C403.88,123.67,405.47,122.19,406.19,120.27Zm56-50.06c-1.07,1.16-2.23,2.11-2.26,4.07l3.35-.22-1.66-2,3.52.91.07-.29ZM416.3,34.1c4,.88,7.37-1,10.94-2l-.13-.56Zm65.44,65.72c-2.73,1.46-6,5.05-6.54,7A25.19,25.19,0,0,0,481.74,99.82ZM257.92,26.62l-3.07,1.51c.16,1,.26,1.65.4,2.34,0,.15.19.28.29.42C258.12,30.25,258.23,30.09,257.92,26.62Zm7.18,81.9c2.15,1,4,1.1,8.45.25C272.09,107.73,267.56,107.6,265.1,108.52ZM389.2,71.34l-.35-.53c-3.19,1.62-7,1.89-9.79,4.33l.22.55ZM260.79,111.27H277.4v-.53C271.81,110.63,266.21,110.34,260.79,111.27Zm87,.49c2.43.32,4.84,1,7.25,0C352.63,111.25,350.24,109.79,347.79,111.76Zm13.34,5.6v.12c2.86.18,5.73.36,8.59.52.73,0,1.49.07,1.41-1.31ZM376,70.84c.41,1.21,1.39.84,2.2.75s1.62-.29,2.25.79c.44.76,1.2.32,1.42-.79.1-.51.26-1,.41-1.57-1.95.15-3.89.3-5.83.47C376.35,70.5,376.23,70.69,376,70.84ZM37.6,64.4c.19-1.62.65-3.1-.74-4.3C34.62,62.61,34.78,63.78,37.6,64.4ZM412.84,30.65c-1.86-.87-2.24.69-2.91,1.39-1.84,2-2.14,3-1.78,4.76ZM346,113.39l-.08.62c1.25.17,2.49.4,3.74.49s2.47,1.26,3.68-.58C350.76,112.88,348.36,113.49,346,113.39Zm28.1,7.1c-3.2-.56-4,.22-3.94,3.49C371.58,122.71,372.84,121.6,374.1,120.49ZM486.65,73.91,484.12,76l2.59,3C487.32,77.1,487.74,75.71,486.65,73.91ZM348.57,27.72c4.15,1.4,4.83,1.24,5.47-1.11A8.1,8.1,0,0,0,348.57,27.72Zm-41.8,18.77,2.19-.58A10.46,10.46,0,0,0,305.35,41C305.9,43.12,306.3,44.65,306.77,46.49ZM479.39,73.72c2.91,1.61,3.07,1.61,4.65.1C482.29,72.12,481.67,72.08,479.39,73.72ZM438.56,25.65l1.27,1-1,1.3c1.35.09,2-.63,1.84-1.4-.33-1.39.31-2.24,1.36-3.12C440.22,23.36,440.22,23.36,438.56,25.65Zm-184.2,1.14c3-1.38,3-1.38,2.43-3.35C253.92,24.55,253.92,24.55,254.36,26.79ZM384,35.44l.07.36L390,34.43l-2.15-1.66Zm-47.45-1.89c-3.61-.41-4.47-.15-5.5,1.7C333,35.32,334.86,35.35,336.53,33.55ZM272,76.58c.06,2,1.16,3,2.71,4C275,77.84,274.82,77.62,272,76.58Zm128.78-9.89c-2.83.2-6.13,1.72-7.38,3.29ZM133.24,61,129.38,60c-2.14-.62-2.14-.62-3.91-.17C128.23,60.25,130.09,62,133.24,61Zm236.62,21.3.31.46a26.9,26.9,0,0,0,6.55-2.9l-.34-.7Zm2.25-12c-2.17-1.32-3.38-.47-4.18,2.63ZM248.64,106.82l0,.38h10.45v-.38Zm110,9.49,0,.23,9.94-.63,0-.5ZM294.8,98.4l.44.37c1.73-1.06,3.43-2.15,3.94-4.42Zm38.77-66.5c2.44.19,4.24.39,5.92-.67C337.66,30.9,335.82,30.38,333.57,31.9Zm-11.32,3.83.48.43,3.78-4.65-.43-.36C324.3,32.24,323.37,34.06,322.25,35.73Zm-4.56,52.89-.8-4.24C315.41,86.21,315.48,86.7,317.69,88.62ZM474.51,78.38l7.66,1,.06-.65A17.62,17.62,0,0,0,474.51,78.38Zm-53.57-4.56c2.18,2.27,3.26,2.73,4.64,1.87C424.19,74.65,422.87,73.72,420.94,73.82Zm24.51.7c.64.92,1.37,1.72,2.54.91a1.61,1.61,0,0,0,.05-1.58C447,72.86,446.13,73.32,445.45,74.52ZM281.87,23.74l.11.69c1.93,0,3.89.38,5.61-1.27Zm187.57,53.6c-2.3-1.14-4.59,0-6.88,0Zm-233.1-37,.15.68,5.76-1.35-.16-.67Zm14.41-12.72a2.83,2.83,0,0,0-1.93,2.22c0,.26.48.59.73.88C251.61,29.21,251.61,29.21,250.75,27.64Zm154.49,76.67a6.4,6.4,0,0,0-3.34-3.79C402.32,102.26,402.32,102.26,405.24,104.31ZM245.68,119.8c-4-.68-6.19-.6-7.46,0Zm157.24,13.94c1.65,2.38,1.83,2.41,4.49.69ZM462.74,22.26l.23-.55c-2.34-1.94-2.34-1.94-4.54-1.17Zm-149.67,42c-.52-.8-.75-1.52-1.24-1.79a2.51,2.51,0,0,0-1.67.19,1,1,0,0,0-.22.91,2.38,2.38,0,0,0,1.18.83A7.52,7.52,0,0,0,313.07,64.23ZM250.46,34c2.41-1.34,2.41-1.34,1.31-3C251,31.82,249.47,32.17,250.46,34ZM436.11,23.49c-2.12-.91-3.73-1.25-5.33.64Zm-5.51,4.09c-4.17-1-4.25-1-5.32.51ZM322.73,131.67c2.58.13,4.32-.62,5.26-1.92ZM254.08,39.31c.26-2.19.09-3-.7-3.15a1,1,0,0,0-.84.39C252.1,37.84,252.65,38.72,254.08,39.31ZM229.6,67.49c1.77-1.22,1.88-1.59,1.11-4A5.19,5.19,0,0,0,229.6,67.49ZM348,30.48c1.66.17,3.31,1.52,5.51.17C351.38,29.79,349.67,30.29,348,30.48Zm-84.71,70.44c2.37,1.09,2.65,1,3.11-1.4ZM354,110.4h3.49C355.25,108.53,355.09,108.52,354,110.4ZM285.13,24.88c2.42,1.08,2.77,1,4.44-.51ZM310.82,61.2c1.91-.39.92-1.57,1.05-2.63C309,58.65,311.76,60.61,310.82,61.2Zm-1.18-9.79c-1.8,1-1.8,1-1.16,2.7C309.59,53.49,310.33,52.81,309.64,51.41Zm8,20-.31,2.27c1.06-.3,2.06.44,2.87-.89Zm-89,2.28c1.62-1.27,1.62-1.27,1-3.19C228.47,71.25,228.65,72.3,228.67,73.73Zm148,43c-1.6-.49-2.72-.25-3.49,1.29C374.57,118.31,375.75,118.47,376.7,116.73Zm-4.22-92.28c-1.78-1.35-1.78-1.35-3.13-.05C370.49,24.74,371.38,25.1,372.48,24.45Zm24.43,104.26-.35-.52-2.26.86,1.66,2.09Zm15.25-14-.06-.64-2.87-.51.16,1.93ZM326.75,30.25a4,4,0,0,0,3.77-2.58C328.64,27.77,327.89,28.83,326.75,30.25Zm94.08,90.18c2.25,1.19,2.28,1.19,3.73,0ZM137.48,60c2.47,1.78,2.58,1.81,4.74,1.26Zm150.63,48.4c-3.18.69-3.18.69-3.71,2.35Zm12.77-54.14-.19-.84-3.89,1.25.17.59ZM352.64,72c-2.07-.83-2.31-.77-3.5.55Zm74,7.71a5.15,5.15,0,0,0-4-2.23ZM318,95.15l-.46.33a3.48,3.48,0,0,0,2.94,2.69Zm24.7,20.74,4-.49C345.49,115,344.22,114.19,342.73,115.89ZM444.6,109l0-.76c-.83-.28-1.66-.53-2.46.59ZM268,98.4l.53.75L271,97.22l-.38-.53Zm66.44-73c-1.77-.05-1.77-.05-2.91,2Zm-43.52,1.63,0,.8,2.56-.15,0-.77Zm14.27,26.56-2.33,1.16C305.28,55.23,305.28,55.23,305.14,53.61Zm16.68-9.79c.52-1.12.83-1.8,1.15-2.48C321.85,41.65,321,42.07,321.82,43.82Zm98.93-15.63c1.75.22,1.75.22,2.42-1.13ZM260.11,21.8l.33.8,2.45-.91-.23-.7Zm190.36,2,0-.22-2.91-.51-.06.43Zm-115.68.51.38.53,2.9-1.71-.26-.44ZM282.06,26l-.14-.45-3.3.52.09.49Zm80.6-2.37-.08-.41-3.1.17v.24Zm-55,24c-.66.81-.65,1.43.12,1.89a.76.76,0,0,0,.72-.14C308.88,48.53,308.61,48,307.65,47.54ZM447,78.35l.27-.49-2.49-1.33-.28.57Zm8.09,32.4v.45l3.32-.2v-.25Zm-15.6-81.53c-2.15-.67-2.15-.67-2.17.89ZM327.11,39.29l.06.72c.9,0,1.87.5,3-1ZM402.68,72h.59l.21-1.54h-.93ZM232,66.34l2.35-1.66C232.93,64.41,232.07,64.33,232,66.34Zm.95-8-.72-.28-.9,2.6.75.26Zm183.42,64.28.07.67,2.3-.26,0-.41ZM328.93,37.31c.94.85,1.84,1.54,2.71,0Zm65.3,99.09c1.31-1.27,1.31-1.27.46-2.39Zm5.94-1.83c-.17,1-.25,1.86,1.42,2.1C401,135.75,400.57,135.16,400.17,134.57ZM260.7,30.36c1.7.38,1.7.38,2.59-1ZM379.33,88c-1.08-.72-1.68-.19-2.65.88ZM464,23.67l-.37.4,2.08,1.16.21-.38ZM368.52,83.25l-2.82-.31C366.79,84.28,367.41,84.31,368.52,83.25Zm8.21-56.71c-.57-.82-1.06-1.26-1.82-.65a.51.51,0,0,0-.13.46C375.23,27.2,375.86,27.08,376.73,26.54Zm-8.13-.22c-1.32-.3-1.33-.31-1.93.5,0,.06.12.28.24.55Zm32.47,52.16.2.59,2-.65-.2-.58ZM399,136.62l-.45.12a13.34,13.34,0,0,0,.39,1.57c0,.13.37.16.93.37Zm-20.84-23.81v-.5l-2.32.16v.16ZM157.57,61.17l.21-.36-2.19-.65-.1.32Zm72.29-9,.08.33L232.2,52l-.1-.35Zm.67-2.21.25.28,1.78-.66-.12-.3Zm108.75,65.53.4.5,1.39-1-.26-.41ZM355.76,118l-.06-.2a4.66,4.66,0,0,0-1.06,0,3.7,3.7,0,0,0-.81.47l.14.23Zm62.37,3.25.15-.2c-.68-.07-1.36-.14-2-.19-.05,0-.12.2-.23.39Zm-173-77.6-.35-.48-1.74.82.24.51ZM194.3,57.23V57h-1.94v.31ZM346.67,28.71l.05.43,2-.13,0-.3Zm30-.42c.38.25.67.53.76.48a3.15,3.15,0,0,0,.57-.67c-.18-.14-.41-.43-.54-.4S377,28,376.71,28.29Zm-33.35,3.35,0-.51-1.44.16,0,.35Zm127.5,4.48.21-.68-1.4-.2-.09.44ZM319.13,34.47l-.54-.31-.61,1,.59.35Zm-76.68,3,.05.29,1.25-.14c0-.12-.09-.37-.12-.36C243.24,37.33,242.84,37.42,242.45,37.49Zm10.7,5.61,0-.4-1.65.18,0,.38Zm147.35-.84-.41.32.72,1.26.31-.16ZM258,31.88c-.89-.3-1.56-.26-1.79,1.11ZM216,57.7c.08.23.15.51.2.51a3.79,3.79,0,0,0,.73-.15c-.06-.15-.1-.42-.18-.43A3.28,3.28,0,0,0,216,57.7Zm273,0-.27.12.44,1,.31-.13ZM302.44,68.31l-.11.44a7.17,7.17,0,0,0,1,.27c.05,0,.14-.29.22-.45ZM386.13,74a5.43,5.43,0,0,0,1.35,0c.23-.09.39-.34.58-.52l-.23-.27ZM252.38,22.28l.09.29a4,4,0,0,0,.91-.17c.21-.08.36-.32.53-.49l-.22-.24Zm-9.06,77.89-.37-.52-1.14.85.23.36Zm220.9,8.3.24.39,1.27-.63-.15-.32Zm-2.94.93-.06-.5-1.71.24.05.38Zm-98.85,4.81.07-.13h-1.29v.2Zm4.53,0v-.07h-1.37Zm-36.85,15.06.08.25,1.38-.41-.11-.33Zm-65.88-24.87,0-.34-1.47.11v.23Z"/><path class="cls-1" d="M411.55,21.05a8.37,8.37,0,0,1,5.37-4.47c1.29-.35,2.48-1.11,3.78-1.34,1.83-.32,3.82-.77,5.56-.36a30.49,30.49,0,0,0,9.85.3c1.5-.13,3.09-.49,4.2,1l0-.08a9.55,9.55,0,0,0-6,0c-.47.17-.77.77-1.15,1.17l.08-.05a15.28,15.28,0,0,0-3.65-.63c-3.87.28-7.72.81-11.58,1.16a7.44,7.44,0,0,0-4.34,2,12.8,12.8,0,0,1-2.22,1.3Zm8.62-4.65c2.31.53,3.22.41,6.3-.82C424.23,15.47,422.23,15.25,420.17,16.4Z"/><path class="cls-1" d="M323.76,24.44c1.72-2.43,4.51-3.22,7-4.46a19.88,19.88,0,0,1,4.89-1.36l-11.93,5.76Z"/><path class="cls-1" d="M406.12,30.3a14.47,14.47,0,0,1,5.43-9.25l-.06-.05c-1.24,2-2.48,4.06-3.7,6.11-.6,1-1.16,2.08-1.74,3.12Z"/><path class="cls-1" d="M323.69,24.38l-3.34,2.09c1.54-1.82,1.57-1.84,3.41-2C323.76,24.44,323.69,24.38,323.69,24.38Z"/><path class="cls-1" d="M253.08,68.84a4.89,4.89,0,0,1-.86.49,51.59,51.59,0,0,1-5.78,1.94A11,11,0,0,1,253.08,68.84Z"/><path class="cls-1" d="M239.29,74.13l3.31-1.62c-1.5,1.51-1.5,1.51-3.37,1.56Z"/><path class="cls-1" d="M233.19,69.74l1.93-.93.23.48-1.93.94Z"/><path class="cls-1" d="M471.81,53.88c1.33-.63,1.33-.63,4.78.22l-2,.37.91,1.43C473.86,55.33,472.48,55.31,471.81,53.88Z"/><path class="cls-1" d="M484.52,59.37a1.83,1.83,0,0,1-2.4-1.39l2.32,1.45Z"/><path class="cls-1" d="M477.69,61.72l2.82,1.42Z"/><path class="cls-1" d="M421.41,48.58c3.61-1.32,6.9-.61,10-1.52l.15.67-3.6.68v.26l6.53.32C431.88,49.88,423.86,49.57,421.41,48.58Z"/><path class="cls-1" d="M417.53,42.63l-2.81.52-.07-.29,2.69-.7Z"/><path class="cls-1" d="M430.34,38.26h-1.59V38h1.59Z"/><path class="cls-1" d="M301.33,45.94l1.49,2.19-.62.33c-.29-.84-.94-1.52-.8-2.58Z"/><path class="cls-1" d="M324.17,46.74l2.23-3C326.12,45.63,326.12,45.63,324.17,46.74Z"/><path class="cls-1" d="M437.25,82.68c.5.18,1,.39,1.48.54.86.26,1.73.48,2.68.74-.65,1.32-1.4.93-2,.7-1.67-.63-3.32-1.33-5-2h0l2.83.06Z"/><path class="cls-1" d="M437.24,82.72l-.8-1.81c1.57.1.72,1.1.81,1.75A.35.35,0,0,1,437.24,82.72Z"/><path class="cls-1" d="M456.51,28.43l-5.44-1,.09-.46,5.41,1.13Z"/><path class="cls-1" d="M461.91,33.1c-2.41,1-4.45-.51-6.68-.67l.1-.6,6.54,1.31Z"/><path class="cls-1" d="M339.82,37H342v.17H339.9Z"/><path class="cls-1" d="M375.15,30.74c-1,1.63-2.73,2.06-4.33,2.68l-.29-.59,4.69-2Z"/></svg>