<svg id="Layer_1" data-name="Layer 1" xmlns="http://www.w3.org/2000/svg" xmlns:xlink="http://www.w3.org/1999/xlink" viewBox="0 0 1440.54 557.89"><defs><style>.cls-1{fill:none;}.cls-2{fill:#b91d29;}.cls-3{clip-path:url(#clip-path);}.cls-4{fill:#9c1a24;}.cls-5{fill:#811526;}.cls-6{fill:#6e1222;}</style><clipPath id="clip-path"><rect class="cls-1" y="156.91" width="1444.75" height="400.98"/></clipPath></defs><rect class="cls-2" x="-12.64" width="1461.24" height="557.89"/><g class="cls-3"><polyline class="cls-4" points="1242.11 586.47 -51.05 585.96 -51.05 238.5 246.69 239.02 246.69 271.06 285.99 279.69 285.99 398.45 314.93 398.45 314.93 350.33 332.33 340.77 332.33 291.78 428.33 291.78 428.33 271.45 488.96 271.45 488.96 387.3 521.52 387.3 521.52 312.12 536.12 304.11 613.59 304.11 613.59 281.92 630.43 272.68 692.18 272.68 692.18 232.62 770.77 232.62 770.77 446.46 843.75 446.46 843.75 349.1 874.63 332.15 874.63 283.77 907.75 283.77 907.75 313.97 966.13 313.97 966.13 417.5 989.71 417.5 989.71 342.32 1009.92 342.32 1009.92 310.89 1035.74 310.89 1035.74 176.54 1146.9 176.54 1146.9 229.54 1233.35 229.54 1233.35 278.84 1242.11 283.65 1242.11 586.47"/><polygon class="cls-5" points="1217.02 272.2 1201.11 289.68 1201.11 343.31 1184.14 343.31 1184.14 196.42 1108.3 196.42 1108.3 538.59 1085.5 513.52 1085.5 316.5 916.86 316.5 916.86 366.63 827.77 366.63 827.77 524.01 827.77 593.31 749.5 593.31 749.5 388.64 726.86 388.64 726.86 309.01 680.46 309.01 680.46 440.9 658.95 440.9 658.95 465.78 631.78 418.5 584.24 418.5 584.24 248.05 492.56 248.05 484.63 256.76 484.63 309.01 484.63 367.49 458.6 367.49 458.6 211.97 380.5 211.97 380.5 238.1 365.22 254.89 365.22 519.9 347.67 519.9 347.67 307.15 337.49 307.15 337.49 286.62 247.5 286.62 232.22 303.42 232.22 327.06 -8.11 328.95 -12.64 630.67 425.77 628.77 425.77 628.14 713.28 628.14 713.28 628.77 827.77 628.77 992.86 628.77 1448.6 628.77 1448.6 272.2 1217.02 272.2 1217.02 272.2"/><polygon class="cls-6" points="1220.59 327.49 1220.59 514.35 1196.47 514.35 1196.47 439.98 1162.31 411.01 1162.31 298.51 1119.1 298.51 1093.98 277.2 1061.82 277.2 1061.82 390.55 984.45 390.55 984.45 519.24 964.35 519.24 964.35 339.42 908.08 364.13 908.08 471.52 893.01 471.52 893.01 306.18 873.91 306.18 873.91 257.6 854.82 257.6 854.82 246.52 846.78 246.52 846.78 255.9 799.55 255.9 799.55 293.39 755.34 293.39 744.29 306.18 744.29 459.58 706.61 459.58 706.61 428.48 682.99 408.45 682.99 335.16 600.59 335.16 600.59 395.67 570.45 395.67 570.45 446.8 534.27 480.89 511.16 480.89 511.16 318.96 446.85 281.46 446.85 431.46 431.78 431.46 431.78 328.34 355.41 328.34 355.41 364.13 320.24 364.13 320.24 535.43 305.16 535.43 305.16 461.29 253.92 461.29 253.92 438.28 244.87 427.2 -24.03 427.2 -28.05 726.34 1139.35 726.34 1196.47 726.34 1220.59 726.34 1448.6 726.34 1448.6 327.49 1220.59 327.49 1220.59 327.49"/></g></svg>