<svg id="Layer_1" data-name="Layer 1" xmlns="http://www.w3.org/2000/svg" viewBox="0 0 1462.56 141.7"><defs><style>.cls-1{fill:#b91d29;}</style></defs><path class="cls-1" d="M1462.56,64.26l-1.32.07V47.5h-70.09c-41.47-19-81.53-46.73-126.32-42.94-19,1.6-36.65,6.58-54.3,11-50.31,12.66-109.53,21.26-158.08,8.57-19.1-5-35.09-13-54.21-17.95C948-6.87,887.18,3,834.46,15.08S726.82,41.83,671.23,37.8c-27-2-52-8.25-78.36-11.82a397.74,397.74,0,0,0-114.75,1.6c-41.49,6.71-82.76,20.18-124.57,16C322.22,40.36,297,27.6,265.93,23.81c-45.31-5.54-91.3,8.78-132.25,22.15l-4.76,1.54H0v94.2H1461.24V65.16Z"/></svg>